<svg width="68" height="20" viewBox="0 0 68 20" fill="none" xmlns="http://www.w3.org/2000/svg">
<path fill-rule="evenodd" clip-rule="evenodd" d="M24.4439 5.59303C24.4439 3.51208 25.6638 2.20018 27.8326 2.20018C28.5103 2.15494 29.188 2.29065 29.8206 2.56208L29.5495 3.33113C29.0073 3.15018 28.4651 3.0597 27.8777 3.0597C26.5674 3.0597 25.5282 3.78351 25.5282 5.50256C25.5282 7.26684 26.6126 8.08113 28.0585 8.08113C28.6007 8.08113 29.0977 7.99065 29.5947 7.85494L29.8206 8.62399C29.188 8.85018 28.5555 8.98589 27.8777 8.94065C25.6186 8.94065 24.4439 7.62875 24.4439 5.59303ZM30.408 6.04541C30.408 5.00494 30.5887 3.37637 31.1761 2.83351C31.6731 2.33589 33.0738 2.01922 34.6552 1.7478L34.7907 2.60732C33.3449 2.83351 32.1249 3.0597 31.8086 3.37637C31.5375 3.73827 31.402 4.19065 31.3568 4.68827C31.899 4.41684 32.4864 4.23589 33.0738 4.23589C34.2937 4.23589 35.0618 4.82399 35.0618 6.36208C35.0618 8.17161 34.0226 8.98589 32.5767 8.98589C31.2664 8.94065 30.408 8.08113 30.408 6.04541ZM34.1581 6.40732C34.1581 5.59303 33.7967 5.00494 32.893 5.00494C32.3508 5.00494 31.8538 5.18589 31.402 5.45732C31.402 5.63827 31.402 5.86446 31.402 6.04541C31.402 7.53827 31.8538 8.26208 32.8027 8.26208C33.8419 8.17161 34.1581 7.26684 34.1581 6.40732ZM35.9203 6.45256C35.9203 4.46208 36.9595 3.69303 38.2246 3.69303C39.6704 3.69303 40.2578 4.5978 40.2578 6.22637V6.58827H36.9143C36.9143 7.90018 37.6824 8.17161 38.586 8.17161C39.0831 8.17161 39.5349 8.08113 39.9867 7.94542L40.1674 8.71446C39.6252 8.89541 39.0379 8.98589 38.4505 8.98589C36.9143 8.98589 35.9203 8.3978 35.9203 6.45256ZM39.2638 5.9097C39.2638 5.00494 38.9475 4.41684 38.1794 4.41684C37.5017 4.41684 37.0047 4.91446 36.9143 5.9097H39.2638ZM41.297 3.87399H42.291V4.23589C42.6525 3.91922 43.1495 3.73827 43.6465 3.69303C44.8664 3.69303 45.6797 4.50732 45.6797 6.22637C45.6797 8.30732 44.4598 8.94065 43.0591 8.94065C42.788 8.94065 42.5169 8.94065 42.2458 8.89541V10.7502H41.2518V3.87399H41.297ZM44.7309 6.27161C44.7309 5.36684 44.4146 4.55256 43.4206 4.55256C43.014 4.55256 42.6525 4.68827 42.3362 4.91446V8.12637C42.6073 8.17161 42.8332 8.21684 43.1043 8.21684C44.2791 8.21684 44.7309 7.40256 44.7309 6.27161ZM46.5834 6.04541C46.5834 5.00494 46.7641 3.37637 47.3515 2.83351C47.8485 2.33589 49.2492 2.01922 50.8306 1.7478L50.9661 2.60732C49.5654 2.83351 48.3003 3.0597 47.9841 3.37637C47.713 3.73827 47.5774 4.19065 47.5322 4.68827C48.0744 4.41684 48.6618 4.23589 49.2492 4.23589C50.4691 4.23589 51.2372 4.82399 51.2372 6.36208C51.2372 8.17161 50.198 8.98589 48.7522 8.98589C47.4419 8.94065 46.5834 8.08113 46.5834 6.04541ZM50.3336 6.40732C50.3336 5.59303 49.9721 5.00494 49.0684 5.00494C48.5262 5.00494 48.0292 5.18589 47.5322 5.45732C47.5322 5.63827 47.5322 5.86446 47.5322 6.04541C47.5322 7.53827 47.9841 8.26208 48.9329 8.26208C50.0173 8.17161 50.3336 7.26684 50.3336 6.40732ZM51.915 7.53827C51.915 6.27161 53.0445 6.00018 53.9482 6.00018H55.0777V5.45732C55.0777 4.77875 54.7163 4.5978 53.9934 4.5978C53.4963 4.5978 53.0445 4.68827 52.5475 4.82399L52.3216 4.10018C52.909 3.87399 53.4963 3.73827 54.1289 3.73827C55.3488 3.73827 56.0266 4.14541 56.0266 5.18589V7.76446C56.0266 7.90018 56.1169 7.99065 56.2073 8.08113C56.2977 8.17161 56.4332 8.17161 56.5688 8.17161L56.4784 8.89541C56.4332 8.89541 56.3429 8.89541 56.2977 8.89541C55.7555 8.89541 55.2585 8.71446 55.1681 8.26208C54.7163 8.66922 54.1289 8.89541 53.4963 8.89541C52.5475 8.94065 51.915 8.44303 51.915 7.53827ZM55.0777 7.71922V6.54303L53.9934 6.58827C53.2704 6.58827 52.909 6.90494 52.909 7.40256C52.909 7.90018 53.2704 8.08113 53.7674 8.08113C54.2193 8.12637 54.6711 7.99065 55.0777 7.71922ZM57.3821 3.87399H58.3761V5.95494H60.7708V3.87399H61.7648V8.94065H60.7708V6.76922H58.3761V8.94065H57.3821V3.87399ZM62.9847 3.87399H63.9787V8.94065H62.9847V3.87399ZM65.4246 7.99065L63.9787 6.27161L66.012 3.82875H67.0963L65.0179 6.18113L66.012 7.26684C66.3282 7.67399 66.7801 7.99065 67.2771 8.17161L67.0963 8.89541C66.4638 8.94065 65.8312 8.57875 65.4246 7.99065ZM20.0159 9.61922C19.9708 15.093 15.4977 19.5264 10.0306 19.5264C4.56346 19.5264 0.0903654 15.093 0 9.61922C0 9.39303 0 9.16684 0 8.94065L6.05448 12.3787L18.8864 5.05018C19.6545 6.4978 20.0159 8.03589 20.0159 9.61922ZM6.09967 9.89065L0.451827 6.67875C0.316279 7.04065 0.225914 7.40256 0.180731 7.76446L6.09967 11.1121L18.3894 4.14541C18.2086 3.82875 17.9827 3.55732 17.7116 3.28589L6.09967 9.89065ZM16.9435 2.47161C16.6724 2.20018 16.3561 1.97399 16.0399 1.70256L6.09967 7.40256L1.3103 4.68827C1.12957 5.00494 0.948837 5.32161 0.813289 5.63827L6.09967 8.66922L16.9435 2.47161ZM6.09967 6.22637L15.091 1.11446C14.7296 0.888272 14.3229 0.70732 13.9163 0.526367L6.09967 4.9597L2.6206 2.96922C2.3495 3.24065 2.12359 3.55732 1.89767 3.82875L6.09967 6.22637Z" fill="#299D37"/>
<path fill-rule="evenodd" clip-rule="evenodd" d="M24.4893 14.7313C24.4893 12.6503 25.7544 11.3837 27.878 11.3837C30.0919 11.3837 31.1311 12.8313 31.1311 14.7765C31.1311 16.8122 29.9564 18.1694 27.7424 18.1694C25.5736 18.1242 24.4893 16.767 24.4893 14.7313ZM30.0919 14.7313C30.0919 13.2837 29.369 12.1527 27.8328 12.1527C26.2062 12.1527 25.5285 13.2384 25.5285 14.6861C25.5285 16.0884 26.2062 17.2646 27.7876 17.2646C29.4142 17.3099 30.0919 16.2242 30.0919 14.7313ZM32.1251 13.0575H33.074V15.1837H35.3783V13.0575H36.3723V18.1242H35.3783V15.9527H33.074V18.1242H32.1251V13.0575ZM37.0952 17.4908C37.5019 17.3551 37.8633 17.1289 38.0893 16.767C38.3604 16.2242 38.5411 14.867 38.5863 13.1027H41.8394V18.1694H40.8906V13.8718H39.3996C39.264 15.6361 39.0833 16.7218 38.7218 17.3551C38.4055 17.8527 37.9085 18.2146 37.3212 18.3503L37.0952 17.4908ZM42.8334 16.767C42.8334 15.5003 43.963 15.2289 44.8667 15.2289H45.9962V14.6861C45.9962 14.0075 45.6348 13.8265 44.8667 13.8265C44.3697 13.8265 43.8726 13.917 43.4208 14.0527L43.2401 13.3289C43.8275 13.1027 44.4148 12.967 45.0474 12.967C46.2673 12.967 46.9451 13.4194 46.9451 14.4146V17.0837C46.9451 17.2194 47.0354 17.3099 47.1258 17.4003C47.2162 17.4908 47.3517 17.4908 47.4873 17.4908L47.3969 18.2146C47.3517 18.2146 47.2614 18.2146 47.2162 18.2146C46.674 18.2146 46.177 18.0789 46.0866 17.6265C45.6348 18.0337 45.0474 18.2599 44.4148 18.2599C43.466 18.2146 42.8334 17.717 42.8334 16.767ZM45.9962 16.9932V15.817L44.9118 15.8622C44.1889 15.8622 43.8275 16.1789 43.8275 16.6765C43.8275 16.9027 43.9178 17.1289 44.0986 17.2646C44.2793 17.4003 44.5052 17.4908 44.6859 17.4456C45.1378 17.4003 45.5896 17.2646 45.9962 16.9932ZM48.3909 13.0575H49.2946V16.1789L49.2494 16.8575L49.7012 16.1789L51.87 13.1027H52.864V18.1694H51.87V15.0932L51.9152 14.4146L51.4633 15.1384L49.2946 18.2146H48.3909V13.0575ZM49.1138 11.2932L49.5205 10.8408C49.7916 11.2027 50.1982 11.3837 50.6049 11.3837C51.0567 11.3837 51.4633 11.1575 51.7344 10.8408L52.1411 11.2932C51.8248 11.8361 51.2374 12.1527 50.6049 12.1527C50.0175 12.1527 49.4301 11.8361 49.1138 11.2932ZM54.2195 13.0575H55.2135V15.1837H57.6082V13.0575H58.6022V18.1242H57.6082V15.9527H55.2135V18.1242H54.2195V13.0575Z" fill="#F59726"/>
</svg>
