<svg width="72" height="22" viewBox="0 0 72 22" fill="none" xmlns="http://www.w3.org/2000/svg">
<path fill-rule="evenodd" clip-rule="evenodd" d="M12.893 18.5474H0.215282C0.0956811 18.5474 0 18.645 0 18.7671V21.1113C0 21.2334 0.0956811 21.3311 0.215282 21.3311H12.893C13.0126 21.3311 13.1083 21.2334 13.1083 21.1113V18.7671C13.1083 18.645 13.0126 18.5474 12.893 18.5474Z" fill="#EE3524"/>
<path d="M0.645747 13.6392C0.765348 13.6636 2.63113 14.4206 2.72681 14.4694C2.84641 14.5182 2.94209 14.445 2.98993 14.3473C3.01385 14.2496 3.80322 12.0519 3.87498 11.8078H9.23312C9.3288 12.0519 10.0943 14.2496 10.1182 14.3473C10.1421 14.445 10.2617 14.5182 10.3813 14.4694C10.477 14.445 12.3428 13.688 12.4624 13.6392C12.582 13.5659 12.6059 13.4438 12.582 13.3461C12.4624 13.0531 8.87432 2.96823 8.7308 2.55311C8.37199 1.55195 7.91751 0.526367 6.55405 0.526367C5.1906 0.526367 4.71219 1.55195 4.40123 2.55311C4.20987 3.0659 0.669667 12.9799 0.526145 13.3461C0.478305 13.4682 0.526145 13.5903 0.645747 13.6392ZM6.55405 3.82288L8.37199 9.34148H4.73611L6.55405 3.82288Z" fill="#EE3524"/>
<path d="M54.9687 9.6099C54.6099 9.6099 54.3468 9.65874 53.964 9.75641V7.99827C54.2272 7.94944 54.6338 7.92502 55.0883 7.92502C55.5189 7.92502 56.069 7.94944 56.5714 8.02269L56.6192 6.99711C56.069 6.87502 55.2557 6.77734 54.6338 6.77734C54.0119 6.77734 53.079 6.94827 52.6006 7.07037V13.6146C53.3182 13.8832 54.0119 13.9808 54.7056 13.9808C56.3082 13.9808 57.1694 13.1018 57.1694 11.6855C57.1933 10.4401 56.4757 9.6099 54.9687 9.6099ZM54.8013 12.9064C54.5381 12.9064 54.3228 12.9064 53.964 12.8087V10.782C54.1315 10.7576 54.4185 10.7087 54.8013 10.7087C55.471 10.7332 55.8298 11.0506 55.8298 11.7832C55.8298 12.4669 55.471 12.9064 54.8013 12.9064Z" fill="#EE3524"/>
<path d="M41.0232 8.75525C40.7123 8.75525 40.4731 8.77967 40.186 8.92618V6.77734H38.8943V8.90176C38.6073 8.75525 38.4159 8.73083 38.0571 8.73083C36.7415 8.73083 35.9521 9.53665 35.9521 11.368C35.9521 13.0529 36.6698 13.9564 37.8419 13.9564C38.392 13.9564 38.7269 13.8099 38.8704 13.7122V15.4948H40.186V15.4704V13.6878C40.3535 13.7855 40.6644 13.932 41.2146 13.932C42.291 13.932 43.1043 13.0285 43.1043 11.3192C43.1043 9.53665 42.3149 8.75525 41.0232 8.75525ZM38.8943 12.7355C38.6073 12.8332 38.4877 12.8576 38.2246 12.8576C37.5548 12.8576 37.3156 12.3204 37.3156 11.368C37.3156 10.3669 37.6026 9.85409 38.2007 9.85409C38.4638 9.85409 38.6073 9.85409 38.9183 10.0006V12.7355H38.8943ZM40.8558 12.8332C40.5927 12.8332 40.497 12.8087 40.186 12.7111V10.0006C40.4731 9.85409 40.6644 9.85409 40.9036 9.85409C41.5017 9.82967 41.7887 10.318 41.7887 11.3436C41.8126 12.2471 41.4299 12.8332 40.8558 12.8332Z" fill="#EE3524"/>
<path fill-rule="evenodd" clip-rule="evenodd" d="M26.6469 9.07305V11.5393C26.6469 12.1986 26.6229 12.4184 26.5512 12.6138C26.4794 12.8091 26.3837 13.0289 26.1445 13.1998L26.4794 13.9812C27.508 13.6882 27.9146 13.2242 27.9146 11.7835V9.95212C28.2495 9.87887 28.3213 9.87887 28.6083 9.87887C28.8954 9.87887 28.9193 9.90329 29.2781 9.95212V13.8835H30.5459V9.07305C29.8283 8.85329 29.302 8.78003 28.5844 8.78003C27.8907 8.75561 27.3645 8.85329 26.6469 9.07305Z" fill="#EE3524"/>
<path d="M47.4342 10.5379C47.4342 9.80538 47.3385 9.56119 47.1471 9.26817C46.884 8.90189 46.4534 8.73096 45.6641 8.73096C45.09 8.73096 44.5398 8.80421 44.0136 8.92631L44.2049 9.87863C44.5637 9.82979 44.9464 9.78096 45.2096 9.78096C46.0707 9.78096 46.1425 9.90305 46.1425 10.5624V10.8065C45.9511 10.7577 45.7597 10.7089 45.4966 10.7089C44.2049 10.7089 43.5352 11.3437 43.5352 12.3937C43.5352 13.3705 44.2528 13.9077 45.1378 13.9077C45.4488 13.9077 45.8076 13.8344 46.0707 13.7368C46.2381 13.6635 46.3099 13.6147 46.5013 13.4682C46.6448 13.6635 46.884 13.8344 46.9797 13.8833L47.8647 13.3705C47.5298 12.8577 47.4342 12.5158 47.4342 11.8565V10.5379ZM45.5445 12.931C45.09 12.931 44.8268 12.7356 44.8268 12.2717C44.8268 11.7833 45.1378 11.5879 45.7837 11.5879C45.9511 11.5879 46.0707 11.6124 46.1425 11.6368V11.9786C46.1664 12.3693 46.1664 12.6379 46.2142 12.8089C45.975 12.9065 45.7837 12.931 45.5445 12.931Z" fill="#EE3524"/>
<path d="M61.4986 10.5379C61.4986 9.80538 61.4269 9.56119 61.2116 9.26817C60.9484 8.90189 60.5179 8.73096 59.7285 8.73096C59.1544 8.73096 58.6043 8.80421 58.078 8.92631L58.2694 9.87863C58.6282 9.82979 59.0109 9.78096 59.274 9.78096C60.1352 9.78096 60.2069 9.90305 60.2069 10.5624V10.8065C60.0156 10.7577 59.8242 10.7089 59.5611 10.7089C58.2694 10.7089 57.5996 11.3437 57.5996 12.3937C57.5996 13.3705 58.3172 13.9077 59.2023 13.9077C59.5132 13.9077 59.872 13.8344 60.1352 13.7368C60.3026 13.6635 60.3744 13.6147 60.5657 13.4682C60.7092 13.6635 60.9484 13.8344 61.0441 13.8833L61.9053 13.3461C61.5704 12.8333 61.4747 12.4914 61.4747 11.8321V10.5379H61.4986ZM59.6328 12.931C59.1783 12.931 58.9152 12.7356 58.9152 12.2717C58.9152 11.7833 59.2262 11.5879 59.872 11.5879C60.0395 11.5879 60.1591 11.6124 60.2308 11.6368V11.9786C60.2308 12.3693 60.2548 12.6379 60.3026 12.8089C60.0395 12.9065 59.8481 12.931 59.6328 12.931Z" fill="#EE3524"/>
<path d="M33.6079 10.3182C33.3209 10.3182 33.1295 10.367 32.7707 10.4402V8.8042H31.5029V8.82862V13.5902C32.1009 13.8589 32.7946 13.9565 33.3687 13.9565C34.7322 13.9565 35.4498 13.224 35.4498 12.0519C35.4737 10.9775 34.8278 10.3182 33.6079 10.3182ZM33.3926 12.9554C33.1773 12.9554 33.1056 12.9554 32.8425 12.8821V11.4414C33.1773 11.3682 33.2013 11.3682 33.3926 11.3682C33.9667 11.3682 34.182 11.6612 34.182 12.1251C34.1581 12.6379 34.0146 12.9554 33.3926 12.9554Z" fill="#EE3524"/>
<path fill-rule="evenodd" clip-rule="evenodd" d="M65.3021 10.7821H63.843V8.87744H62.5752V13.8833H63.843V11.8321H65.3021V13.8833H66.5938V8.87744H65.3021V10.7821Z" fill="#EE3524"/>
<path fill-rule="evenodd" clip-rule="evenodd" d="M70.8996 12.003C70.7083 11.6367 70.5408 11.3437 70.1342 11.246V11.2216C70.4212 11.1727 70.6126 11.0018 70.8518 10.5134C71.091 10.0251 71.1388 9.92738 71.2584 9.80529C71.402 9.6832 71.5455 9.73203 71.5455 9.73203L71.6172 8.82854C71.4259 8.77971 71.2345 8.77971 71.0192 8.80413C70.6844 8.82854 70.493 8.92622 70.3256 9.09715C70.182 9.21924 70.0864 9.41459 69.9907 9.65878C69.8471 9.90296 69.7515 10.0983 69.6558 10.3669C69.5362 10.6355 69.4644 10.7332 69.1535 10.7332H68.9382V8.85296H67.6465V13.8588H68.9382V11.8076H69.1295C69.4883 11.8076 69.5601 11.9053 69.7515 12.296C69.9907 12.7599 70.4212 13.8344 70.4212 13.8344H71.7847C71.7847 13.8832 71.0671 12.3448 70.8996 12.003Z" fill="#EE3524"/>
<path d="M22.7483 6.75293C22.4134 6.75293 22.2938 6.80177 22.0068 6.89944L19.6387 13.8832H21.0739C21.0739 13.8832 21.2652 13.2727 21.4805 12.5157H23.9443C24.1596 13.2727 24.327 13.8832 24.327 13.8832H25.8101L23.5855 6.92386C23.3463 6.82619 23.0353 6.75293 22.7483 6.75293ZM21.8154 11.3436C21.8154 11.3436 22.2221 9.92735 22.2699 9.732C22.4373 9.17037 22.6765 8.26688 22.6765 8.26688H22.7483C22.7483 8.26688 22.9875 9.19479 23.1071 9.732C23.1789 9.95177 23.5616 11.3436 23.5616 11.3436H21.8154Z" fill="#EE3524"/>
<path fill-rule="evenodd" clip-rule="evenodd" d="M50.0413 10.5137C49.5868 10.5137 49.2041 10.88 49.2041 11.3683C49.2041 11.8323 49.5629 12.223 50.0413 12.223C50.5197 12.223 50.8785 11.8567 50.8785 11.3683C50.8546 10.9288 50.4958 10.5381 50.0413 10.5137Z" fill="#EE3524"/>
</svg>
