<svg width="784" height="157" viewBox="0 0 784 157" fill="none" xmlns="http://www.w3.org/2000/svg">
<g filter="url(#filter0_d_6_3)">
<mask id="path-1-inside-1_6_3" fill="white">
<path fill-rule="evenodd" clip-rule="evenodd" d="M746.36 12.742C745.962 10.569 744.209 8.76221 742 8.76221H42C39.7908 8.76221 38.0381 10.5689 37.6403 12.742C36.0021 21.6928 28.9384 28.75 19.9799 30.3855C17.8067 30.7823 16 32.5352 16 34.7443V106.68C16 108.889 17.8067 110.642 19.9799 111.039C28.9385 112.674 36.0022 119.732 37.6404 128.682C38.0381 130.856 39.7909 132.662 42 132.662L742 132.662C744.209 132.662 745.962 130.856 746.36 128.683C747.998 119.732 755.062 112.674 764.02 111.039C766.193 110.642 768 108.889 768 106.68V34.7443C768 32.5352 766.193 30.7823 764.02 30.3855C755.062 28.75 747.998 21.6928 746.36 12.742Z"/>
</mask>
<path fill-rule="evenodd" clip-rule="evenodd" d="M746.36 12.742C745.962 10.569 744.209 8.76221 742 8.76221H42C39.7908 8.76221 38.0381 10.5689 37.6403 12.742C36.0021 21.6928 28.9384 28.75 19.9799 30.3855C17.8067 30.7823 16 32.5352 16 34.7443V106.68C16 108.889 17.8067 110.642 19.9799 111.039C28.9385 112.674 36.0022 119.732 37.6404 128.682C38.0381 130.856 39.7909 132.662 42 132.662L742 132.662C744.209 132.662 745.962 130.856 746.36 128.683C747.998 119.732 755.062 112.674 764.02 111.039C766.193 110.642 768 108.889 768 106.68V34.7443C768 32.5352 766.193 30.7823 764.02 30.3855C755.062 28.75 747.998 21.6928 746.36 12.742Z" fill="#9A2944"/>
<path d="M764.02 30.3855L763.84 31.3693L764.02 30.3855ZM764.02 111.039L763.84 110.055L764.02 111.039ZM742 132.662L742 131.662L742 132.662ZM746.36 128.683L747.343 128.863L746.36 128.683ZM42 132.662L42 133.662L42 132.662ZM19.9799 111.039L19.8003 112.023L19.9799 111.039ZM746.36 12.742L747.343 12.562L746.36 12.742ZM37.6403 12.742L36.6567 12.5619L37.6403 12.742ZM42 9.76221H742V7.76221H42V9.76221ZM20.1595 31.3693C29.5267 29.6591 36.9108 22.2823 38.624 12.922L36.6567 12.5619C35.0934 21.1034 28.3502 27.8408 19.8003 29.4018L20.1595 31.3693ZM17 106.68V34.7443H15V106.68H17ZM38.624 128.502C36.9109 119.142 29.5267 111.765 20.1595 110.055L19.8003 112.023C28.3502 113.584 35.0934 120.321 36.6567 128.863L38.624 128.502ZM742 131.662L42 131.662L42 133.662L742 133.662L742 131.662ZM747.343 128.863C748.907 120.321 755.65 113.584 764.2 112.023L763.84 110.055C754.473 111.765 747.089 119.142 745.376 128.503L747.343 128.863ZM767 34.7443V106.68H769V34.7443H767ZM745.376 12.922C747.089 22.2823 754.473 29.6591 763.84 31.3693L764.2 29.4018C755.65 27.8408 748.907 21.1034 747.343 12.562L745.376 12.922ZM769 34.7443C769 31.947 766.737 29.865 764.2 29.4018L763.84 31.3693C765.65 31.6997 767 33.1233 767 34.7443H769ZM764.2 112.023C766.737 111.559 769 109.477 769 106.68H767C767 108.301 765.65 109.725 763.84 110.055L764.2 112.023ZM742 133.662C744.797 133.662 746.879 131.399 747.343 128.863L745.376 128.503C745.045 130.312 743.621 131.662 742 131.662L742 133.662ZM36.6567 128.863C37.1209 131.399 39.2027 133.662 42 133.662L42 131.662C40.3791 131.662 38.9553 130.312 38.624 128.502L36.6567 128.863ZM15 106.68C15 109.477 17.2635 111.559 19.8003 112.023L20.1595 110.055C18.3499 109.725 17 108.301 17 106.68H15ZM19.8003 29.4018C17.2635 29.865 15 31.947 15 34.7443H17C17 33.1233 18.3499 31.6997 20.1595 31.3693L19.8003 29.4018ZM742 9.76221C743.621 9.76221 745.045 11.1122 745.376 12.922L747.343 12.562C746.879 10.0258 744.797 7.76221 742 7.76221V9.76221ZM42 7.76221C39.2026 7.76221 37.1209 10.0257 36.6567 12.5619L38.624 12.922C38.9552 11.1121 40.379 9.76221 42 9.76221V7.76221Z" fill="#C5AA79" mask="url(#path-1-inside-1_6_3)"/>
</g>
<defs>
<filter id="filter0_d_6_3" x="0" y="0.762207" width="784" height="155.9" filterUnits="userSpaceOnUse" color-interpolation-filters="sRGB">
<feFlood flood-opacity="0" result="BackgroundImageFix"/>
<feColorMatrix in="SourceAlpha" type="matrix" values="0 0 0 0 0 0 0 0 0 0 0 0 0 0 0 0 0 0 127 0" result="hardAlpha"/>
<feOffset dy="8"/>
<feGaussianBlur stdDeviation="8"/>
<feColorMatrix type="matrix" values="0 0 0 0 0.313726 0 0 0 0 0.341176 0 0 0 0 0.411765 0 0 0 0.05 0"/>
<feBlend mode="normal" in2="BackgroundImageFix" result="effect1_dropShadow_6_3"/>
<feBlend mode="normal" in="SourceGraphic" in2="effect1_dropShadow_6_3" result="shape"/>
</filter>
</defs>
</svg>
