<svg width="56" height="30" viewBox="0 0 56 30" fill="none" xmlns="http://www.w3.org/2000/svg">
<path fill-rule="evenodd" clip-rule="evenodd" d="M49.6926 25.7165H45.3662V17.6304H49.6926V25.7165Z" fill="#6C6BBD"/>
<path fill-rule="evenodd" clip-rule="evenodd" d="M45.6407 21.6733C45.6407 20.033 46.3792 18.5719 47.5292 17.6303C46.6882 16.9417 45.6269 16.5308 44.4734 16.5308C41.7428 16.5308 39.5293 18.8331 39.5293 21.6733C39.5293 24.5135 41.7428 26.8159 44.4734 26.8159C45.6269 26.8159 46.6882 26.4049 47.5292 25.7164C46.3792 24.7748 45.6407 23.3136 45.6407 21.6733Z" fill="#D32011"/>
<path fill-rule="evenodd" clip-rule="evenodd" d="M55.5295 21.6733C55.5295 24.5135 53.316 26.8159 50.5853 26.8159C49.4319 26.8159 48.3706 26.4049 47.5293 25.7164C48.6796 24.7748 49.4181 23.3136 49.4181 21.6733C49.4181 20.033 48.6796 18.5719 47.5293 17.6303C48.3706 16.9417 49.4319 16.5308 50.5853 16.5308C53.316 16.5308 55.5295 18.8331 55.5295 21.6733Z" fill="#0099DF"/>
<path d="M51.1568 28.0012C51.2143 28.0012 51.297 28.0126 51.3602 28.0385L51.2722 28.3183C51.2118 28.2925 51.1515 28.284 51.0936 28.284C50.9069 28.284 50.8135 28.4095 50.8135 28.6351V29.4009H50.5277V28.0355H50.8107V28.2013C50.8849 28.0813 50.9921 28.0012 51.1568 28.0012ZM50.1011 28.3069H49.6343V28.9238C49.6343 29.0608 49.6808 29.1524 49.8239 29.1524C49.8981 29.1524 49.9914 29.1265 50.0763 29.0752L50.1587 29.3293C50.0681 29.395 49.9254 29.4352 49.8019 29.4352C49.4639 29.4352 49.346 29.2465 49.346 28.9294V28.3069H49.0794V28.0355H49.346V27.6213H49.6343V28.0355H50.1011V28.3069ZM46.4453 28.5982C46.4758 28.401 46.5908 28.2667 46.7942 28.2667C46.9782 28.2667 47.0964 28.3867 47.1265 28.5982H46.4453ZM47.4233 28.7182C47.4205 28.2925 47.1677 28.0012 46.7996 28.0012C46.4151 28.0012 46.146 28.2925 46.146 28.7182C46.146 29.152 46.4261 29.4349 46.8191 29.4349C47.0168 29.4349 47.1979 29.3835 47.3573 29.2436L47.2171 29.0236C47.1074 29.1151 46.9672 29.1664 46.8354 29.1664C46.6515 29.1664 46.484 29.0778 46.4428 28.8323H47.4177C47.4205 28.795 47.4233 28.7581 47.4233 28.7182ZM48.6783 28.384C48.5988 28.3324 48.4369 28.2667 48.2693 28.2667C48.1127 28.2667 48.0194 28.3268 48.0194 28.4269C48.0194 28.5181 48.1181 28.5439 48.2416 28.5609L48.3762 28.5809C48.6619 28.624 48.8348 28.7496 48.8348 28.9896C48.8348 29.2495 48.6151 29.4352 48.2363 29.4352C48.0219 29.4352 47.8241 29.378 47.6676 29.258L47.8021 29.0265C47.8983 29.1037 48.0414 29.1694 48.2391 29.1694C48.434 29.1694 48.5384 29.1095 48.5384 29.0036C48.5384 28.9268 48.4642 28.8836 48.3076 28.8611L48.1731 28.8411C47.8792 28.798 47.7198 28.661 47.7198 28.4383C47.7198 28.1669 47.9342 28.0012 48.2665 28.0012C48.4752 28.0012 48.6648 28.0499 48.8018 28.1441L48.6783 28.384ZM52.2008 28.2833C52.1421 28.2833 52.0877 28.2941 52.0371 28.3154C51.9868 28.337 51.9431 28.367 51.9063 28.4056C51.8695 28.4442 51.8406 28.4906 51.8195 28.5446C51.7984 28.5985 51.7881 28.658 51.7881 28.7228C51.7881 28.7878 51.7984 28.847 51.8195 28.9009C51.8406 28.9549 51.8695 29.0013 51.9063 29.0399C51.9431 29.0785 51.9868 29.1086 52.0371 29.1301C52.0877 29.1517 52.1421 29.1622 52.2008 29.1622C52.2596 29.1622 52.3143 29.1517 52.3646 29.1301C52.4152 29.1086 52.4593 29.0785 52.496 29.0399C52.5335 29.0013 52.5624 28.9549 52.5838 28.9009C52.6048 28.847 52.6152 28.7878 52.6152 28.7228C52.6152 28.658 52.6048 28.5985 52.5838 28.5446C52.5624 28.4906 52.5335 28.4442 52.496 28.4056C52.4593 28.367 52.4152 28.337 52.3646 28.3154C52.3143 28.2941 52.2596 28.2833 52.2008 28.2833ZM52.2008 28.0012C52.3027 28.0012 52.397 28.0195 52.4838 28.0564C52.5705 28.0931 52.6457 28.1437 52.7089 28.2081C52.7724 28.2726 52.8217 28.3487 52.8576 28.4364C52.8934 28.5243 52.9113 28.6198 52.9113 28.7228C52.9113 28.8257 52.8934 28.9212 52.8576 29.0092C52.8217 29.0968 52.7724 29.1733 52.7089 29.2377C52.6457 29.3021 52.5705 29.3525 52.4838 29.3894C52.397 29.426 52.3027 29.4443 52.2008 29.4443C52.099 29.4443 52.0047 29.426 51.9179 29.3894C51.8311 29.3525 51.7566 29.3021 51.6938 29.2377C51.6309 29.1733 51.5815 29.0968 51.5457 29.0092C51.5099 28.9212 51.4919 28.8257 51.4919 28.7228C51.4919 28.6198 51.5099 28.5243 51.5457 28.4364C51.5815 28.3487 51.6309 28.2726 51.6938 28.2081C51.7566 28.1437 51.8311 28.0931 51.9179 28.0564C52.0047 28.0195 52.099 28.0012 52.2008 28.0012ZM44.7766 28.7182C44.7766 28.4782 44.9278 28.2811 45.1749 28.2811C45.411 28.2811 45.5704 28.4697 45.5704 28.7182C45.5704 28.9667 45.411 29.155 45.1749 29.155C44.9278 29.155 44.7766 28.9582 44.7766 28.7182ZM45.8395 28.7182V28.0355H45.554V28.2013C45.4632 28.0783 45.3261 28.0012 45.1394 28.0012C44.7713 28.0012 44.483 28.301 44.483 28.7182C44.483 29.135 44.7713 29.4352 45.1394 29.4352C45.3261 29.4352 45.4632 29.358 45.554 29.2351V29.4009H45.8395V28.7182ZM44.2302 29.4009V28.5439C44.2302 28.2212 44.0325 28.0041 43.714 28.0012C43.5465 27.9982 43.3732 28.0525 43.2525 28.2441C43.162 28.0927 43.0189 28.0012 42.8184 28.0012C42.6785 28.0012 42.5411 28.044 42.4339 28.2039V28.0355H42.1484V29.4009H42.4367V28.644C42.4367 28.4069 42.5631 28.2811 42.758 28.2811C42.9476 28.2811 43.0438 28.4095 43.0438 28.641V29.4009H43.3321V28.644C43.3321 28.4069 43.4641 28.2811 43.6533 28.2811C43.8486 28.2811 43.9419 28.4095 43.9419 28.641V29.4009H44.2302Z" fill="#110F0D"/>
<path fill-rule="evenodd" clip-rule="evenodd" d="M23.976 22.9125H31.7761C31.4215 24.0554 30.2988 24.9125 28.9988 24.9125H26.6351V27.1982H23.976V22.9125ZM14.5213 19.1982H17.1805V23.7697H17.4759C17.4759 23.7697 18.185 22.3982 19.5441 19.7697C19.8396 19.2554 20.4305 19.1982 20.4305 19.1982H22.7942V27.1982H20.135V22.6268H19.8396C19.8396 22.6268 19.3669 23.5411 17.7714 26.6268C17.4759 27.1982 16.885 27.1982 16.885 27.1982H14.5213V19.1982ZM3.29395 27.1982V19.1982H5.95307C5.95307 19.1982 6.72126 19.1982 7.1349 20.3411C8.19855 23.3697 8.31673 23.7697 8.31673 23.7697C8.31673 23.7697 8.5531 23.0268 9.49856 20.3411C9.9122 19.1982 10.6804 19.1982 10.6804 19.1982H13.3395V27.1982H10.6804V22.9125H10.3849L8.90765 27.1982H7.72581L6.24852 22.9125H5.95307V27.1982H3.29395Z" fill="#4DB45F"/>
<path fill-rule="evenodd" clip-rule="evenodd" d="M29.2156 19.1982H23.4902C23.7981 21.0066 25.645 22.6982 27.6765 22.6982H32.2322C32.2938 22.5232 32.2938 22.2899 32.2938 22.1149C32.2938 20.4816 30.9394 19.1982 29.2156 19.1982Z" fill="url(#paint0_linear_2_1204)"/>
<path d="M42.4381 13.3969V12.5408C42.4381 12.2126 42.246 11.9986 41.9167 11.9986C41.7521 11.9986 41.5737 12.0556 41.4502 12.2411C41.3542 12.0842 41.217 11.9986 41.0112 11.9986C40.874 11.9986 40.7368 12.0414 40.627 12.1983V12.0271H40.3389V13.3969H40.627V12.6407C40.627 12.3981 40.7505 12.2839 40.9426 12.2839C41.1346 12.2839 41.2307 12.4124 41.2307 12.6407V13.3969H41.5188V12.6407C41.5188 12.3981 41.656 12.2839 41.8344 12.2839C42.0265 12.2839 42.1225 12.4124 42.1225 12.6407V13.3969H42.4381ZM46.7051 12.0271H46.2386V11.6133H45.9505V12.0271H45.6898V12.2982H45.9505V12.926C45.9505 13.24 46.074 13.4255 46.4032 13.4255C46.5267 13.4255 46.6639 13.3827 46.76 13.3256L46.6776 13.0687C46.5953 13.1258 46.4993 13.1401 46.4307 13.1401C46.2935 13.1401 46.2386 13.0545 46.2386 12.9118V12.2982H46.7051V12.0271ZM49.1473 11.9986C48.9827 11.9986 48.8729 12.0842 48.8043 12.1983V12.0271H48.5162V13.3969H48.8043V12.6264C48.8043 12.3981 48.9003 12.2697 49.0787 12.2697C49.1336 12.2697 49.2022 12.2839 49.2571 12.2982L49.3394 12.0128C49.2845 11.9986 49.2022 11.9986 49.1473 11.9986ZM45.4565 12.1412C45.3193 12.0414 45.1273 11.9986 44.9214 11.9986C44.5922 11.9986 44.3726 12.1698 44.3726 12.4409C44.3726 12.6692 44.5373 12.7976 44.8254 12.8404L44.9626 12.8547C45.1135 12.8832 45.1959 12.926 45.1959 12.9974C45.1959 13.0973 45.0861 13.1686 44.894 13.1686C44.7019 13.1686 44.551 13.0973 44.455 13.0259L44.3178 13.2542C44.4687 13.3684 44.6745 13.4255 44.8803 13.4255C45.2645 13.4255 45.484 13.24 45.484 12.9831C45.484 12.7405 45.3056 12.6121 45.0312 12.5693L44.894 12.555C44.7705 12.5408 44.6745 12.5122 44.6745 12.4266C44.6745 12.3267 44.7705 12.2697 44.9214 12.2697C45.0861 12.2697 45.2507 12.341 45.3331 12.3838L45.4565 12.1412ZM53.1125 11.9986C52.9478 11.9986 52.8381 12.0842 52.7695 12.1983V12.0271H52.4813V13.3969H52.7695V12.6264C52.7695 12.3981 52.8655 12.2697 53.0439 12.2697C53.0987 12.2697 53.1673 12.2839 53.2222 12.2982L53.3045 12.0128C53.2497 11.9986 53.1673 11.9986 53.1125 11.9986ZM49.4354 12.712C49.4354 13.1258 49.7098 13.4255 50.1352 13.4255C50.3272 13.4255 50.4644 13.3827 50.6016 13.2685L50.4644 13.0259C50.3547 13.1115 50.2449 13.1543 50.1214 13.1543C49.8882 13.1543 49.7236 12.9831 49.7236 12.712C49.7236 12.4552 49.8882 12.2839 50.1214 12.2697C50.2449 12.2697 50.3547 12.3125 50.4644 12.3981L50.6016 12.1555C50.4644 12.0414 50.3272 11.9986 50.1352 11.9986C49.7098 11.9986 49.4354 12.2982 49.4354 12.712ZM52.0972 12.712V12.0271H51.809V12.1983C51.713 12.0699 51.5758 11.9986 51.3974 11.9986C51.027 11.9986 50.7389 12.2982 50.7389 12.712C50.7389 13.1258 51.027 13.4255 51.3974 13.4255C51.5895 13.4255 51.7267 13.3541 51.809 13.2257V13.3969H52.0972V12.712ZM51.0407 12.712C51.0407 12.4694 51.1916 12.2697 51.4386 12.2697C51.6718 12.2697 51.8365 12.4552 51.8365 12.712C51.8365 12.9546 51.6718 13.1543 51.4386 13.1543C51.1916 13.1401 51.0407 12.9546 51.0407 12.712ZM47.5969 11.9986C47.2127 11.9986 46.9383 12.2839 46.9383 12.712C46.9383 13.1401 47.2127 13.4255 47.6106 13.4255C47.8027 13.4255 47.9948 13.3684 48.1457 13.24L48.0085 13.0259C47.8988 13.1115 47.7615 13.1686 47.6243 13.1686C47.446 13.1686 47.2676 13.083 47.2265 12.8404H48.2006V12.7263C48.2143 12.2839 47.9674 11.9986 47.5969 11.9986ZM47.5969 12.2554C47.7753 12.2554 47.8988 12.3695 47.9262 12.5836H47.2402C47.2676 12.3981 47.3911 12.2554 47.5969 12.2554ZM54.7452 12.712V11.4849H54.4571V12.1983C54.361 12.0699 54.2238 11.9986 54.0454 11.9986C53.675 11.9986 53.3869 12.2982 53.3869 12.712C53.3869 13.1258 53.675 13.4255 54.0454 13.4255C54.2375 13.4255 54.3747 13.3541 54.4571 13.2257V13.3969H54.7452V12.712ZM53.6887 12.712C53.6887 12.4694 53.8396 12.2697 54.0866 12.2697C54.3198 12.2697 54.4845 12.4552 54.4845 12.712C54.4845 12.9546 54.3198 13.1543 54.0866 13.1543C53.8396 13.1401 53.6887 12.9546 53.6887 12.712ZM44.0571 12.712V12.0271H43.7689V12.1983C43.6729 12.0699 43.5357 11.9986 43.3573 11.9986C42.9869 11.9986 42.6988 12.2982 42.6988 12.712C42.6988 13.1258 42.9869 13.4255 43.3573 13.4255C43.5494 13.4255 43.6866 13.3541 43.7689 13.2257V13.3969H44.0571V12.712ZM42.9869 12.712C42.9869 12.4694 43.1378 12.2697 43.3848 12.2697C43.618 12.2697 43.7827 12.4552 43.7827 12.712C43.7827 12.9546 43.618 13.1543 43.3848 13.1543C43.1378 13.1401 42.9869 12.9546 42.9869 12.712Z" fill="black"/>
<path d="M49.6822 1.625H45.3604V9.70132H49.6822V1.625Z" fill="#FF5F00"/>
<path fill-rule="evenodd" clip-rule="evenodd" d="M45.6348 5.66325C45.6348 4.0223 46.3757 2.56685 47.5145 1.62509C46.6776 0.940171 45.6211 0.526367 44.4686 0.526367C41.7383 0.526367 39.5293 2.82369 39.5293 5.66325C39.5293 8.5028 41.7383 10.8001 44.4686 10.8001C45.6211 10.8001 46.6776 10.3863 47.5145 9.7014C46.3757 8.77391 45.6348 7.30419 45.6348 5.66325Z" fill="#EB001B"/>
<path fill-rule="evenodd" clip-rule="evenodd" d="M55.5135 5.66325C55.5135 8.5028 53.3046 10.8001 50.5742 10.8001C49.4217 10.8001 48.3653 10.3863 47.5283 9.7014C48.6808 8.75964 49.408 7.30419 49.408 5.66325C49.408 4.0223 48.6671 2.56685 47.5283 1.62509C48.3653 0.940171 49.4217 0.526367 50.5742 0.526367C53.3046 0.526367 55.5135 2.83796 55.5135 5.66325Z" fill="#F79E1B"/>
<path fill-rule="evenodd" clip-rule="evenodd" d="M12.74 13.0139H10.339L11.8335 3.34809H14.2345L12.74 13.0139ZM8.33 3.34809H10.9025L7.105 13.0139H4.5815L2.499 4.60773C1.1515 3.7594 0 3.50233 0 3.50233L0.049 3.34809H3.8465C4.8755 3.34809 4.9735 4.22213 4.9735 4.22213L5.782 8.5666L6.0515 10.0062L8.33 3.34809ZM27.195 13.0139L26.901 11.5743H23.863L23.373 13.0139H20.874L24.451 4.06788C24.451 4.06788 24.6715 3.34809 25.5535 3.34809H27.489L29.4 13.0139H27.195ZM24.549 9.59488H26.509L25.7985 5.9702L24.549 9.59488ZM21.0455 5.68742C20.0165 5.07045 17.689 4.94192 17.6645 6.04732C17.6645 7.12701 21.021 7.35837 21.021 9.87765C21.021 12.2941 18.5465 13.1938 16.905 13.1938C15.2635 13.1938 14.1855 12.654 14.1855 12.654L14.553 10.4946C15.5575 11.3172 18.522 11.5486 18.522 10.2375C18.522 8.9265 15.2145 8.90079 15.2145 6.40722C15.2145 3.73369 18.032 3.19385 19.2325 3.19385C20.335 3.19385 21.3885 3.60516 21.3885 3.60516L21.0455 5.68742Z" fill="#0066B3"/>
<path fill-rule="evenodd" clip-rule="evenodd" d="M6 8.19385L5.16102 4.03129C5.16102 4.03129 5.05932 3.19385 3.99153 3.19385H0.0508475L0 3.34163C0 3.34163 1.88136 3.71109 3.68644 5.13966C5.41525 6.49434 6 8.19385 6 8.19385Z" fill="#FAA634"/>
<defs>
<linearGradient id="paint0_linear_2_1204" x1="23.4744" y1="20.9482" x2="32.2938" y2="20.9482" gradientUnits="userSpaceOnUse">
<stop stop-color="#00B4E6"/>
<stop offset="1" stop-color="#088CCB"/>
</linearGradient>
</defs>
</svg>
