<svg width="12" height="15" viewBox="0 0 12 15" fill="none" xmlns="http://www.w3.org/2000/svg">
<path d="M11.8967 9.75931C11.8101 9.06501 11.5531 8.33985 11.1534 7.66244C10.7907 7.04549 10.3148 6.45536 9.74001 5.90986C9.57851 5.75578 9.41442 5.60821 9.32969 5.54016L9.1345 5.37429C9.08685 5.33182 9.04677 5.29772 9.0071 5.26749L8.94868 5.22145C8.88488 5.17153 8.81908 5.11976 8.76446 5.06799C8.76027 5.0638 8.75568 5.05977 8.7509 5.05574C8.72438 5.03311 8.69587 5.01048 8.66397 4.98521C8.6225 4.9525 8.57545 4.91607 8.53358 4.87515C8.52819 4.87003 8.52261 4.86507 8.51703 4.85996C8.21956 4.60574 7.96934 4.37461 7.75242 4.15387C7.49841 3.89391 7.31897 3.67891 7.16984 3.45476C6.99718 3.19946 6.86798 2.91532 6.78624 2.60808C6.70868 2.32983 6.66342 2.0105 6.65126 1.65785C6.6393 1.34472 6.66382 1.04384 6.68914 0.792872C6.70748 0.625768 6.72822 0.477885 6.74855 0.347209C6.76431 0.245365 6.71426 0.143987 6.61477 0.0765558C6.51508 0.00896995 6.37911 -0.0159872 6.25171 0.0102101C6.0615 0.0488084 5.86651 0.0999628 5.67351 0.161968C5.26818 0.290474 4.86943 0.469205 4.48782 0.693819C4.00114 0.981059 3.57467 1.33588 3.22058 1.74775C2.78594 2.25108 2.4783 2.84308 2.33136 3.45771C2.16368 4.13403 2.18222 4.89716 2.38319 5.60526C2.574 6.29073 2.94344 6.99077 3.45305 7.63175C3.72241 7.9655 3.9806 8.24452 4.2362 8.47874C4.31237 8.55238 4.52211 8.74273 4.5243 8.7449L4.60804 8.81946C4.66666 8.87108 4.70853 8.90999 4.7512 8.94968C4.79067 8.9861 4.82317 9.01633 4.85946 9.0464L4.86564 9.05136C5.26439 9.42216 5.54551 9.69436 5.77759 9.93525C6.03399 10.2003 6.25948 10.4573 6.46664 10.7205C6.68735 11.0017 6.84505 11.2476 6.96269 11.4933C7.09547 11.7728 7.1828 12.0757 7.22327 12.3948C7.26055 12.6757 7.26075 12.9907 7.22427 13.3559C7.18758 13.6872 7.12119 13.9892 7.06895 14.2104C7.02988 14.3617 6.9916 14.5013 6.9567 14.6219C6.9272 14.7241 6.96568 14.831 7.05958 14.9061C7.13555 14.967 7.23882 15 7.34589 15C7.37121 15 7.39673 14.9981 7.42205 14.9944C7.60927 14.9659 7.7895 14.9287 7.96794 14.8816C8.38464 14.7762 8.79576 14.6229 9.18853 14.4271C9.69814 14.1766 10.1579 13.8554 10.5553 13.4733C11.037 13.0101 11.4132 12.4541 11.6431 11.8658C11.9009 11.2113 11.9888 10.4824 11.8967 9.75931Z" fill="#C5AA79"/>
<path d="M4.07917 11.6582C3.91309 11.3757 3.69577 11.106 3.43439 10.8581C3.36859 10.7954 3.28904 10.7233 3.25016 10.692L3.15825 10.6138C3.13432 10.5929 3.11698 10.5783 3.09864 10.5639L3.07351 10.5442C3.0444 10.5216 3.0153 10.4985 2.99057 10.4756C2.98619 10.4715 2.9816 10.4674 2.97682 10.4635L2.94232 10.4356C2.92219 10.4195 2.90245 10.4038 2.8855 10.3874C2.88112 10.3832 2.87653 10.379 2.87174 10.375C2.74036 10.2629 2.62731 10.1586 2.52782 10.0576C2.44368 9.97099 2.34619 9.86543 2.26006 9.73646C2.1813 9.61989 2.12269 9.49061 2.085 9.3497C2.04991 9.22305 2.02938 9.07734 2.0238 8.91659C2.01881 8.78312 2.02838 8.65694 2.03616 8.57369C2.04633 8.46379 1.98053 8.35776 1.8633 8.2956C1.74606 8.23344 1.59534 8.22445 1.46714 8.27173C1.3196 8.32645 1.17465 8.39527 1.03588 8.47681C0.813778 8.60811 0.619186 8.76994 0.45809 8.95751C0.319722 9.11764 0.136894 9.38334 0.0521588 9.73723C-0.0246012 10.0466 -0.0164269 10.3954 0.0752864 10.7182C0.162414 11.0314 0.331087 11.3512 0.564557 11.645C0.687572 11.7971 0.805205 11.9243 0.918451 12.0282C0.951747 12.0603 1.02392 12.1252 1.05602 12.1542L1.05542 12.1547L1.09091 12.186C1.11902 12.2106 1.13876 12.2289 1.1581 12.2472C1.17485 12.2632 1.1892 12.2764 1.20256 12.2872L1.20874 12.2923C1.33176 12.4066 1.49026 12.5559 1.62564 12.6965C1.74327 12.8178 1.84595 12.935 1.93986 13.0549C2.04014 13.1823 2.11212 13.2943 2.16575 13.4066C2.22636 13.5343 2.26644 13.673 2.28498 13.8197C2.30193 13.9476 2.30193 14.0914 2.28558 14.2561C2.27481 14.3539 2.25707 14.4571 2.23195 14.5717C2.20742 14.6825 2.26225 14.795 2.3749 14.8656C2.44687 14.9104 2.5354 14.9338 2.62492 14.9338C2.67536 14.9338 2.7264 14.9263 2.77465 14.9111C2.91341 14.8673 3.05079 14.8115 3.18038 14.7468C3.41305 14.6329 3.6234 14.4859 3.80583 14.3108C4.02554 14.0996 4.1972 13.8457 4.30227 13.5773C4.41851 13.2823 4.45958 12.9405 4.41851 12.6152C4.37863 12.2982 4.2614 11.9673 4.07917 11.6582Z" fill="#C5AA79"/>
</svg>
