<svg width="86" height="17" viewBox="0 0 86 17" fill="none" xmlns="http://www.w3.org/2000/svg">
<path d="M64.4402 8.35376V13.0447H62.9922V1.46503H66.8325C67.7588 1.44656 68.6582 1.8067 69.3148 2.47156C70.6278 3.72742 70.7088 5.84205 69.4766 7.19949C69.4227 7.25489 69.3687 7.3103 69.3148 7.3657C68.6402 8.02133 67.8128 8.35376 66.8325 8.35376H64.4402ZM64.4402 2.8871V6.93169H66.8685C67.4081 6.95016 67.9297 6.72854 68.2985 6.33147C69.0539 5.52809 69.0359 4.2353 68.2535 3.45962C67.8848 3.09026 67.3901 2.8871 66.8685 2.8871H64.4402Z" fill="#3C4043"/>
<path d="M73.6935 4.86328C74.7637 4.86328 75.6091 5.15878 76.2297 5.74053C76.8503 6.32229 77.156 7.1349 77.156 8.1599V13.0448H75.771V11.9459H75.7081C75.1055 12.8509 74.314 13.3034 73.3157 13.3034C72.4703 13.3034 71.7508 13.0448 71.1842 12.5277C70.6266 12.0475 70.3118 11.3365 70.3298 10.5885C70.3298 9.76665 70.6356 9.12026 71.2382 8.63084C71.8408 8.14143 72.6502 7.90134 73.6575 7.90134C74.5209 7.90134 75.2224 8.06756 75.78 8.38152V8.03985C75.78 7.53197 75.5642 7.05179 75.1864 6.71936C74.7997 6.36846 74.305 6.17454 73.7924 6.17454C72.983 6.17454 72.3444 6.52544 71.8767 7.22724L70.5996 6.4054C71.2832 5.3804 72.3174 4.86328 73.6935 4.86328ZM71.8228 10.6162C71.8228 11.004 72.0027 11.3642 72.2995 11.5858C72.6232 11.8444 73.0189 11.9829 73.4237 11.9736C74.0352 11.9736 74.6198 11.7243 75.0515 11.2811C75.5282 10.8194 75.771 10.2745 75.771 9.64661C75.3213 9.27724 74.6918 9.09256 73.8823 9.10179C73.2977 9.10179 72.8031 9.24954 72.4074 9.5358C72.0206 9.82206 71.8228 10.1822 71.8228 10.6162Z" fill="#3C4043"/>
<path fill-rule="evenodd" clip-rule="evenodd" d="M85.107 5.12207L80.2684 16.5263H78.7754L80.5742 12.5372L77.3994 5.12207H78.9733L81.2667 10.8104H81.2937L83.5331 5.12207H85.107Z" fill="#3C4043"/>
<path fill-rule="evenodd" clip-rule="evenodd" d="M58.5877 7.33843C58.5877 6.88595 58.5517 6.43348 58.4798 5.99023H52.373V8.54811H55.8716C55.7277 9.36996 55.26 10.1087 54.5765 10.5704V12.2326H56.663C57.8862 11.0783 58.5877 9.36996 58.5877 7.33843Z" fill="#4285F4"/>
<path fill-rule="evenodd" clip-rule="evenodd" d="M52.3738 13.8392C54.1185 13.8392 55.5935 13.2482 56.6638 12.2324L54.5772 10.5702C53.9926 10.9766 53.2462 11.2074 52.3738 11.2074C50.6829 11.2074 49.253 10.0347 48.7403 8.46484H46.5908V10.1824C47.6881 12.4263 49.9275 13.8392 52.3738 13.8392Z" fill="#34A853"/>
<path fill-rule="evenodd" clip-rule="evenodd" d="M48.7378 8.4645C48.468 7.64265 48.468 6.74693 48.7378 5.91585V4.20752H46.5883C45.662 6.08207 45.662 8.29828 46.5883 10.1728L48.7378 8.4645Z" fill="#FBBC04"/>
<path fill-rule="evenodd" clip-rule="evenodd" d="M52.3738 3.17366C53.3001 3.15519 54.1905 3.51533 54.856 4.17096L56.7087 2.26871C55.5305 1.14213 53.9836 0.523437 52.3738 0.541906C49.9275 0.541906 47.6881 1.96398 46.5908 4.20789L48.7403 5.92546C49.253 4.34641 50.6829 3.17366 52.3738 3.17366Z" fill="#EA4335"/>
<path fill-rule="evenodd" clip-rule="evenodd" d="M6.84167 2.53086C7.26789 1.99129 7.55711 1.26674 7.48084 0.526367C6.85691 0.557789 6.09557 0.942996 5.65477 1.48304C5.25899 1.94547 4.90867 2.70033 4.99998 3.40969C5.70036 3.47118 6.40011 3.05535 6.84167 2.53086Z" fill="black"/>
<path fill-rule="evenodd" clip-rule="evenodd" d="M7.47314 3.54805C6.45601 3.48672 5.59123 4.13234 5.10548 4.13234C4.61951 4.13234 3.8757 3.57895 3.07122 3.59387C2.02414 3.60942 1.05257 4.20868 0.521194 5.16175C-0.571692 7.06841 0.232785 9.89664 1.29557 11.4495C1.8117 12.2177 2.43368 13.0636 3.25329 13.0332C4.02766 13.0025 4.33117 12.5257 5.27245 12.5257C6.21304 12.5257 6.48644 13.0332 7.30617 13.0179C8.15623 13.0025 8.68767 12.2492 9.2038 11.4803C9.79587 10.6045 10.0382 9.75887 10.0535 9.71244C10.0382 9.69707 8.41433 9.06648 8.39926 7.17568C8.38392 5.59249 9.67422 4.83945 9.73493 4.79274C9.0063 3.70193 7.86783 3.57895 7.47314 3.54805Z" fill="black"/>
<path d="M17.6153 1.40527C19.8259 1.40527 21.3655 2.9477 21.3655 5.19336C21.3655 7.44705 19.7944 8.99756 17.56 8.99756H15.1123V12.9373H13.3438V1.40527H17.6153ZM15.1123 7.49498H17.1415C18.6811 7.49498 19.5574 6.65594 19.5574 5.20139C19.5574 3.74698 18.6811 2.91579 17.1494 2.91579H15.1123V7.49498Z" fill="black"/>
<path d="M21.8047 10.5485C21.8047 9.06994 22.918 8.22282 24.9707 8.09504L27.1735 7.95906V7.3198C27.1735 6.38475 26.5655 5.87327 25.4839 5.87327C24.5916 5.87327 23.9442 6.33678 23.8101 7.04804H22.2151C22.2626 5.55355 23.6521 4.4668 25.5313 4.4668C27.5525 4.4668 28.8711 5.53768 28.8711 7.19986V12.9379H27.2366V11.5554H27.1972C26.7314 12.4585 25.7049 13.0257 24.5916 13.0257C22.9495 13.0257 21.8047 12.0349 21.8047 10.5485ZM27.1735 9.80525V9.15781L25.2075 9.28574C24.1022 9.35759 23.5259 9.77318 23.5259 10.5005C23.5259 11.2037 24.1259 11.6594 25.0654 11.6594C26.2655 11.6594 27.1735 10.884 27.1735 9.80525Z" fill="black"/>
<path fill-rule="evenodd" clip-rule="evenodd" d="M30.3739 16.0224V14.6399C30.4845 14.6557 30.7528 14.6717 30.8949 14.6717C31.6766 14.6717 32.1187 14.3363 32.3872 13.473L32.5451 12.9615L29.5527 4.57031H31.4002L33.4846 11.3791H33.5241L35.6085 4.57031H37.4088L34.3058 13.3852C33.5952 15.407 32.7819 16.0704 31.0607 16.0704C30.9266 16.0704 30.4922 16.0544 30.3739 16.0224Z" fill="black"/>
</svg>
