<svg width="60" height="23" viewBox="0 0 60 23" fill="none" xmlns="http://www.w3.org/2000/svg">
<path d="M39.8311 5.1282V15.3209C39.8311 15.4823 39.7095 15.6034 39.5473 15.6034H37.4595C37.2973 15.6034 37.1757 15.4823 37.1757 15.3209V5.1282C37.1757 4.96673 37.2973 4.84563 37.4595 4.84563H39.5473C39.6892 4.84563 39.8311 4.96673 39.8311 5.1282ZM56.1284 4.84563H53.7973C53.6757 4.84563 53.5743 4.92637 53.5338 5.04747L51.6892 11.0823L49.6622 5.04747C49.6216 4.92637 49.5203 4.86582 49.3987 4.86582H47.7568C47.6351 4.86582 47.5338 4.94655 47.4932 5.04747L45.4662 11.0823L43.6216 5.04747C43.5811 4.92637 43.4797 4.84563 43.3581 4.84563H41.027C40.9459 4.84563 40.8446 4.886 40.8041 4.96673C40.7432 5.04747 40.7432 5.1282 40.7635 5.20894L44.2095 15.4218C44.25 15.5429 44.3514 15.6034 44.473 15.6034H46.3378C46.4595 15.6034 46.5608 15.5227 46.6014 15.4218L48.6081 9.46765L50.6149 15.4218C50.6554 15.5429 50.7568 15.6034 50.8784 15.6034H52.7432C52.8649 15.6034 52.9662 15.5227 53.0068 15.4218L56.4527 5.20894C56.473 5.1282 56.473 5.02728 56.4122 4.96673C56.2905 4.886 56.2095 4.84563 56.1284 4.84563ZM59.6554 4.84563H57.5676C57.4054 4.84563 57.2838 4.96673 57.2838 5.1282V15.3209C57.2838 15.4823 57.4054 15.6034 57.5676 15.6034H59.6554C59.8176 15.6034 59.9392 15.4823 59.9392 15.3209V5.1282C59.9189 4.96673 59.7973 4.84563 59.6554 4.84563ZM35.9595 15.2401C36.0811 15.3814 35.9797 15.5832 35.7973 15.5832H33.2432C33.1419 15.5832 33.0405 15.5429 32.9797 15.4621L32.5541 14.9374C31.6622 15.5025 30.6081 15.8456 29.4932 15.8456C26.3716 15.8456 23.8378 13.3227 23.8378 10.2144C23.8378 7.10618 26.3716 4.58325 29.4932 4.58325C32.6149 4.58325 35.1487 7.10618 35.1487 10.2144C35.1487 11.3245 34.8243 12.3741 34.2568 13.2621L35.9595 15.2401ZM30.8919 12.9796L29.7568 11.6273C29.6351 11.486 29.7365 11.264 29.9189 11.264H32.2703C32.3919 10.941 32.4527 10.5777 32.4527 10.2144C32.4527 8.53921 31.1959 7.086 29.473 7.086C27.75 7.086 26.4932 8.53921 26.4932 10.2144C26.4932 11.8897 27.75 13.3227 29.473 13.3227C29.9797 13.3429 30.4662 13.2016 30.8919 12.9796ZM17.3716 15.1998C17.4324 15.6236 17.2905 15.8053 17.1689 15.8053C17.027 15.8053 16.8446 15.6236 16.6216 15.3007C16.3986 14.9576 16.3176 14.5741 16.4392 14.3924C16.5 14.2713 16.6622 14.2108 16.8446 14.2713C17.2095 14.3924 17.3514 14.9374 17.3716 15.1998ZM15.3851 16.1282C15.8108 16.4915 15.9527 16.9355 15.7297 17.2383C15.6081 17.3998 15.4054 17.5007 15.1419 17.5007C14.8986 17.5007 14.6554 17.4199 14.473 17.2585C14.0878 16.9154 13.9662 16.3502 14.2297 16.0475C14.3311 15.9264 14.4932 15.8658 14.6959 15.8658C14.9189 15.8456 15.1622 15.9466 15.3851 16.1282ZM14.6554 19.6401C16.5203 19.6401 18.5473 20.286 20.7973 22.264C21.0203 22.4658 21.3243 22.2236 21.1216 21.9612C18.9122 19.1961 16.8851 18.6713 14.8378 18.2273C12.3446 17.6823 11.0676 16.2897 10.1757 14.7557C9.99324 14.453 9.91216 14.5135 9.91216 14.897C9.89189 15.3814 9.93243 16.0071 10.0338 16.6328C9.93243 16.6328 9.83108 16.6328 9.72973 16.6328C6.18243 16.6328 3.28378 13.7667 3.28378 10.2144C3.28378 6.66215 6.16216 3.79609 9.72973 3.79609C13.2973 3.81628 16.1757 6.68233 16.1757 10.2144C16.1757 10.4566 16.1554 10.719 16.1351 10.9612C15.6689 10.8805 14.7365 10.8603 14.0878 10.9209C13.8446 10.941 13.8851 11.0621 14.0676 11.0823C16.1959 11.4658 17.6554 12.7777 18 15.1594C18 15.2199 18.0811 15.2401 18.1014 15.1796C18.973 13.7264 19.4797 12.031 19.4797 10.1943C19.4797 4.86582 15.1216 0.526367 9.72973 0.526367C4.35811 0.526367 0 4.86582 0 10.2144C0 15.5631 4.35811 19.9227 9.75 19.9227C11.1689 19.9227 12.5676 19.6401 14.6554 19.6401Z" fill="#FF8C00"/>
</svg>
