<svg width="61" height="32" viewBox="0 0 61 32" fill="none" xmlns="http://www.w3.org/2000/svg">
<g clip-path="url(#clip0_2_1331)">
<path d="M53.9655 9.23013V16.8091H51.2918V11.4926H48.7172V16.8091H46.0435V9.22961H53.9655V9.23013Z" fill="black"/>
<path fill-rule="evenodd" clip-rule="evenodd" d="M40.5521 17.0801C42.9457 17.0801 44.7231 15.5947 44.7231 13.3428C44.7231 11.1632 43.4117 9.74807 41.2201 9.74807C40.2086 9.74807 39.374 10.1084 38.7454 10.7303C38.8954 9.44505 39.9692 8.50678 41.1514 8.50678C41.4243 8.50678 43.4784 8.50239 43.4784 8.50239L44.6399 6.25256C44.6399 6.25256 42.0611 6.31198 40.8622 6.31198C38.1231 6.36029 36.2729 8.88033 36.2729 11.9411C36.2729 15.5068 38.0774 17.0801 40.5521 17.0801ZM40.5667 11.7409C41.4554 11.7409 42.0715 12.3319 42.0715 13.3425C42.0715 14.2521 41.5241 15.0015 40.5667 15.0036C39.6509 15.0036 39.0348 14.3092 39.0348 13.358C39.0348 12.3472 39.6509 11.7409 40.5667 11.7409Z" fill="black"/>
<path d="M34.0968 14.2718C34.0968 14.2718 33.4654 14.6402 32.5223 14.7099C31.4381 14.7425 30.472 14.0494 30.472 12.8179C30.472 11.6167 31.3245 10.9282 32.495 10.9282C33.2127 10.9282 34.1622 11.4317 34.1622 11.4317C34.1622 11.4317 34.8569 10.1413 35.2168 9.49601C34.5578 8.99045 33.68 8.71326 32.6591 8.71326C30.0826 8.71326 28.0869 10.4136 28.0869 12.8027C28.0869 15.2222 29.9626 16.883 32.6591 16.8329C33.4128 16.8045 34.4526 16.5366 35.0863 16.1246L34.0968 14.2718Z" fill="black"/>
<path d="M0 7.27393L3.709 13.9841V18.0772L0.00433891 24.7742L0 7.27393Z" fill="#5B57A2"/>
<path d="M14.2412 11.5425L17.7167 9.38648L24.8294 9.37976L14.2412 15.945V11.5425Z" fill="#D90751"/>
<path d="M14.221 7.23451L14.2406 16.1186L10.5229 13.8065V0.526367L14.2212 7.23451H14.221Z" fill="#FAB718"/>
<path d="M24.8288 9.37971L17.7158 9.38643L14.221 7.23451L10.5229 0.526367L24.8286 9.37971H24.8288Z" fill="#ED6F26"/>
<path d="M14.2406 24.8116V20.5013L10.5229 18.2332L10.525 31.5265L14.2406 24.8116Z" fill="#63B22F"/>
<path d="M17.7079 22.675L3.70875 13.9841L0 7.27393L24.8142 22.6662L17.7076 22.675H17.7079Z" fill="#1487C9"/>
<path d="M10.5254 31.5263L14.2405 24.8115L17.7073 22.675L24.8137 22.6663L10.5254 31.5263Z" fill="#017F36"/>
<path d="M0.00439453 24.7743L10.5538 18.2333L7.00714 16.0308L3.70906 18.0773L0.00439453 24.7743Z" fill="#984995"/>
<path d="M30.4725 21.91C30.3908 22.0154 30.2834 22.0949 30.1545 22.1487C30.0222 22.2032 29.8807 22.2309 29.7379 22.2303C29.5959 22.2322 29.4548 22.2083 29.3212 22.1595C29.2012 22.1154 29.0915 22.0466 28.9991 21.9575C28.9078 21.8682 28.8361 21.7605 28.7887 21.6413C28.7375 21.5107 28.7119 21.3713 28.7134 21.2308C28.7134 21.0913 28.7372 20.9621 28.7864 20.8397C28.8337 20.717 28.9023 20.6118 28.9883 20.5235C29.0743 20.4333 29.1775 20.3646 29.2933 20.3109C29.4115 20.2592 29.5404 20.2313 29.682 20.2313C29.8347 20.2313 29.9763 20.2507 30.1052 20.2892C30.2341 20.3279 30.3436 20.3925 30.4337 20.4829L30.277 20.7516C30.2012 20.6821 30.1119 20.6293 30.0149 20.5966C29.9226 20.5665 29.8262 20.5513 29.7293 20.5517C29.6435 20.5517 29.5618 20.5687 29.4825 20.601C29.4042 20.6329 29.3328 20.6796 29.2719 20.7387C29.2097 20.7994 29.1607 20.8726 29.1279 20.9536C29.0914 21.0373 29.0743 21.1298 29.0743 21.2329C29.0743 21.3383 29.0935 21.4328 29.13 21.5145C29.1667 21.5984 29.216 21.6695 29.2783 21.7294C29.3405 21.7898 29.4135 21.8348 29.4973 21.865C29.5812 21.8973 29.6693 21.9123 29.7637 21.9123C29.8796 21.9123 29.985 21.8885 30.0751 21.8433C30.1644 21.7997 30.2446 21.7392 30.3114 21.6651L30.4725 21.91ZM30.9148 22.1851V20.2721H31.2543V21.6974L32.3581 20.2721H32.6976V22.1854H32.3581V20.7601L31.2543 22.1854H30.9148V22.1851ZM34.9462 21.91C34.8627 22.0163 34.7531 22.0985 34.6284 22.1487C34.4961 22.2031 34.3545 22.2309 34.2116 22.2303C34.0697 22.2322 33.9286 22.2082 33.7951 22.1595C33.675 22.1154 33.5653 22.0466 33.4727 21.9575C33.3814 21.8682 33.3098 21.7605 33.2624 21.6413C33.2111 21.5107 33.1856 21.3713 33.1871 21.2308C33.1871 21.0913 33.2109 20.9621 33.2601 20.8397C33.3076 20.717 33.3762 20.6118 33.462 20.5235C33.548 20.4333 33.6511 20.3646 33.767 20.3109C33.8894 20.2563 34.022 20.2292 34.1557 20.2313C34.3083 20.2313 34.45 20.2507 34.5789 20.2892C34.7078 20.3279 34.8173 20.3925 34.9076 20.4829L34.7507 20.7516C34.675 20.682 34.5858 20.6292 34.4888 20.5966C34.3965 20.5665 34.3001 20.5514 34.2032 20.5517C34.0326 20.5522 33.8687 20.6192 33.7456 20.7387C33.6839 20.7999 33.635 20.873 33.6016 20.9536C33.5651 21.0373 33.548 21.1298 33.548 21.2329C33.548 21.3383 33.5674 21.4328 33.6039 21.5145C33.6404 21.5984 33.6897 21.6695 33.7519 21.7294C33.8142 21.7898 33.8875 21.8348 33.9712 21.865C34.0549 21.895 34.143 21.9123 34.2374 21.9123C34.3535 21.9123 34.4566 21.8885 34.5488 21.8433C34.6381 21.7997 34.7183 21.7392 34.7851 21.6651L34.9462 21.91ZM35.1202 20.2721H36.8619V20.6118H36.1618V22.1851H35.8224V20.6118H35.1223V20.2721H35.1202Z" fill="black"/>
<path fill-rule="evenodd" clip-rule="evenodd" d="M38.447 22.1657C38.5759 22.1249 38.6854 22.0624 38.7798 21.9766L38.6767 21.71C38.6144 21.7661 38.5307 21.8134 38.4299 21.8521C38.3288 21.8909 38.215 21.91 38.0904 21.91C37.9036 21.91 37.749 21.8607 37.6264 21.7596C37.5042 21.6584 37.4376 21.5168 37.4225 21.336H38.8916C38.9067 21.2693 38.9131 21.1942 38.9131 21.1061C38.9131 20.9748 38.8893 20.8568 38.8421 20.7493C38.7981 20.6449 38.7339 20.5506 38.6532 20.4719C38.5714 20.3939 38.475 20.3332 38.3697 20.2936C38.2594 20.2503 38.1421 20.2284 38.0238 20.229C37.8648 20.229 37.7252 20.2569 37.603 20.3086C37.4874 20.3578 37.3828 20.4302 37.2957 20.5215C37.211 20.6122 37.146 20.7198 37.1048 20.8374C37.0594 20.9626 37.0368 21.0951 37.0381 21.2285C37.0381 21.3791 37.0639 21.5166 37.1111 21.6393C37.1571 21.7581 37.2274 21.8658 37.3174 21.9552C37.4054 22.043 37.5126 22.1099 37.6395 22.1572C37.7753 22.206 37.9185 22.2299 38.0626 22.228C38.1931 22.2272 38.3227 22.2063 38.447 22.166V22.1657ZM37.5879 20.6932C37.6931 20.5966 37.8327 20.5494 38.0088 20.5494C38.1742 20.5494 38.3074 20.5946 38.4041 20.685C38.5009 20.7751 38.5522 20.8999 38.5608 21.0588H37.4011C37.4175 20.9181 37.4839 20.7883 37.5879 20.6935V20.6932Z" fill="black"/>
<path d="M39.375 20.272H39.6843L40.4189 21.2201L41.1147 20.272H41.4153V22.1852H41.0761V20.7902L40.4146 21.6778H40.4015L39.7145 20.7899V22.1849H39.375V20.272Z" fill="black"/>
<path fill-rule="evenodd" clip-rule="evenodd" d="M42.3387 20.2787C42.2357 20.3059 42.1373 20.3486 42.0468 20.4053L42.1369 20.6765C42.2142 20.6378 42.2915 20.6055 42.3689 20.5776C42.4462 20.5494 42.545 20.5365 42.6631 20.5365C42.7576 20.5365 42.8329 20.5518 42.8908 20.5817C42.9487 20.6096 42.9916 20.6528 43.0217 20.7044C43.0519 20.7561 43.0713 20.8204 43.082 20.8956C43.0927 20.9708 43.097 21.0524 43.097 21.1408C43.0276 21.0918 42.9484 21.0587 42.865 21.0439C42.7844 21.0277 42.7025 21.019 42.6203 21.0181C42.5192 21.0181 42.4248 21.0333 42.3344 21.0589C42.2443 21.0847 42.167 21.1235 42.1047 21.1751C42.0411 21.2267 41.9898 21.292 41.9544 21.3663C41.9165 21.4476 41.8974 21.5365 41.8985 21.6264C41.8985 21.8135 41.9523 21.9597 42.0595 22.063C42.167 22.1661 42.3086 22.2175 42.4847 22.2175C42.6437 22.2175 42.7706 22.1896 42.8671 22.1338C42.9638 22.0777 43.0411 22.0134 43.097 21.9403V22.1875H43.4148V21.0139C43.4148 20.7644 43.3612 20.5711 43.2517 20.4355C43.1443 20.3001 42.9531 20.2314 42.6825 20.2314C42.5621 20.2314 42.4482 20.2485 42.3387 20.2787ZM42.9061 21.8287C42.8288 21.8845 42.7277 21.9101 42.6032 21.9101C42.4937 21.9101 42.4077 21.8822 42.3477 21.8284C42.2874 21.7726 42.2573 21.6995 42.2573 21.6091C42.2573 21.5556 42.2681 21.5104 42.2918 21.4696C42.3155 21.4288 42.3477 21.3965 42.3842 21.3707C42.4241 21.3437 42.4684 21.324 42.5151 21.3126C42.5646 21.2996 42.6139 21.2932 42.6654 21.2932C42.8331 21.2932 42.9768 21.334 43.095 21.42V21.6629C43.0393 21.726 42.9758 21.7817 42.9061 21.8284V21.8287ZM46.4112 19.5993C46.4799 19.5673 46.5442 19.5135 46.6044 19.434L46.4196 19.1653C46.3724 19.2299 46.3188 19.2748 46.2586 19.2986C46.1947 19.3238 46.1286 19.3425 46.061 19.3544L45.9967 19.366C45.9408 19.3758 45.8808 19.3867 45.8163 19.3975C45.7127 19.4169 45.6118 19.4487 45.5156 19.4921C45.363 19.5587 45.2407 19.6489 45.1483 19.7628C45.0559 19.8767 44.9829 20.0056 44.9334 20.1477C44.8833 20.2917 44.8494 20.4409 44.8326 20.5926C44.8152 20.7476 44.8068 20.8956 44.8068 21.0374C44.8068 21.2203 44.8303 21.3857 44.8775 21.5339C44.925 21.6825 44.9914 21.807 45.0794 21.908C45.1675 22.0113 45.2729 22.0888 45.3974 22.1446C45.522 22.2004 45.6616 22.2283 45.8183 22.2283C45.9622 22.2283 46.0955 22.2004 46.2157 22.1488C46.3316 22.0991 46.4367 22.0269 46.525 21.9362C46.6108 21.8478 46.6797 21.7424 46.7269 21.6244C46.7762 21.506 46.7999 21.3792 46.7999 21.2459C46.7999 21.102 46.7785 20.971 46.7376 20.8548C46.7 20.744 46.6401 20.6423 46.5615 20.5561C46.4828 20.4715 46.3867 20.4053 46.28 20.3624C46.1625 20.3155 46.037 20.2922 45.9107 20.2937C45.829 20.2937 45.7496 20.3045 45.6723 20.326C45.5971 20.3474 45.5249 20.3785 45.4574 20.4185C45.3919 20.4564 45.332 20.5034 45.2793 20.558C45.2277 20.612 45.1848 20.6721 45.1547 20.7409H45.146C45.1527 20.6528 45.1634 20.5626 45.1825 20.4701C45.2019 20.3776 45.2297 20.2893 45.2665 20.2056C45.303 20.1219 45.3502 20.0465 45.4081 19.9777C45.4703 19.9084 45.5464 19.8534 45.6315 19.8165C45.725 19.7715 45.8239 19.739 45.9257 19.7199L45.9931 19.7075C46.0603 19.6951 46.1243 19.6832 46.1856 19.6703C46.2672 19.6533 46.3423 19.6316 46.4112 19.5995V19.5993ZM45.217 21.4373C45.1838 21.3288 45.1678 21.2156 45.1698 21.102C45.1842 21.0368 45.2104 20.9749 45.2471 20.9194C45.2836 20.8612 45.3308 20.8098 45.3867 20.7644C45.5128 20.6643 45.6688 20.6106 45.829 20.612C46.0289 20.612 46.1792 20.6742 46.2843 20.7969C46.3898 20.9214 46.4413 21.0762 46.4413 21.2632C46.4413 21.3557 46.424 21.4397 46.3941 21.5169C46.3651 21.5931 46.3212 21.6626 46.2651 21.7213C46.2091 21.78 46.1419 21.8267 46.0677 21.8587C45.9903 21.893 45.9064 21.9103 45.8119 21.9103C45.7175 21.9103 45.6315 21.891 45.5521 21.8522C45.4732 21.8142 45.4035 21.7592 45.3479 21.691C45.2897 21.615 45.2454 21.5291 45.217 21.4373ZM49.403 20.2722H49.0635V22.1855H49.403V20.2722ZM47.2894 20.2722H47.6289V20.8463H47.9426C48.0906 20.8463 48.2108 20.8656 48.3076 20.9021C48.4043 20.9387 48.4816 20.9881 48.5396 21.0483C48.5975 21.1085 48.6383 21.1795 48.6621 21.2588C48.6856 21.3384 48.6986 21.42 48.6986 21.506C48.6986 21.5921 48.6856 21.674 48.6577 21.7556C48.632 21.8372 48.5868 21.908 48.5265 21.9726C48.4666 22.0372 48.3849 22.0888 48.2818 22.1276C48.1787 22.1661 48.0541 22.1875 47.9038 22.1875H47.2874V20.2722H47.2894ZM47.6289 21.1663V21.8672H47.876C48.0457 21.8672 48.1659 21.8372 48.2346 21.7768C48.3035 21.7166 48.3377 21.6308 48.3377 21.5169C48.3377 21.4006 48.3012 21.3128 48.2325 21.2524C48.1616 21.1922 48.0434 21.1619 47.8803 21.1619H47.6289V21.1663Z" fill="black"/>
<path d="M51.6473 21.91C51.5656 22.0154 51.4582 22.0949 51.3293 22.1487C51.197 22.2031 51.0555 22.2309 50.9127 22.2303C50.7707 22.2323 50.6296 22.2083 50.496 22.1595C50.3759 22.1155 50.2662 22.0467 50.1739 21.9575C50.0826 21.8682 50.0108 21.7605 49.9633 21.6413C49.9122 21.5107 49.8867 21.3713 49.8882 21.2308C49.8882 21.0913 49.9117 20.9621 49.9612 20.8397C50.0085 20.717 50.0771 20.6118 50.1631 20.5235C50.2491 20.4333 50.352 20.3646 50.4681 20.3109C50.5905 20.2563 50.7231 20.2292 50.8568 20.2313C51.0092 20.2313 51.1511 20.2507 51.28 20.2892C51.4089 20.3279 51.5184 20.3925 51.6085 20.4829L51.4518 20.7516C51.376 20.6821 51.2867 20.6293 51.1897 20.5966C51.0974 20.5665 51.001 20.5513 50.9041 20.5517C50.8183 20.5517 50.7366 20.5687 50.657 20.601C50.5789 20.6329 50.5075 20.6796 50.4467 20.7387C50.3849 20.7998 50.336 20.8729 50.3027 20.9536C50.2662 21.0373 50.2491 21.1298 50.2491 21.2329C50.2491 21.3383 50.2683 21.4328 50.3048 21.5145C50.3413 21.5984 50.3908 21.6695 50.4531 21.7294C50.5153 21.7898 50.5883 21.8348 50.6721 21.865C50.756 21.895 50.8441 21.9123 50.9385 21.9123C51.0544 21.9123 51.1575 21.8885 51.2499 21.8433C51.3392 21.7997 51.4194 21.7392 51.4862 21.6651L51.6473 21.91ZM51.8211 20.2721H53.5631V20.6118H52.8627V22.1851H52.5235V20.6118H51.8234V20.2721H51.8211Z" fill="black"/>
<path fill-rule="evenodd" clip-rule="evenodd" d="M54.2726 20.2723H53.9331V23.0365H54.2726V22.0972C54.3412 22.1424 54.4229 22.1747 54.5173 22.1961C54.6118 22.2175 54.7105 22.2281 54.8116 22.2281C54.9619 22.2281 55.0972 22.2002 55.2197 22.1488C55.3372 22.0979 55.4437 22.0242 55.5331 21.9318C55.6212 21.8391 55.6878 21.7316 55.735 21.6048C55.7822 21.4782 55.806 21.3426 55.806 21.1987C55.806 21.0566 55.7845 20.9256 55.7437 20.8073C55.7053 20.6949 55.6454 20.5913 55.5676 20.5022C55.4912 20.4153 55.3965 20.347 55.2904 20.3023C55.1745 20.2518 55.0493 20.2269 54.9231 20.2291C54.7902 20.2291 54.6656 20.255 54.5474 20.3066C54.4293 20.3583 54.3369 20.4203 54.2726 20.4978V20.2723ZM54.5089 20.627C54.6056 20.5753 54.7108 20.5495 54.8246 20.5495C54.9234 20.5495 55.0115 20.5645 55.0911 20.5968C55.1684 20.629 55.2327 20.6743 55.2866 20.7344C55.3402 20.7946 55.381 20.8636 55.4068 20.945C55.4346 21.0266 55.4476 21.115 55.4476 21.2116C55.4476 21.3149 55.4303 21.4071 55.4004 21.4932C55.3723 21.5747 55.3276 21.6494 55.2692 21.7125C55.2106 21.7748 55.1396 21.8238 55.061 21.8564C54.9733 21.8936 54.8789 21.9119 54.7838 21.9101C54.6917 21.9101 54.6056 21.8995 54.524 21.8781C54.4345 21.8535 54.3497 21.8142 54.2728 21.7618V20.8138C54.3328 20.7409 54.4124 20.6786 54.5089 20.627ZM58.4091 20.272H58.0696V22.1852H58.4091V20.272ZM56.2935 20.272H56.6329V20.846H56.9464C57.0946 20.846 57.2149 20.8654 57.3116 20.9018C57.4083 20.9385 57.4857 20.9879 57.5436 21.0481C57.6015 21.1083 57.6424 21.1793 57.6658 21.2586C57.6896 21.3382 57.7023 21.4198 57.7023 21.5058C57.7023 21.5919 57.6896 21.6737 57.6618 21.7554C57.636 21.837 57.5908 21.9078 57.5306 21.9724C57.4706 22.037 57.3889 22.0886 57.2858 22.1274C57.1827 22.1659 57.0581 22.1873 56.9078 22.1873H56.2914V20.272H56.2935ZM56.6352 21.1661V21.867H56.8823C57.0518 21.867 57.1722 21.837 57.2409 21.7766C57.3095 21.7164 57.344 21.6306 57.344 21.5167C57.344 21.4004 57.3075 21.3126 57.2388 21.2521C57.1679 21.192 57.0497 21.1617 56.8866 21.1617H56.6352V21.1661Z" fill="black"/>
<path d="M60.0366 21.1942L60.7625 22.1852H60.3459L59.7852 21.4112L59.216 22.1852H58.8209L59.5425 21.2113L58.8638 20.272H59.2806L59.7982 20.9943L60.3242 20.272H60.7196L60.0366 21.1942ZM30.2214 24.5497H29.1798V26.1447H28.8403V24.2317H30.5606V26.1447H30.2214V24.5497ZM32.4871 24.5712H31.8171L31.7954 24.8936C31.7719 25.1666 31.7397 25.3859 31.6946 25.5533C31.6494 25.7213 31.5935 25.8502 31.5292 25.9403C31.4649 26.0307 31.3896 26.093 31.3036 26.1232C31.2148 26.1558 31.121 26.1718 31.0266 26.1705L31.0009 25.8393C31.0374 25.8414 31.0802 25.8329 31.1274 25.8114C31.1749 25.79 31.2221 25.7427 31.2671 25.6719C31.3122 25.5985 31.3531 25.4955 31.3896 25.3622C31.4261 25.2268 31.4498 25.0506 31.4626 24.829L31.497 24.2335H32.8265V26.1467H32.4871V24.5709V24.5712Z" fill="black"/>
<path fill-rule="evenodd" clip-rule="evenodd" d="M33.7421 24.2362C33.6323 24.2662 33.5336 24.3091 33.4498 24.3628L33.5402 24.6338C33.6175 24.5951 33.6949 24.5628 33.7719 24.5349C33.8493 24.507 33.9483 24.4941 34.0662 24.4941C34.1609 24.4941 34.236 24.509 34.2939 24.539C34.3521 24.5672 34.395 24.61 34.4251 24.6617C34.4549 24.7134 34.4743 24.778 34.4851 24.8529C34.4958 24.9283 34.5001 25.0099 34.5001 25.098C34.4307 25.0491 34.3515 25.0161 34.2681 25.0014C34.1875 24.9852 34.1055 24.9765 34.0233 24.9756C33.9225 24.9756 33.8278 24.9906 33.7377 25.0164C33.6474 25.0422 33.5701 25.081 33.5078 25.1327C33.4442 25.1842 33.3928 25.2496 33.3574 25.3238C33.3197 25.4052 33.3007 25.4941 33.3018 25.584C33.3018 25.7707 33.3554 25.9172 33.4629 26.0203C33.5701 26.1234 33.712 26.175 33.8881 26.175C34.0471 26.175 34.1737 26.1471 34.2704 26.0911C34.3669 26.0353 34.4442 25.9707 34.5001 25.8976V26.1448H34.8181V24.9712C34.8181 24.7219 34.7643 24.5284 34.6548 24.393C34.5473 24.2574 34.3562 24.189 34.0856 24.189C33.9695 24.1891 33.854 24.2049 33.7421 24.236V24.2362ZM34.3112 25.7857C34.2342 25.8418 34.1331 25.8676 34.0085 25.8676C33.8967 25.8676 33.813 25.8397 33.7531 25.7857C33.6928 25.7299 33.6627 25.6568 33.6627 25.5667C33.6627 25.5129 33.6734 25.4677 33.6972 25.4269C33.7206 25.3861 33.7531 25.3538 33.7896 25.328C33.826 25.3021 33.871 25.2827 33.9205 25.2698C33.9696 25.257 34.0201 25.2506 34.0708 25.2507C34.2382 25.2507 34.3822 25.2915 34.5004 25.3773V25.6201C34.4446 25.6833 34.381 25.7389 34.3112 25.7857Z" fill="black"/>
<path d="M35.1504 24.2319H36.8923V24.5714H36.192V26.1449H35.8528V24.5716H35.1527V24.2319H35.1504Z" fill="black"/>
<path fill-rule="evenodd" clip-rule="evenodd" d="M38.478 26.1253C38.6069 26.0845 38.7164 26.022 38.8108 25.9362L38.7077 25.6696C38.6455 25.7257 38.5617 25.7729 38.4607 25.8117C38.3598 25.8504 38.246 25.8695 38.1215 25.8695C37.9346 25.8695 37.78 25.8202 37.6575 25.7192C37.5349 25.6182 37.4686 25.4764 37.4535 25.2955H38.9226C38.9374 25.2291 38.9441 25.1537 38.9441 25.0656C38.9441 24.9346 38.9203 24.8163 38.8731 24.7089C38.8291 24.6045 38.7648 24.5102 38.684 24.4317C38.6023 24.3535 38.506 24.2928 38.4007 24.2532C38.2904 24.2099 38.1731 24.188 38.0548 24.1886C37.8958 24.1886 37.7562 24.2165 37.634 24.2681C37.5183 24.3172 37.4138 24.3897 37.3267 24.481C37.2421 24.5718 37.177 24.6794 37.1355 24.7969C37.0903 24.9222 37.0677 25.0547 37.0689 25.1881C37.0689 25.3387 37.0947 25.4761 37.1419 25.5988C37.1894 25.7213 37.2601 25.8267 37.3481 25.9148C37.4362 26.0028 37.5436 26.0695 37.6705 26.1168C37.8062 26.1656 37.9494 26.1897 38.0934 26.1878C38.2202 26.1878 38.3491 26.1661 38.478 26.1253ZM37.6169 24.6507C37.722 24.5541 37.8616 24.5068 38.0377 24.5068C38.2054 24.5068 38.3364 24.5541 38.4331 24.6422C38.5296 24.7326 38.5811 24.8571 38.5898 25.0163H37.43C37.4464 24.8755 37.5128 24.7456 37.6169 24.6507ZM39.1095 24.2317H39.539L40.1939 25.154L39.4938 26.1447H39.0773L39.8116 25.1537L39.1095 24.2315V24.2317ZM40.2776 24.2317H40.6171V26.1447H40.2776V24.2317ZM41.8305 26.1447L41.0831 25.1537L41.7812 24.2315H41.3601L40.7008 25.1537L41.4096 26.1447H41.8305ZM43.3812 26.1253C43.5101 26.0845 43.6196 26.022 43.7141 25.9362L43.6109 25.6696C43.5487 25.7257 43.465 25.7729 43.3641 25.8117C43.2631 25.8504 43.1492 25.8695 43.0247 25.8695C42.8379 25.8695 42.6832 25.8202 42.5607 25.7192C42.4384 25.6182 42.3718 25.4764 42.3567 25.2955H43.8259C43.8409 25.2291 43.8473 25.1537 43.8473 25.0656C43.8473 24.9346 43.8238 24.8163 43.7763 24.7089C43.7324 24.6046 43.6681 24.5103 43.5875 24.4317C43.5057 24.3535 43.4093 24.2928 43.3039 24.2532C43.1937 24.2099 43.0763 24.1879 42.9581 24.1886C42.7993 24.1886 42.6597 24.2165 42.5372 24.2681C42.4217 24.3173 42.3172 24.3897 42.2302 24.481C42.1454 24.5717 42.0802 24.6793 42.039 24.7969C41.9936 24.9222 41.971 25.0547 41.9724 25.1881C41.9724 25.3387 41.9982 25.4761 42.0454 25.5988C42.0926 25.7213 42.1635 25.8267 42.2516 25.9148C42.3396 26.0028 42.4468 26.0695 42.5737 26.1168C42.7095 26.1656 42.8528 26.1897 42.9969 26.1878C43.1274 26.1868 43.257 26.1658 43.3812 26.1253ZM42.5201 24.6507C42.6255 24.5541 42.7651 24.5068 42.9412 24.5068C43.1066 24.5068 43.2396 24.5541 43.3363 24.6422C43.4331 24.7326 43.4846 24.8571 43.493 25.0163H42.3333C42.3496 24.8755 42.416 24.7456 42.5201 24.6507ZM45.2243 23.589C45.0244 23.589 44.9149 23.4771 44.8978 23.2537H44.5778C44.5778 23.3394 44.5928 23.4169 44.6206 23.49C44.6487 23.5631 44.6895 23.6254 44.7431 23.6771C44.7967 23.7287 44.8657 23.7696 44.945 23.8016C45.0244 23.8339 45.1168 23.8489 45.222 23.8489C45.3187 23.8489 45.4047 23.8339 45.482 23.8016C45.5594 23.7716 45.6237 23.7287 45.6796 23.6771C45.7332 23.6254 45.7763 23.5631 45.8062 23.49C45.8363 23.4169 45.8514 23.3394 45.8514 23.2537H45.5336C45.5185 23.4771 45.4131 23.589 45.2243 23.589ZM44.307 24.2315V26.1447H44.6464L45.7503 24.7194V26.1447H46.0897V24.2315H45.7503L44.6464 25.6567V24.2315H44.307Z" fill="black"/>
</g>
<defs>
<clipPath id="clip0_2_1331">
<rect width="61" height="31" fill="white" transform="translate(0 0.526367)"/>
</clipPath>
</defs>
</svg>
