<svg width="1014" height="1015" viewBox="0 0 1014 1015" fill="none" xmlns="http://www.w3.org/2000/svg">
<path d="M507 0.526367L517.135 314.135L559.996 3.30377L537.295 316.254L612.411 11.6055L557.122 320.468L663.672 25.3407L576.4 326.732L713.215 44.3588L594.918 334.977L760.5 68.4515L612.473 345.112L805.007 97.3547L628.872 357.027L846.249 130.752L643.936 370.59L883.774 168.277L657.5 385.654L917.172 209.519L669.414 402.053L946.075 254.026L679.549 419.608L970.168 301.311L687.794 438.126L989.186 350.855L694.058 457.404L1002.92 402.115L698.273 477.232L1011.22 454.53L700.391 497.391L1014 507.526L700.391 517.662L1011.22 560.522L698.273 537.821L1002.92 612.938L694.058 557.648L989.186 664.198L687.794 576.927L970.168 713.742L679.549 595.445L946.075 761.026L669.414 612.999L917.172 805.533L657.5 629.398L883.774 846.776L643.936 644.462L846.249 884.301L628.872 658.026L805.007 917.698L612.473 669.941L760.5 946.601L594.918 680.076L713.215 970.694L576.4 688.321L663.672 989.712L557.122 694.584L612.411 1003.45L537.295 698.799L559.996 1011.75L517.135 700.918L507 1014.53L496.865 700.918L454.004 1011.75L476.705 698.799L401.589 1003.45L456.878 694.584L350.328 989.712L437.6 688.321L300.785 970.694L419.082 680.076L253.5 946.601L401.527 669.941L208.993 917.698L385.128 658.026L167.751 884.301L370.064 644.462L130.226 846.776L356.5 629.398L96.8284 805.533L344.586 612.999L67.9251 761.026L334.451 595.445L43.8325 713.742L326.206 576.927L24.8143 664.198L319.942 557.648L11.0792 612.938L315.727 537.821L2.7774 560.522L313.609 517.662L0 507.526L313.609 497.391L2.7774 454.53L315.727 477.232L11.0792 402.115L319.942 457.404L24.8143 350.855L326.206 438.126L43.8325 301.311L334.451 419.608L67.9251 254.026L344.586 402.053L96.8284 209.519L356.5 385.654L130.226 168.277L370.064 370.59L167.751 130.752L385.128 357.027L208.993 97.3547L401.527 345.112L253.5 68.4515L419.082 334.977L300.785 44.3588L437.6 326.732L350.328 25.3407L456.878 320.468L401.589 11.6055L476.705 316.254L454.004 3.30377L496.865 314.135L507 0.526367Z" fill="white"/>
</svg>
