<svg width="60" height="61" viewBox="0 0 60 61" fill="none" xmlns="http://www.w3.org/2000/svg">
<path d="M60 30.6885C60 14.147 46.5415 0.688477 30 0.688477C13.4585 0.688477 0 14.147 0 30.6885C0 39.4256 3.75709 47.3008 9.73745 52.7881L9.70909 52.8132L10.6822 53.6336C10.7455 53.687 10.8142 53.7307 10.8775 53.783C11.3945 54.2118 11.9302 54.6187 12.4756 55.0125C12.6524 55.1401 12.8291 55.2678 13.0091 55.3921C13.5916 55.7936 14.1895 56.1743 14.8004 56.5354C14.9335 56.6139 15.0676 56.6903 15.2018 56.7667C15.8705 57.1474 16.5535 57.5063 17.2527 57.8358C17.304 57.8598 17.3564 57.8816 17.4076 57.9056C19.6865 58.9648 22.1193 59.7427 24.6633 60.2019C24.7298 60.2139 24.7964 60.2259 24.864 60.2379C25.6538 60.3743 26.4524 60.4834 27.2607 60.5565C27.3589 60.5652 27.4571 60.5707 27.5564 60.5794C28.3615 60.6459 29.1753 60.6885 30 60.6885C30.8171 60.6885 31.6233 60.6459 32.424 60.5816C32.5255 60.5728 32.6269 60.5674 32.7284 60.5587C33.5302 60.4856 34.3222 60.3798 35.1044 60.2456C35.172 60.2336 35.2407 60.2216 35.3084 60.2085C37.8142 59.759 40.212 58.9987 42.4615 57.9667C42.5444 57.9285 42.6284 57.8925 42.7113 57.8532C43.3844 57.5368 44.0422 57.1954 44.6869 56.8321C44.8473 56.7416 45.0065 56.6499 45.1658 56.5561C45.7527 56.2103 46.3298 55.8492 46.8905 55.4652C47.0924 55.3278 47.2898 55.1827 47.4895 55.0387C47.9684 54.6939 48.4385 54.3383 48.8956 53.9663C48.9971 53.8845 49.1062 53.8136 49.2055 53.7296L50.2036 52.8961L50.1742 52.871C56.2069 47.3816 60 39.4703 60 30.6885ZM2.18182 30.6885C2.18182 15.3492 14.6607 2.87029 30 2.87029C45.3393 2.87029 57.8182 15.3492 57.8182 30.6885C57.8182 38.9543 54.1909 46.3856 48.4484 51.4845C48.1276 51.263 47.8047 51.0645 47.4742 50.8987L38.2375 46.2808C37.4084 45.8663 36.8935 45.0328 36.8935 44.1067V40.8808C37.1073 40.6168 37.3331 40.3179 37.5665 39.9896C38.7622 38.3008 39.7211 36.4223 40.4204 34.4008C41.8025 33.7441 42.6949 32.3674 42.6949 30.8128V26.9456C42.6949 25.9998 42.348 25.0823 41.7273 24.3612V19.2699C41.784 18.7027 41.9847 15.5085 39.6731 12.8728C37.6625 10.5776 34.4084 9.41575 30 9.41575C25.5916 9.41575 22.3375 10.5776 20.3269 12.8717C18.0153 15.5074 18.216 18.7038 18.2727 19.2688V24.3601C17.6531 25.0812 17.3051 25.9987 17.3051 26.9445V30.8118C17.3051 32.0128 17.844 33.1332 18.7669 33.8892C19.6505 37.3507 21.4691 39.971 22.1411 40.859V44.0161C22.1411 44.9063 21.6556 45.7245 20.8735 46.1521L12.2476 50.8572C11.9727 51.0067 11.7 51.1812 11.4273 51.3765C5.75564 46.2798 2.18182 38.8943 2.18182 30.6885Z" fill="#505769" fill-opacity="0.25"/>
</svg>
