<svg width="74" height="17" viewBox="0 0 74 17" fill="none" xmlns="http://www.w3.org/2000/svg">
<g clip-path="url(#clip0_2_1190)">
<path d="M14.0604 0.526367C9.74918 0.526367 6.31982 4.12131 6.31982 8.52637C6.31982 12.982 9.7982 16.5264 14.0604 16.5264C18.3226 16.5264 21.801 12.9314 21.801 8.52637C21.85 4.12131 18.3226 0.526367 14.0604 0.526367ZM14.0604 11.5137C12.4927 11.5137 11.1699 10.1466 11.1699 8.52637C11.1699 6.90611 12.4927 5.53904 14.0604 5.53904C15.6281 5.53904 16.9509 6.90611 16.9509 8.52637C16.9509 10.1466 15.6771 11.5137 14.0604 11.5137Z" fill="#8B3FFD"/>
<path d="M6.31985 2.85547V14.501H3.52735L0 2.85547H6.31985Z" fill="#8B3FFD"/>
<path d="M71.6248 4.9314L69.9101 9.28583C69.8612 9.33645 69.8612 9.4377 69.8612 9.48836L69.812 9.5896L69.7631 9.48836C69.7631 9.4377 69.7141 9.33645 69.7141 9.28583L67.9994 4.9314H65.7949L68.6853 12.3744L67.4607 15.2099H69.6652L73.7315 4.9314H71.6248Z" fill="black"/>
<path d="M55.3599 5.33651C54.9679 5.0327 54.4781 4.83017 53.8901 4.77955C52.9104 4.67827 51.9797 5.0327 51.3428 5.69094V4.88083H49.334V12.3239H51.3428V8.42512C51.3428 7.56435 51.4896 7.3112 51.6367 7.10867C51.8816 6.70361 52.3225 6.50108 52.8615 6.50108C53.4003 6.50108 53.8901 6.75424 54.1353 7.15929C54.2821 7.4631 54.331 7.86816 54.331 8.07068C54.331 8.72892 54.331 12.3239 54.331 12.3239H56.3398V7.81753C56.3398 6.65296 55.9968 5.84284 55.3599 5.33651Z" fill="black"/>
<path d="M45.5123 4.9821C44.5327 4.62767 43.4549 4.67832 42.4749 5.134C41.838 5.43781 41.2504 5.94412 40.9073 6.60236C40.5642 7.15932 40.4175 7.86818 40.4175 8.62767C40.4175 9.38716 40.5642 10.096 40.9073 10.653C41.2504 11.2099 41.6913 11.7163 42.2789 12.0201C42.8669 12.3239 43.5527 12.5264 44.1896 12.5264C44.5327 12.5264 44.8754 12.4758 45.2185 12.3745C45.5123 12.2732 45.8065 12.172 46.1003 12.0201C46.6883 11.6657 47.1781 11.2099 47.4722 10.653C47.815 10.096 47.9621 9.38716 47.9621 8.62767C48.011 6.95679 47.0803 5.53906 45.5123 4.9821ZM46.1003 8.72895C46.0514 9.38716 45.8554 9.94412 45.4634 10.2985C45.1696 10.5517 44.7287 10.7036 44.1896 10.7543C43.6509 10.7543 43.2589 10.6024 42.9158 10.2985C42.5242 9.94412 42.3282 9.38716 42.2789 8.72895C42.23 7.96946 42.5242 7.36184 43.0629 6.95679C43.3567 6.75426 43.7487 6.60236 44.1407 6.60236C44.5816 6.60236 44.9247 6.75426 45.2674 6.95679C45.8554 7.31122 46.1492 7.96946 46.1003 8.72895Z" fill="black"/>
<path d="M38.1149 5.3365C37.7229 5.03273 37.2331 4.8302 36.6451 4.77954C36.5473 4.77954 36.4002 4.77954 36.3024 4.77954C35.5184 4.77954 34.8326 5.13397 34.2446 5.84284L34.1468 5.99474H33.9508C33.8037 5.74159 33.6077 5.53906 33.4117 5.38716C33.0197 5.08335 32.5299 4.88082 31.9419 4.8302C31.0112 4.72892 30.2764 5.03273 29.6395 5.74159V4.9821H27.6309V12.4251H29.6395V8.52639V8.42511C29.6395 7.615 29.7375 7.41247 29.8844 7.15932C30.1294 6.75423 30.5703 6.50108 31.0601 6.5517C31.5503 6.5517 31.9912 6.80489 32.2361 7.20994C32.4321 7.51372 32.4321 7.86815 32.4321 8.22258V12.3745H34.4406V8.37449C34.4406 7.615 34.5384 7.36185 34.6855 7.10866C34.9304 6.70361 35.3713 6.50108 35.8615 6.50108C36.3513 6.50108 36.7433 6.75423 36.9882 7.15932C37.1352 7.41247 37.1842 7.71628 37.1842 7.91881C37.1842 8.02005 37.1842 8.12133 37.1842 8.17196V12.3239H39.1927V7.7669C39.1927 7.36185 39.1438 6.95676 39.0456 6.60233C38.8499 6.09602 38.5558 5.64031 38.1149 5.3365Z" fill="black"/>
<path d="M63.8844 10.096C63.5906 10.3998 62.9045 10.9567 61.9737 11.0074C61.1898 11.058 60.6021 10.8048 60.1612 10.3492C59.9652 10.1466 59.8181 9.84282 59.7203 9.53901H65.256V9.48839C65.3053 9.18458 65.3542 8.93143 65.3542 8.62762C65.3542 8.37447 65.3053 8.02004 65.2071 7.56433C64.9622 6.70356 64.4724 6.04535 63.8355 5.53901C63.1004 4.98205 62.4146 4.83015 62.2186 4.83015C60.7981 4.577 59.1812 5.23521 58.3484 6.60231C57.7604 7.56433 57.8096 8.52634 57.8096 8.83015C57.8096 9.18458 57.8585 10.2985 58.7403 11.3112C59.7692 12.4757 61.1898 12.5263 61.6307 12.577C63.5906 12.6276 64.9133 11.3618 65.2071 11.1086L63.8844 10.096ZM60.455 6.95674C60.7489 6.75421 61.0919 6.60231 61.5328 6.60231C61.9737 6.60231 62.3168 6.75421 62.6595 6.95674C62.9537 7.20989 63.1986 7.5137 63.3454 7.86813H59.8181C59.8671 7.5137 60.112 7.15927 60.455 6.95674Z" fill="black"/>
</g>
<defs>
<clipPath id="clip0_2_1190">
<rect width="74" height="16" fill="white" transform="translate(0 0.526367)"/>
</clipPath>
</defs>
</svg>
