<svg width="426" height="60" viewBox="0 0 426 60" fill="none" xmlns="http://www.w3.org/2000/svg">
<path d="M27.2538 25.327C27.2644 25.3164 27.2855 25.3059 27.3067 25.2847C27.402 25.1894 27.4655 25.0518 27.4972 24.9566C27.4549 24.9672 27.402 24.9672 27.3596 24.9672C27.1268 24.9672 26.9363 24.8613 26.8198 24.6814C26.6611 24.7555 26.2377 24.946 26.4282 25.5704V25.5916C26.4282 25.6022 26.4282 25.6128 26.4282 25.6128L27.2538 25.327ZM32.4928 16.4048C32.5669 16.426 32.641 16.4366 32.7256 16.4366C32.9056 16.4366 33.0749 16.3942 33.2125 16.3519C33.6676 16.2143 34.0698 16.1508 34.4085 16.1614C34.1016 15.3676 33.3713 15.2829 33.0643 15.2829C32.8209 15.2829 32.6304 15.3358 32.5457 15.3888C32.514 15.4099 32.4716 15.4311 32.4399 15.4628C32.207 15.6216 31.9001 15.8227 31.5508 15.9074C31.7096 15.9603 31.7731 15.9814 31.7837 15.9814C32.0377 16.0661 32.2705 16.2143 32.4928 16.4048ZM26.9998 17.3044C27.0527 17.2198 27.095 17.1351 27.1585 17.061C27.2009 16.9975 27.2432 16.9446 27.2961 16.8917C27.095 16.934 26.8833 16.934 26.6822 16.9446C26.4071 16.9552 26.1319 16.9552 25.8673 17.0504C25.4757 17.188 25.3381 17.6537 25.2958 17.9501C25.5074 17.7807 25.7615 17.6749 26.0472 17.6431C26.4177 17.5796 26.7352 17.4738 26.9998 17.3044ZM35.0647 15.4946C35.0541 15.4946 35.0012 15.4523 34.9059 15.4099C34.8742 15.3993 34.8318 15.3888 34.8001 15.3782L34.7683 15.3676L34.7578 15.3464C34.4402 14.5526 33.9745 14.0128 33.3818 13.7482L33.3607 13.7377L33.3501 13.7271C33.3183 13.7165 33.2548 13.6953 33.2125 13.6742L33.1913 13.6636C33.1808 13.6636 33.1596 13.653 33.149 13.653C33.0961 13.6424 33.0537 13.6212 33.0432 13.6212L33.022 13.6107L32.9797 13.5789L32.7362 13.4096H32.7468C32.2282 13.0497 31.7202 12.8592 31.2439 12.8592C30.937 12.8592 30.6512 12.9333 30.3443 13.0815L30.3125 13.1026L30.1749 13.1661L29.9844 13.1132C29.8257 13.0815 29.6775 13.0603 29.5293 13.0603C29.1377 13.0603 28.5662 13.1873 28.0793 13.8118L28.0687 13.8223L27.8676 13.8858C27.6665 14.0128 27.1162 14.415 26.7881 15.0501C26.8198 15.0501 26.8516 15.0501 26.8728 15.0501C26.8833 15.0289 26.8939 15.0183 26.9045 14.9971C26.9151 14.9866 27.7936 13.7906 29.5928 13.4942C29.5928 13.4942 29.8045 13.4519 30.1749 13.4519C30.8311 13.4519 32.1118 13.6107 33.3395 14.7008C33.3924 14.7537 33.4242 14.7855 33.4454 14.8172C34.6096 14.9336 35.0012 15.992 35.0647 16.1931C35.0964 16.2037 35.1282 16.2143 35.1494 16.2249C35.8267 16.4895 36.1125 17.0822 36.2183 17.622C36.2395 16.6906 35.668 15.865 35.0647 15.4946ZM27.4866 24.2051C27.4231 24.2051 27.3596 24.1945 27.2961 24.1734C27.2432 24.2686 27.1585 24.4591 27.2961 24.6073C27.3279 24.6391 27.402 24.6708 27.4866 24.6708C27.5607 24.6708 27.7406 24.6391 27.8041 24.3745C27.8253 24.258 27.8359 24.1628 27.8253 24.1099C27.7301 24.1628 27.6136 24.2051 27.4866 24.2051ZM36.5993 21.0194C36.9592 20.7654 37.1497 20.4902 37.1815 20.2044C37.2238 19.834 37.0968 19.5271 37.0862 19.5271L37.0545 19.4847L37.0862 19.4424C37.9647 18.2887 37.4778 16.9975 37.2132 16.5424L37.1815 16.5001C37.1391 16.4577 37.0968 16.4154 37.0545 16.3731L37.0333 16.3625L37.0227 16.3413C36.811 15.5475 36.1548 14.7643 35.4034 14.4045L35.2129 14.2986L35.2023 14.288L35.0012 13.9282H34.9906L34.98 13.907C34.6307 13.3143 34.2074 12.891 33.7099 12.6581L33.6994 12.6475L33.6888 12.6369L33.6782 12.6264C33.6147 12.584 33.5089 12.5311 33.3607 12.4888L33.3395 12.4782C33.3183 12.4676 33.2972 12.4676 33.276 12.457C33.2231 12.4464 33.1808 12.4358 33.1596 12.4253C33.1278 12.4147 33.1173 12.4147 33.1173 12.4147H33.1067L32.6833 12.2136H32.7151C32.1647 11.9067 31.6249 11.7585 31.1063 11.7585C30.5877 11.7585 30.2278 11.9172 30.0585 12.0125L30.0373 12.0231L30.0268 12.0442L30.0162 12.0337L30.0056 12.0231L29.9738 12.0125L29.9315 12.0654V12.0019C29.8257 11.9702 29.5716 11.9067 29.2435 11.9067C28.8519 11.9067 28.2698 12.0125 27.7406 12.4994L27.7301 12.5099H27.7195C27.5819 12.5523 27.4549 12.5946 27.3808 12.6369L27.2961 12.6793C26.841 12.9439 26.3118 13.3143 26.0049 13.8858L25.9943 13.8964L25.9837 13.907C25.9625 13.9176 25.9414 13.9493 25.9202 13.9811C25.8355 14.1293 25.7932 14.2457 25.7614 14.3304L25.7509 14.3833C25.7403 14.415 25.7403 14.4468 25.7403 14.4574V14.4785L25.5921 14.6267L25.4757 14.7537C24.7242 15.3782 24.6607 16.5636 24.6501 16.6165V16.6694L24.4808 16.68C24.248 17.0822 24.0151 18.1406 24.2903 19.3154C24.2585 18.9344 24.3326 18.6063 24.502 18.3205C24.502 18.1617 24.4279 17.696 24.5126 17.4314C24.6396 17.0293 24.7031 16.7329 25.0206 16.5953C25.0947 16.246 25.3804 15.2829 26.1636 15.0818C26.2695 14.5315 26.6293 13.8435 27.6771 13.5683C27.9417 13.092 28.418 12.5311 29.1906 12.5311C29.4764 12.5311 29.7939 12.6158 30.1326 12.7851C30.3654 12.6052 30.8311 12.3194 31.4238 12.3194C32.0589 12.3194 32.6939 12.6369 33.2866 13.272C33.7311 13.2931 35.0435 13.526 35.3187 15.23C35.6256 15.2829 36.0702 15.5158 36.4088 15.9285C36.7264 16.3201 37.0439 16.9975 36.7687 18.0347L36.7581 18.0876L36.6629 18.0665C36.7052 18.4475 36.5676 18.7968 36.557 18.892C36.557 18.9026 36.5676 18.9026 36.5676 18.9132C36.9063 19.2836 37.065 20.1833 36.5993 21.0194ZM34.1439 17.9818C34.2286 18.003 34.3238 18.0136 34.4297 18.0241C34.8424 18.0876 35.3399 18.1617 35.7526 18.4369C35.7103 17.9501 35.6468 17.6749 35.5727 17.3785C35.5092 17.1245 34.9377 16.6482 34.0698 16.6482C33.8687 16.6482 33.6676 16.6694 33.4665 16.7223C33.2231 16.7858 32.9902 16.807 32.768 16.7858C32.8844 16.9234 33.0008 17.061 33.1067 17.2198C33.5829 17.6749 33.9534 17.9501 34.1439 17.9818ZM33.6464 18.2676C33.8899 18.9238 34.4508 19.1037 34.4614 19.1143C35.3716 19.453 35.8373 19.834 35.9114 20.3314C35.9431 20.2997 35.9749 20.2679 35.9961 20.2256L36.0172 20.1938C36.1231 20.0245 36.2077 19.7705 36.0913 19.4212C35.8161 18.5957 34.9165 18.4475 34.3979 18.4369C34.1968 18.4369 33.911 18.384 33.6464 18.2676ZM17.1779 25.7504C17.1673 25.7504 17.1568 25.7398 17.1568 25.7398C17.1568 25.7398 17.1568 25.7504 17.1779 25.7504ZM14.6484 19.58C14.6484 19.58 14.5319 19.6752 14.3414 19.834C14.5214 19.6858 14.6378 19.5906 14.6484 19.58ZM13.2407 20.903C13.3042 20.8395 13.3677 20.7654 13.4206 20.7019C13.3677 20.7654 13.3042 20.8395 13.2407 20.903ZM15.929 20.7336C15.8443 20.8712 15.6433 21.104 15.3681 21.3898C15.6433 21.104 15.8443 20.8606 15.929 20.7336ZM27.3702 22.6175C27.402 22.6705 27.4125 22.6599 27.3914 22.607C27.4231 22.6599 27.402 22.6705 27.3702 22.6175C27.1691 22.2683 27.0421 21.8026 26.968 21.3475C26.9786 21.3263 26.9786 21.3051 26.9786 21.284C26.9786 21.3051 26.968 21.3263 26.968 21.3475C26.9363 21.4851 26.8833 21.6544 26.7881 21.8873C26.6399 22.2683 26.9257 22.681 27.1374 22.8927C27.4231 23.1573 27.6348 23.3267 27.7724 23.4325C27.6136 23.1573 27.4866 22.8821 27.3702 22.6175ZM26.7458 20.9453C26.6187 20.0351 26.6611 19.1989 26.6611 19.1884C26.6611 19.1778 26.6611 19.1672 26.6611 19.146C26.5129 19.5271 26.0366 19.7811 25.8038 20.1621C25.6239 20.4584 25.8461 21.1781 25.8461 21.1887C26.0896 21.4427 26.333 21.6227 26.4282 21.6862C26.5023 21.4004 26.6611 21.1781 26.7458 20.9453ZM32.5881 14.9231C32.7892 14.8384 32.9056 14.8384 33.0537 14.8384C32.8738 14.6585 32.1965 14.0446 31.1063 13.8435C31.0957 13.8435 30.757 13.7482 30.2702 13.7482C29.7516 13.7482 29.2541 13.8435 28.799 14.034C28.7884 14.034 28.0158 14.3304 27.3702 15.0501C27.3702 15.0501 27.4125 15.0818 27.4337 15.0818C27.4337 15.0818 28.0052 14.3727 28.8096 14.2245C28.926 14.2034 29.0425 14.1928 29.1589 14.1928C29.8045 14.1928 29.9738 14.595 29.9738 14.6796V14.7008C29.9738 14.7325 29.9738 14.7537 29.9738 14.7855H29.9844C29.9844 14.7961 29.9738 14.8066 29.9738 14.8066C29.9738 14.8172 29.9738 14.8172 29.9738 14.8066C29.9738 14.7961 29.9844 14.7855 29.9844 14.7855C30.0268 14.7008 30.0903 14.6161 30.1961 14.542C31.0851 13.8858 32.5881 14.9231 32.5881 14.9231ZM33.2548 23.1785C33.2548 23.1891 33.403 24.1416 33.964 24.3321C34.3767 24.4697 34.6202 24.004 34.6202 23.5383C34.6202 23.1362 34.3026 22.7657 34.2603 22.7128C34.2603 22.7128 34.2603 22.7128 34.2603 22.7234C33.8158 22.7022 33.4348 22.5329 33.2548 22.4376C33.2548 22.5858 33.2231 22.8716 33.2548 23.1785ZM35.8796 27.1263C35.8796 27.1263 35.8902 27.1263 35.8902 27.1157C35.8902 27.1157 35.8796 27.1157 35.8796 27.1263ZM34.3238 14.8066C34.3344 14.8066 34.345 14.8066 34.3662 14.8066C34.3556 14.8066 34.3344 14.8066 34.3238 14.8066ZM35.9008 16.4471C35.9008 16.4577 35.9008 16.4577 35.9008 16.4683C35.9008 16.4683 35.9008 16.4577 35.9008 16.4471ZM35.9326 16.6376C35.9326 16.6482 35.9431 16.6482 35.9537 16.6588C35.9431 16.6482 35.9326 16.6376 35.9326 16.6376ZM25.2428 20.0562C25.4651 19.6435 25.8567 19.3365 26.1742 19.2095C26.3753 19.1354 26.5341 18.9238 26.6611 18.6803C26.6505 18.765 26.6505 18.765 26.6611 18.6803C26.6928 18.3628 26.7458 18.0771 26.8516 17.8336C26.4494 18.0453 26.2589 17.9501 25.3063 18.4157C24.629 18.9661 25.1264 19.8763 25.2428 20.0562C25.2534 20.0668 25.2534 20.0774 25.2534 20.0774C25.2534 20.0774 25.2428 20.0668 25.2428 20.0562ZM32.895 14.3092C32.8844 14.3092 32.8844 14.3092 32.8738 14.2986C32.8421 14.288 32.8103 14.2774 32.7892 14.2669C32.8103 14.288 32.8527 14.2986 32.895 14.3092ZM34.4085 24.692C34.3767 24.7132 34.3344 24.7237 34.2921 24.7449C34.0063 24.8296 33.7946 24.7343 33.6253 24.5861C33.3289 24.311 33.3289 24.311 33.6253 24.5861C33.6253 24.5861 33.149 24.2369 33.0537 23.6865C33.0432 23.6442 33.0432 23.6124 33.0326 23.5701C33.022 23.5278 33.022 23.4854 33.0114 23.4537C33.0114 23.4854 33.022 23.5278 33.0326 23.5701C33.0326 23.7077 33.0537 23.9511 33.1173 24.1945C33.1808 24.3321 33.2548 24.5121 33.3501 24.6708C33.3501 24.6814 33.3607 24.6814 33.3713 24.692L33.5829 24.9989C33.5724 24.9778 33.5512 24.9672 33.5406 24.946C33.4665 24.8613 33.4136 24.7661 33.3501 24.6708C33.2443 24.5332 33.1702 24.3639 33.1173 24.1945C33.1596 24.3639 33.2337 24.5332 33.3501 24.6708C33.403 24.7661 33.4665 24.8613 33.5406 24.946C33.5512 24.9566 33.5724 24.9778 33.5829 24.9989C33.8264 25.2847 34.2603 25.7715 34.7048 25.888C35.1811 26.0044 35.4351 25.4117 35.0647 25.0942C34.8742 24.9248 34.472 24.6602 34.4085 24.692ZM23.4224 30.5237C23.4012 30.5237 23.3801 30.5343 23.3589 30.5343C23.3801 30.5343 23.4012 30.5237 23.4224 30.5237ZM28.3122 15.4946C28.2804 15.484 28.2592 15.4734 28.2275 15.4628C28.1322 15.4205 28.0264 15.357 27.9946 15.3464C27.8994 15.3147 27.8147 15.2829 27.7406 15.2617C27.8253 15.1771 28.3016 14.7008 28.7673 14.5632C28.8731 14.5315 28.979 14.5209 29.0742 14.5209C29.4446 14.5209 29.6775 14.7008 29.7198 14.8384C29.7622 15.0183 29.6881 15.1877 29.5081 15.3358C29.0107 15.6957 28.3122 15.4946 28.3122 15.4946ZM28.1852 15.1453L28.1957 15.1242C28.1852 15.1347 28.1852 15.1453 28.1852 15.1453ZM30.5348 15.5369C30.3443 15.4099 30.2384 15.2512 30.2596 15.0712C30.2702 14.9336 30.4924 14.722 30.8523 14.669C30.9581 14.6585 31.064 14.6585 31.1698 14.669C31.6567 14.7326 32.1859 15.1453 32.2811 15.2194C32.207 15.2512 32.1329 15.2935 32.0483 15.3358C32.0165 15.3464 31.9213 15.4205 31.8366 15.4734C31.8154 15.484 31.7837 15.5052 31.7519 15.5158C31.7413 15.5263 31.0851 15.8227 30.5348 15.5369ZM31.8154 15.1453L31.826 15.1665C31.826 15.1665 31.826 15.1559 31.8154 15.1453ZM27.7406 15.6322L27.7301 15.6533L27.7406 15.6322ZM33.0537 15.3782C33.0643 15.3888 33.0643 15.3993 33.0643 15.4099C33.0643 15.3993 33.0643 15.3888 33.0537 15.3782ZM27.5395 15.5793C27.529 15.5793 27.529 15.5793 27.5395 15.5793C27.529 15.5793 27.529 15.5793 27.5395 15.5793ZM32.8315 15.3676C32.8421 15.3676 32.8632 15.3676 32.8738 15.3676C32.8844 15.3676 32.8844 15.3676 32.895 15.3676C32.8844 15.3676 32.8844 15.3676 32.8738 15.3676C32.8527 15.3676 32.8421 15.3676 32.8315 15.3676ZM27.4655 15.6639C27.476 15.6851 27.4972 15.6957 27.5184 15.6957C27.5395 15.6957 27.5607 15.6851 27.6454 15.6216C27.5607 15.6851 27.5395 15.6957 27.5184 15.6957C27.4866 15.6957 27.476 15.6851 27.4655 15.6639ZM27.6348 16.4471C27.6454 16.4366 27.656 16.426 27.6665 16.4154C28.0052 16.1085 28.3122 15.9709 28.5979 15.865C28.6191 15.8544 28.6191 15.8544 28.5979 15.865C28.4392 15.8544 28.2804 15.8227 28.1217 15.7804V15.7698C27.8359 15.6745 27.7936 15.6004 27.2326 15.5158C27.1374 15.5052 26.9786 15.484 26.8093 15.5158C26.7881 15.5158 26.7775 15.5263 26.7563 15.5263C26.7775 15.5263 26.7881 15.5158 26.8093 15.5158C26.8093 15.5158 26.8093 15.5158 26.8093 15.5263C26.7669 15.5369 26.7246 15.5369 26.6822 15.5581C26.3859 15.6533 26.0684 15.9391 25.8779 16.6376C26.0896 16.5953 26.3118 16.6165 26.4706 16.6271C26.9786 16.6588 27.3914 16.5318 27.656 16.4154C27.656 16.426 27.6454 16.4366 27.6348 16.4471ZM26.3012 31.1799C26.2906 31.1799 26.2906 31.1693 26.2801 31.1693C26.1531 31.5398 25.7932 31.8044 25.3698 31.8044C24.8407 31.8044 24.4173 31.3916 24.4173 30.8941C24.4173 30.3861 24.8407 29.9839 25.3698 29.9839C25.899 29.9839 26.3224 30.3967 26.3224 30.8941C26.3224 30.9894 26.3118 31.0847 26.2801 31.1693C26.2906 31.1693 26.2906 31.1693 26.3012 31.1799ZM26.2801 31.1587L26.2695 31.1482C26.2695 31.1587 26.2801 31.1587 26.2801 31.1587ZM37.1391 39.2025C37.5625 39.2025 37.9753 39.2448 38.3669 39.3401C34.2815 37.4138 29.5081 33.9741 27.3702 32.3759C28.037 33.2014 28.9366 34.3127 29.3706 34.8313C29.9315 35.5087 32.0271 37.6784 33.4983 38.6839C29.8151 36.9164 27.2961 33.0638 26.4917 31.7091C26.4812 31.6985 26.4706 31.6985 26.4706 31.6879C26.3965 31.7832 26.3118 31.8573 26.2271 31.9314C26.6293 32.6617 30.0903 39.3189 32.5351 41.7003C33.4665 40.1974 35.1811 39.2025 37.1391 39.2025ZM24.4173 45.6481C24.5866 45.3835 24.883 44.8755 24.9994 44.5262C25.1793 43.997 25.2005 42.928 25.1688 42.5258C25.1688 42.5258 25.1688 42.3247 25.1476 41.8379C25.137 41.6685 25.1052 41.2028 25.1264 40.6313C25.1476 39.9751 25.1582 39.5729 25.1582 39.5729C25.1582 39.5729 25.0629 39.4248 24.8089 39.52C24.6078 39.5941 24.0257 39.7952 24.2056 41.6685C24.2056 41.6791 24.2056 41.6791 24.2056 41.6897L24.502 42.1342C24.6078 42.2506 24.7136 42.5999 24.5761 42.7058C24.5126 42.7587 24.375 42.7904 24.1845 42.4941L24.4173 45.6481ZM41.3198 48.0083C42.1876 47.1087 42.6639 45.9338 42.6639 44.7061C42.6639 42.0178 40.3778 39.8269 37.5731 39.8269C34.7683 39.8269 32.4822 42.0178 32.4822 44.7061C32.4822 46.4842 33.4665 48.0612 35.1282 48.9397C35.5198 49.0137 35.8161 49.0561 36.049 49.0561C36.2607 49.0561 36.3665 49.0243 36.4512 49.0032C36.4935 48.9926 36.5253 48.982 36.557 48.9714C36.7158 48.9397 37.2661 48.4316 37.4143 48.2517C37.245 48.2411 36.8428 48.22 36.5993 48.1353C36.1442 48.4422 35.6891 48.601 35.2552 48.601C34.7789 48.601 34.5037 48.4105 34.4932 48.3999L34.4826 48.3893C34.3767 48.2729 34.3132 48.167 34.3132 48.0718V46.1879H35.5939V44.9601H37.0968V42.6952H36.1231L35.6574 42.9174V41.8485L36.1231 42.0707H37.0968V40.6101L36.8639 40.1656H37.9753L37.7424 40.6101V42.0707H38.7055L39.1712 41.8485V42.9174L38.7161 42.6952H37.753V44.9601H39.2559V46.1879H40.5366V48.1565C40.6424 48.2517 40.7482 48.3575 40.8329 48.4528C40.8541 48.4316 41.0658 48.2729 41.3198 48.0083ZM20.4589 44.4733C20.4589 44.4733 20.4483 44.4733 20.4589 44.4733C20.4483 44.4733 20.4589 44.4733 20.4589 44.4733ZM24.0469 42.8645C23.9939 42.9492 23.9304 42.9915 23.8669 42.9915C23.8352 42.9915 23.7928 42.9809 23.7399 42.9704C23.687 42.9492 23.6553 42.9174 23.6447 42.9068C23.2531 42.6211 23.2637 42.1342 23.2637 42.1342V42.1025L23.2319 42.1131C23.2319 42.1131 23.0731 42.1766 22.9144 42.1554C22.6921 42.1448 22.5334 42.0178 22.3217 41.859C22.2899 41.8273 22.2476 41.8061 22.2053 41.7744L22.1947 41.7638L22.1841 41.7744C22.1206 41.8167 21.983 41.8485 21.7925 41.8485C21.5385 41.8485 21.2739 41.8061 21.1998 41.7955C21.094 41.7744 20.9987 41.7955 20.967 41.8485C20.9458 41.8802 20.9458 41.912 20.967 41.9331C21.0199 42.0178 21.2951 42.0284 21.4644 42.0284C21.7078 42.0284 22.0253 41.9966 22.1947 41.9331C22.4275 42.2295 22.9991 42.3988 23.1049 42.42C23.1261 42.4941 23.306 43.0868 23.3377 43.0974L23.4542 46.1561C23.3801 46.5054 23.4436 46.4313 23.0731 46.6959C22.8403 46.8652 21.7078 47.5003 21.6972 47.5108H21.6867L21.5173 47.8707C20.5648 46.5054 21.168 44.5791 21.2315 44.4098H21.2421V44.3992L21.2527 44.3674H21.2315L20.7976 42.6846C20.7976 42.674 20.7235 41.7955 20.7553 41.4251C20.7764 41.1499 21.0093 41.1182 21.1151 41.1182C21.1363 41.1182 21.1469 41.1182 21.1575 41.1182C22.8085 41.2346 23.1049 41.5627 23.1049 41.5627C23.3166 41.7638 23.814 42.5576 23.8775 42.6634C23.9093 42.7163 23.9622 42.7587 24.0045 42.7904C24.0151 42.8328 24.0469 42.8539 24.0469 42.8645ZM22.7662 46.0503C22.6921 46.0926 22.4804 46.1879 22.237 46.1879C22.0042 46.1879 21.8137 46.1032 21.6549 45.9338C21.4115 45.6692 21.2739 45.2353 21.2421 45.1083L21.2104 45.0025L21.1892 45.1083C21.1363 45.4046 21.168 45.8386 21.6443 46.2725C21.6761 46.2937 21.9407 46.463 22.2688 46.463C22.5969 46.463 22.8826 46.3043 23.1261 45.9762C23.3377 45.6798 23.2531 45.2459 23.1366 44.939L23.0731 44.759L23.0943 44.9495C23.1472 45.5422 23.0414 45.9127 22.7662 46.0503ZM24.1104 41.5309V41.5415V41.5309ZM23.1896 38.7368C23.1896 38.7368 22.8403 38.8215 22.6815 38.8003C22.6815 38.8003 22.4381 39.4883 22.237 39.9328C22.237 39.9328 22.6075 39.9116 23.2531 40.282L23.1896 38.7368ZM24.0469 42.2718C23.8775 41.9966 23.3272 41.097 23.3272 41.097C23.3272 41.097 22.4487 40.5996 20.9775 40.4514C20.5859 40.5572 20.6812 41.1499 20.6812 41.1499C20.6812 41.1499 20.8717 40.8959 21.4644 40.9594C22.1947 41.0441 22.5545 41.0653 23.052 41.2981C23.3801 41.4463 23.56 41.7744 23.941 42.5682C23.941 42.5682 24.0257 42.7058 24.0892 42.7587L24.0469 42.2718ZM23.3801 40.6525C22.9779 40.3138 22.4064 40.081 21.6867 39.9645H21.6655C21.6443 39.9645 21.6337 39.9434 21.602 39.9328C21.5491 39.8904 21.4538 39.8164 21.2421 39.8058C21.2104 39.8164 21.0516 39.8904 21.0093 40.028C20.9775 40.1127 20.9987 40.1974 21.0622 40.3032C21.1257 40.3561 21.1998 40.3773 21.2951 40.3773C21.4432 40.3773 21.5808 40.3032 21.6549 40.2291C21.6655 40.2185 21.6867 40.208 21.7184 40.208C21.9936 40.208 23.2107 40.7583 23.2107 40.7583C23.433 40.8853 23.8246 41.5415 24.0045 42.0072C23.9834 41.785 23.8881 41.0864 23.3801 40.6525ZM23.2742 38.0277C22.4593 38.1864 22.2688 38.2605 22.0677 38.4934C21.8348 38.7686 21.4538 39.3401 21.4856 39.6999C21.6337 39.8058 21.9936 39.8375 22.0783 39.8481C22.11 39.7846 22.2158 39.5518 22.3005 39.3083C22.3534 39.1707 22.3958 39.0226 22.4381 38.9061C22.5122 38.6733 22.5122 38.6627 22.5439 38.6627H22.5545V38.6733H22.5651C22.7027 38.6733 23.2742 38.5569 23.3695 38.504L23.4012 38.4828L23.4118 38.5145C23.4542 38.6839 23.9304 39.0861 24.1315 39.1496C24.1845 39.1602 24.2268 39.1707 24.2691 39.1707C24.4279 39.1707 24.5972 39.0543 24.629 39.0437C24.5866 39.012 24.0469 38.5463 24.0786 38.4828L23.9622 38.3558L23.8458 38.2288C23.8458 38.2288 23.6341 38.0065 23.3589 38.0065C23.3377 38.0171 23.306 38.0171 23.2742 38.0277ZM37.8906 46.9605C38.7373 46.9922 39.4147 47.2674 39.9227 47.5849V46.77H39.1924H38.642V46.2408V45.5422H36.1866V46.2408V46.77H35.6362H34.9059V47.5108C35.7844 47.2886 36.3453 47.0451 36.3453 47.0451C37.2026 46.8652 37.8906 46.9605 37.8906 46.9605ZM39.9439 28.5657C39.965 28.5657 39.9968 28.5657 40.0285 28.5551C39.9756 28.5657 39.9439 28.5657 39.9439 28.5657ZM31.8684 28.481C31.8578 28.481 31.8578 28.481 31.8684 28.481C31.8578 28.481 31.8578 28.481 31.8684 28.481ZM32.3975 51.6597C32.3975 51.6597 32.3975 51.6703 32.3975 51.6809C32.3975 51.6703 32.3975 51.6597 32.3975 51.6597ZM25.8038 29.7299C25.8038 29.6982 26.2166 29.8252 26.3753 29.9839C26.3965 30.0051 28.037 29.9098 31.953 28.8938C31.1381 28.915 28.1534 28.9361 25.8567 28.0577L25.8038 29.7299ZM26.2695 30.0263V30.0051V30.0263ZM36.4512 51.0564C36.4406 51.0564 36.4194 51.0564 36.4088 51.067C36.3771 51.0776 36.3348 51.0776 36.2924 51.0776C36.1442 51.0776 35.9643 51.0247 35.8373 50.9824C35.8056 50.9718 35.7844 50.9612 35.7632 50.9612C34.5037 50.6013 34.0275 50.1356 33.6676 49.5006C33.4559 49.1196 33.3818 48.7809 33.3501 48.5586C33.5724 49.0984 33.8052 49.4689 34.0486 49.6488C34.0804 49.67 34.1121 49.7017 34.1439 49.7229C34.5355 50.0298 34.9059 50.3156 36.0596 50.4743C36.1654 50.4849 36.3242 50.305 36.3242 50.2521C36.3242 50.2203 36.3136 50.1991 36.303 50.178C36.4512 50.2521 36.1866 50.1145 36.1654 50.1145C35.8373 50.1145 34.5143 49.9345 33.964 49.0773C33.6253 48.5269 33.3289 48.1459 33.2548 47.8813C33.4348 48.1141 34.0592 48.855 34.7789 49.0984C34.7895 49.0984 35.3399 49.2783 35.922 49.2783C36.0172 49.2783 36.1019 49.2783 36.176 49.2678C36.8322 49.1937 37.3296 48.5904 37.3402 48.5904C37.3402 48.5904 37.6048 48.2835 37.753 48.167C37.9541 48.0083 38.0282 47.8813 37.9647 47.8072L37.9435 47.786L37.9223 47.8072C37.88 47.8495 37.7212 48.0083 37.6366 48.0294C37.5307 48.0612 37.4249 48.0824 37.3085 48.0824C36.9698 48.0824 36.684 47.9448 36.5676 47.8601L36.5464 47.8495L36.5358 47.8707C36.5358 47.8707 36.2501 48.294 35.541 48.4211C35.4457 48.4422 35.3399 48.4422 35.2552 48.4422C34.9377 48.4422 34.6943 48.347 34.6202 48.1882C34.5778 48.1035 34.5884 48.0189 34.6519 47.9236L34.6625 47.913C34.6625 48.0189 35.5621 47.7331 35.5515 47.6802C35.9431 47.5532 36.2712 47.4262 36.3983 47.3627C36.938 47.2992 37.2556 47.278 37.4778 47.278C37.5307 47.278 37.5837 47.278 37.6366 47.278H37.7107C38.1446 47.2992 38.5997 47.3203 39.3617 47.6378C40.0603 47.9236 40.8435 48.7386 40.8541 48.7492H40.8647C40.8752 48.7492 40.9599 48.7703 40.9705 48.7597L40.9917 48.728C41.0763 48.6645 41.161 48.5904 41.2563 48.4951C41.3833 48.6433 41.7008 49.8816 41.7114 50.1462C41.4679 50.2944 40.3355 50.9612 38.769 51.755C38.7585 51.755 38.1975 52.0407 37.3931 52.0407C36.6629 52.0407 35.9749 51.8185 35.3399 51.374C34.9694 51.1199 34.599 50.7707 34.3662 50.5484C35.2446 51.1305 36.3983 51.2999 36.4088 51.2999C36.5147 51.3105 36.557 51.2681 36.5782 51.2364C36.5993 51.2046 36.6099 51.1517 36.5888 51.0988C36.5888 51.0882 36.4512 51.0564 36.4512 51.0564ZM26.9045 30.6825C26.9151 30.7565 26.9151 30.8201 26.9151 30.8941C26.9151 30.9047 26.9151 30.9153 26.9151 30.9259C27.4337 31.0952 30.757 32.1007 34.3132 32.1007C34.9165 32.1007 35.4986 32.069 36.049 32.016L36.4723 31.9737L37.0227 31.9208L36.5253 32.1536L36.1442 32.3335C35.541 32.6193 34.6837 32.7569 33.6147 32.7569C32.3023 32.7569 30.9052 32.5452 29.7939 32.3335C33.6782 34.2492 38.7161 36.0908 39.5523 36.2708L39.5946 36.2813L39.6793 36.3025L39.6687 36.3872L39.6475 36.5248L39.6369 36.6094L39.5523 36.5989H39.5099C37.6366 36.4295 33.7417 35.2441 30.2384 33.5719C31.4132 34.408 32.1118 34.8948 32.2705 35.0007C32.5457 35.17 32.9797 35.4875 33.5406 35.8792C34.9588 36.9058 37.1074 38.451 39.4993 39.7105C41.669 40.4726 43.1296 42.4835 43.1296 44.7061C43.1296 45.32 43.0132 45.9444 42.7909 46.5265C43.373 46.0291 44.2303 45.4046 44.9712 45.2565C45.003 45.2459 45.0241 45.2459 45.0241 45.2459H45.0665L45.1617 45.2353L45.1723 45.3306L45.1935 45.4682L45.204 45.5634L45.1088 45.574L45.0665 45.5846C45.0559 45.5846 45.0453 45.5846 45.0347 45.5952C44.8865 45.6269 44.4208 45.5846 43.1614 46.8758C43.6906 47.0557 44.4738 47.4156 45.4369 48.1035C45.4369 48.1035 45.8179 48.3893 45.8285 48.3893C46.2095 48.0612 46.273 47.9765 46.6329 47.6273C46.9504 47.3097 47.2679 46.9816 47.5748 46.643C47.5748 46.643 41.415 31.2117 40.7694 30.6613C40.092 30.0792 39.1183 29.5394 39.0125 29.4759H39.0019L35.9326 27.5179C32.8421 29.7193 26.9045 30.6825 26.9045 30.6825ZM30.503 52.7499C30.2914 52.7604 30.0797 52.771 29.8786 52.771C27.8676 52.771 26.4494 51.9878 26.0366 51.7232C25.6874 51.8502 25.3063 51.9243 24.8936 51.9561L24.9465 53.7553C26.6082 54.1152 28.3228 54.3057 30.0479 54.3057C33.2125 54.3057 36.2712 53.7024 39.1606 52.4958C40.8541 51.7973 42.5687 50.7601 44.0398 49.6911C43.7646 49.363 42.3041 47.7014 42.3041 47.7014L41.8595 48.04C41.8595 48.04 42.4946 50.0404 42.4946 50.0616L41.669 50.6543C41.2139 50.9083 39.9862 51.5856 39.6687 51.7656L39.6052 51.8079C39.1818 52.0513 38.4092 52.4958 37.4355 52.4958C37.0227 52.4958 36.6205 52.4112 36.2395 52.2418C35.8056 52.0513 35.414 51.8396 35.0541 51.5856C34.7048 51.6491 32.4716 52.644 30.503 52.7499ZM27.7406 41.1817V41.1923V41.1817ZM23.6764 27.5179C23.6658 27.5179 23.6553 27.5285 23.6447 27.5285C23.6553 27.5285 23.6658 27.5285 23.6764 27.5179ZM22.4699 9.9063L22.4804 9.91688L22.798 10.2132L23.1261 9.89572L22.798 9.5782L22.4699 9.9063ZM23.1049 8.67857C23.1049 8.63623 23.0731 8.60448 23.0414 8.5939C23.0308 8.60448 23.0202 8.60448 22.9991 8.61507H22.9885C22.9673 8.62565 22.9461 8.62565 22.925 8.63623C22.9038 8.63623 22.8826 8.64682 22.8721 8.64682C22.8615 8.64682 22.8403 8.64682 22.8297 8.64682H22.8191C22.7556 8.6574 22.6921 8.64682 22.6286 8.62565C22.618 8.62565 22.618 8.62565 22.6075 8.61507C22.5969 8.61507 22.5863 8.60448 22.5757 8.60448C22.5651 8.60448 22.5545 8.5939 22.5439 8.5939C22.5016 8.60448 22.4804 8.64682 22.4804 8.67857C22.4804 8.73149 22.5228 8.77382 22.5863 8.77382H23.0096C23.0626 8.77382 23.1049 8.73149 23.1049 8.67857ZM22.4699 10.8271L22.4804 10.8377L22.798 11.1446L23.1155 10.8377L23.1261 10.8271L23.1155 10.8377L22.798 10.5519L22.4804 10.8377L22.4699 10.8271ZM22.618 11.4939H22.9991V11.2081L22.8085 11.388L22.618 11.2081V11.4939ZM23.0202 11.6738H22.5969L22.4487 12.1924H22.5016H23.1472H23.1684L23.0202 11.6738ZM22.6075 9.01725V9.47236L22.798 9.29243L22.9885 9.47236V9.01725H22.6075ZM22.9885 6.08552H22.2053C22.1947 6.0961 22.1947 6.10669 22.1841 6.11727L22.4487 6.80522C22.4381 6.81581 22.4381 6.81581 22.4487 6.80522L22.5228 7.0169L22.7556 7.63076C22.7662 7.63076 22.7768 7.63076 22.7874 7.63076C22.8085 7.63076 22.8297 7.63076 22.8509 7.63076L23.4224 6.0961H23.2319L22.9885 6.08552ZM22.2688 5.90559H22.3323H23.1366C23.1366 5.91618 23.1261 5.91618 23.1261 5.92676C23.1261 5.91618 23.1366 5.91618 23.1366 5.90559H23.2954C23.3272 5.90559 23.3695 5.89501 23.4012 5.88442C23.4012 5.88442 23.4012 5.89501 23.3907 5.89501C23.3907 5.89501 23.3907 5.88442 23.4012 5.88442C23.5388 5.86326 23.6235 5.8315 23.6553 5.81034C23.6341 5.79975 23.5918 5.77859 23.5177 5.75742C23.5282 5.74683 23.5282 5.73625 23.5388 5.73625C23.5282 5.74683 23.5282 5.75742 23.5177 5.75742C23.4647 5.74683 23.3907 5.72567 23.306 5.71508C23.1684 5.69391 22.9991 5.68333 22.7874 5.68333C22.6815 5.68333 22.5969 5.68333 22.5122 5.69391C22.2158 5.71508 22.0253 5.75742 21.9513 5.78917C21.9513 5.79975 21.9407 5.79975 21.9407 5.81034C21.9724 5.85267 22.0888 5.88442 22.2688 5.90559ZM22.7874 7.62018C22.798 7.62018 22.8191 7.62018 22.8297 7.62018C22.8085 7.62018 22.798 7.62018 22.7874 7.62018C22.745 7.62018 22.745 7.62018 22.7874 7.62018ZM23.1049 8.09646C23.1049 8.20229 23.0414 8.29755 22.9567 8.35047C22.9461 8.36105 22.9356 8.36105 22.925 8.37164C22.9038 8.38222 22.8826 8.38222 22.8721 8.3928C22.8932 8.3928 22.9144 8.38222 22.925 8.37164C22.8403 8.40339 22.745 8.40339 22.6604 8.37164C22.6815 8.38222 22.7027 8.38222 22.7133 8.3928C22.6921 8.3928 22.671 8.38222 22.6604 8.37164C22.6498 8.36105 22.6392 8.36105 22.618 8.35047C22.5334 8.29755 22.4804 8.20229 22.4804 8.09646C22.4804 7.92711 22.618 7.78952 22.798 7.78952C22.8297 7.78952 22.872 7.80011 22.9038 7.80011C22.8403 7.76835 22.7768 7.76835 22.7239 7.80011L22.5969 7.85303L22.7239 7.80011C22.7874 7.77894 22.8509 7.77894 22.9038 7.80011L22.9673 7.83186C22.9567 7.82127 22.9461 7.82127 22.9356 7.82127C22.9461 7.82127 22.9567 7.83186 22.9673 7.83186L23.0308 7.86361L22.9673 7.83186C23.0414 7.89536 23.1049 7.99062 23.1049 8.09646ZM22.618 8.36105C22.618 8.36105 22.618 8.35047 22.618 8.36105V8.36105ZM12.6586 42.3247C12.648 42.3247 12.648 42.3247 12.648 42.3247C12.648 42.3247 12.648 42.3247 12.6586 42.3247ZM22.671 51.374C22.6815 51.3634 22.6921 51.3528 22.6921 51.3422C22.6815 51.3528 22.6815 51.3634 22.671 51.374ZM23.687 51.501L23.433 47.2674C23.3166 47.3732 23.3166 47.3732 21.8877 48.1882C21.8877 48.1882 21.6443 48.6116 21.6337 48.6221L20.8929 49.0138L19.1994 49.8605L19.1042 51.9031C19.1042 51.9031 22.872 53.5966 23.7611 53.6072L23.687 51.501ZM20.3107 40.4514C20.0779 42.3036 20.5436 43.4995 20.5965 43.7324C15.5692 43.1926 13.4947 47.151 13.336 47.5426C12.4998 46.7065 11.7166 45.8068 11.0181 44.8649C12.0871 43.5101 12.8491 42.6105 13.0185 42.5152C13.3466 42.3353 15.2517 41.7532 15.9608 41.7532H15.9714C16.056 41.8485 16.1407 41.8696 16.2042 41.8696C16.2995 41.8696 16.3947 41.8167 16.4476 41.732C16.5005 41.658 16.5111 41.5627 16.4794 41.478L16.2995 41.3193L16.1513 41.2981C16.0666 41.2875 15.9714 41.2769 15.8549 41.2769C15.6538 41.2769 15.4104 41.2981 15.1246 41.3298C14.5743 41.3934 13.8863 41.5733 13.4524 41.7109L14.7225 39.4883V39.4777V39.4671L16.0243 36.239L16.3418 35.2653C16.3312 35.2653 16.3206 35.2653 16.3206 35.2547L16.437 34.9372C16.437 34.9372 16.5323 34.6408 16.6593 34.2704C16.7122 34.1222 16.7651 33.9635 16.8181 33.8047V33.7941C16.8604 33.6671 16.9133 33.5401 16.9557 33.4131C17.0932 33.0321 17.2626 32.5876 17.3155 32.5346C17.3261 32.5241 17.4108 32.3865 17.4849 32.2595C17.4954 32.2383 17.5166 32.2171 17.5272 32.196C17.5801 32.1007 17.633 32.0266 17.633 32.016H17.6436C20.7129 27.2427 22.9356 27.0522 22.9356 27.0522C22.9461 27.0416 23.1684 37.4138 23.1684 37.4138C21.4961 37.4562 20.5118 38.8109 20.3107 40.4514ZM18.2681 31.5292C18.2681 31.5186 18.2681 31.5186 18.2681 31.5292C18.2575 31.5398 18.2469 31.5398 18.2681 31.5292ZM24.0998 37.6572C24.3961 38.3346 24.9359 38.9379 25.2111 39.266C25.518 39.6153 25.4334 39.8269 25.4122 40.2926C25.4122 40.3773 25.4969 41.2875 25.4016 41.2875C25.4439 42.4623 25.6556 43.6901 25.2428 44.8225C25.1158 45.1612 24.9465 45.4787 24.756 45.7751C24.6396 45.955 24.6396 45.8915 24.6396 46.0185C24.6501 46.2514 24.6607 46.4948 24.6713 46.7276C24.7348 48.22 24.7983 49.7017 24.8512 51.194C24.8512 51.2364 24.8512 51.2787 24.8618 51.321C26.0684 51.2364 27.0103 50.5696 27.9735 49.9134C27.6348 50.4214 27.3384 50.9718 26.8198 51.3316C28.037 52.1042 31.4767 52.2948 33.7099 51.2152C33.4136 50.9294 32.3446 49.4583 32.6727 47.5108C32.7468 47.0769 31.8578 47.2674 31.9001 44.6744C31.9213 43.2773 32.4716 42.4517 32.4716 42.4517C30.376 41.5627 25.8038 32.1748 25.8038 32.1748C25.1688 32.45 24.3538 32.0478 24.0786 31.4657C23.7399 30.7248 24.2056 29.7934 24.9677 29.5817C25.2534 29.4971 25.0947 28.6504 25.0947 28.3752C25.0947 27.7719 25.0947 27.1686 25.0947 26.5653C24.8301 26.6394 23.7293 26.7664 23.7399 27.0522L24.0998 37.6572ZM34.8318 22.0354C34.5355 22.2048 34.2391 22.3 33.9428 22.3C33.6041 22.3 33.3183 22.1836 33.1067 22.0672L33.0643 22.046C33.0643 22.046 33.0537 22.046 33.0537 22.0354L33.022 22.0143L32.9797 22.0566C32.9162 22.0778 32.895 22.1624 32.8738 22.2154C32.8209 22.3953 32.7997 22.5752 32.8103 22.7657C32.768 23.0197 32.7468 23.2949 32.7468 23.5066C32.7468 23.5383 32.7468 23.5807 32.7362 23.623C32.7362 23.6336 32.2494 24.5438 32.7045 25.4752C32.7362 25.5387 32.7574 25.6022 32.7786 25.6657C32.7786 25.6657 33.276 26.8511 34.8001 26.7982C34.8001 26.7982 34.2391 27.6978 32.6621 28.0894C32.4822 28.1317 32.3446 28.1317 32.2494 28.1C31.9001 28.1106 31.5403 28.1317 31.2016 28.1317C27.9523 28.1317 26.206 27.4438 25.825 27.2639C25.8461 26.6288 25.8779 26.4066 25.899 26.3748C25.9202 26.3537 26.079 26.269 26.2377 26.1949C26.6717 25.9832 27.402 25.6234 27.656 25.2529L27.6771 25.2212C27.8041 25.1259 27.9417 24.9566 27.9311 24.6814C27.9946 24.6179 28.037 24.5332 28.0582 24.4486C28.1428 24.1416 28.037 23.877 28.0264 23.8347V23.8135H28.0158C28.0158 23.8029 28.0052 23.7924 27.9946 23.7818C27.9841 23.7712 27.9629 23.7606 27.9311 23.7606C27.8994 23.7606 27.8782 23.7712 27.8359 23.7924C27.7195 23.8559 27.603 23.8876 27.5078 23.8876C27.3596 23.8876 27.2749 23.8135 27.2644 23.8029C27.0844 23.5278 27.3808 23.115 27.3808 23.1044C27.7089 23.2526 27.9947 23.3161 28.0052 23.3161L28.0476 23.3267L28.0687 23.2843C28.4286 23.8453 29.1377 24.7132 30.1114 24.7343C30.1326 24.7343 30.1538 24.7343 30.1749 24.7343C31.2122 24.7343 31.8366 23.9934 31.9424 23.8029C31.9742 23.75 31.9954 23.6971 31.9636 23.6442C31.9319 23.6124 31.9001 23.5913 31.8578 23.5913C31.7837 23.5913 31.7096 23.6548 31.699 23.6548L31.6884 23.6653C31.6673 23.6971 31.1486 24.4062 30.0585 24.4803C29.106 24.5438 28.3333 23.3584 27.9523 22.6493C27.9523 22.6281 27.9311 22.607 27.91 22.5646C27.8782 22.5117 27.8571 22.4588 27.8359 22.4165C27.476 21.6227 27.2961 20.5749 27.3384 19.3789V19.3577C27.3384 19.3154 27.3384 19.3048 27.3384 19.2942C27.3279 19.146 27.2326 17.823 27.783 17.1245C28.2381 16.553 28.6403 16.4048 29.0636 16.246C29.2118 16.1931 29.3706 16.1296 29.5293 16.045C29.7727 15.9285 29.9315 15.8015 30.0268 15.6639C30.1326 15.9497 30.4607 16.172 30.5665 16.2143C30.6618 16.246 30.7782 16.2778 30.8946 16.299C31.1592 16.3625 31.4662 16.4366 31.7943 16.6059C31.8684 16.6588 31.9424 16.7012 32.0271 16.7435C32.2705 16.9022 32.4928 17.1033 32.6939 17.3574C32.7362 17.4209 32.7786 17.5055 32.8527 17.622C32.9056 17.7172 32.9797 17.8019 33.0537 17.876L33.276 18.0982L33.2972 18.13C33.2972 18.1406 33.2548 18.8285 33.8475 19.2625V19.4424C33.8475 19.4635 33.8581 20.0033 34.3873 20.4902C34.5672 20.6595 34.5249 20.8712 34.4826 20.9876C34.3873 21.2416 34.091 21.5062 33.7417 21.5062C33.6888 21.5062 33.6359 21.4957 33.5829 21.4851H33.5724L33.5512 21.5803H33.5618C33.7099 21.6121 33.837 21.6332 33.964 21.6332C34.4932 21.6332 34.8001 21.3157 34.8001 20.7971C34.8001 20.5537 34.6413 20.3949 34.4508 20.2044C34.3556 20.1092 34.2391 19.9927 34.1439 19.8552C33.9957 19.6541 33.9428 19.4318 33.9428 19.4212L33.9216 19.3048C34.0063 19.3577 34.1121 19.4106 34.218 19.453C34.2286 19.453 35.4034 19.7916 35.2023 20.7336C35.0964 21.2205 34.5249 21.9402 33.9428 21.9402C33.8052 21.9402 33.6782 21.8978 33.5512 21.8132C33.4454 21.7391 33.2866 21.4004 33.2231 21.2734L33.1702 21.157L33.1278 21.284C33.1278 21.2946 33.0326 21.6227 33.1913 21.8767C33.2972 22.0354 33.4665 22.1413 33.7099 22.173C33.784 22.1836 33.8581 22.1942 33.9216 22.1942C34.853 22.1942 35.3716 21.2311 35.4245 20.5537C35.488 20.4796 35.541 20.4161 35.5833 20.342C35.6362 20.5114 35.9326 21.3898 34.8318 22.0354ZM29.8786 18.0876L29.8997 18.13C29.9209 18.1935 30.0162 18.4157 30.1538 18.4157C30.1643 18.4157 30.1643 18.4157 30.1749 18.4157C30.2702 18.3946 30.3866 18.3099 30.4395 18.2146C30.4713 18.1511 30.4607 18.1088 30.4501 18.0876C30.4289 18.0347 30.3866 18.0347 30.376 18.0347C30.3337 18.0347 30.3019 18.0665 30.2596 18.0982C30.2384 18.1088 30.2173 18.1406 30.2067 18.1406C30.1961 18.1406 30.1538 18.1194 30.1326 18.1088C30.0797 18.0771 30.0373 18.0453 29.9844 18.0453C29.9633 18.0453 29.9421 18.0453 29.9315 18.0559L29.8786 18.0876ZM30.7465 21.3051C30.757 21.4216 30.7359 21.4533 30.7253 21.4533C30.7253 21.4533 30.7147 21.4639 30.7041 21.4639C30.6512 21.4639 30.5665 21.4004 30.5242 21.3686L30.4501 21.3051L30.4289 21.411C30.4289 21.411 30.3866 21.6227 30.2384 21.6227H30.2279C30.1008 21.6227 30.0585 21.5803 30.0373 21.538V18.8073H29.7727L29.8468 20.9559L29.9209 21.3051L29.868 21.3898C29.868 21.3898 29.8257 21.4639 29.7516 21.4639C29.7092 21.4639 29.6987 21.4533 29.6987 21.4533C29.6881 21.4427 29.7092 21.3898 29.7304 21.3581L29.8045 21.2522L29.6775 21.2628C29.6034 21.2734 29.5081 21.4004 29.4976 21.5062C29.4976 21.5592 29.5081 21.6862 29.6987 21.7391C29.7304 21.7497 29.7833 21.7285 29.8257 21.7073C29.8786 21.792 30.0056 21.919 30.1961 21.919C30.2914 21.919 30.3866 21.8767 30.4607 21.8026C30.503 21.7603 30.5242 21.7179 30.5454 21.6756C30.5877 21.6967 30.6618 21.7073 30.7147 21.6967C30.81 21.6756 30.8735 21.6332 30.9052 21.5697C30.9476 21.4427 30.8417 21.2946 30.8311 21.2734L30.7147 21.1252L30.7465 21.3051ZM30.5877 18.7862L30.3231 18.7756L30.249 21.4639L30.4713 20.9559L30.5877 18.7862ZM27.4443 18.384L27.6136 18.2782C27.6136 18.2782 28.1428 17.9501 28.7144 17.9818C29.1377 18.003 29.6881 18.3311 29.6881 18.3311L29.9315 18.4792L29.7622 18.257C29.7516 18.2358 29.3811 17.7595 28.799 17.6643C28.7144 17.6537 28.6403 17.6431 28.5556 17.6431C27.8253 17.6431 27.5501 18.1829 27.5395 18.2041L27.4443 18.384ZM29.2647 19.0931C29.3282 19.1566 29.4341 19.2942 29.4341 19.2942L29.5293 19.4212V19.1672C29.5293 19.1566 29.5187 18.6168 28.9366 18.4263C28.8308 18.3946 28.7249 18.384 28.6191 18.384C28.0476 18.384 27.6771 18.8073 27.6136 18.892C27.5713 18.9344 27.529 19.0402 27.5184 19.0719L27.4866 19.146H27.5713C27.7089 19.146 27.9417 19.019 28.1428 18.9238C28.1534 18.9238 28.1534 18.9132 28.164 18.9132C28.164 18.9661 28.164 19.019 28.1852 19.0614C28.2169 19.1778 28.3545 19.2625 28.4603 19.3048H28.4709L28.6085 19.3154C28.799 19.3154 28.8625 19.2519 28.926 19.1672C28.9366 19.1566 28.9472 19.1354 28.9684 19.1249C29.0107 19.0719 29.0425 19.0084 29.053 18.9449C29.1589 18.9979 29.233 19.0614 29.2647 19.0931ZM31.2439 22.6281L31.1592 22.5223C31.0746 22.5223 30.9476 22.5329 30.8946 22.5329C30.7994 22.5329 30.7359 22.48 30.6618 22.4165C30.6089 22.3741 30.556 22.3212 30.4924 22.3106H30.4713L30.4501 22.3212C30.4501 22.3212 30.4184 22.3318 30.3972 22.3424L30.3866 22.3529L30.376 22.3635L30.3654 22.3741C30.3337 22.4059 30.3231 22.427 30.2279 22.427H30.2173C30.1326 22.427 30.1114 22.4059 30.1114 22.4059C30.0691 22.3529 30.0268 22.3424 29.995 22.3424C29.9527 22.3424 29.9103 22.3635 29.8997 22.3741L29.8892 22.3847L29.8786 22.3953C29.8257 22.4905 29.741 22.5329 29.7198 22.5435C29.6563 22.554 29.5822 22.5752 29.487 22.5752C29.4658 22.5752 29.4552 22.5752 29.4235 22.5752H29.2859L29.36 22.681C29.4235 22.7657 29.5505 22.9139 29.7939 22.9139C29.868 22.9139 29.9421 22.9033 30.0268 22.8716C30.0268 22.8716 30.0268 22.8716 30.0373 22.8821C30.0479 22.8927 30.0479 22.8927 30.0585 22.9033C30.0056 22.9139 29.9738 22.9139 29.9421 22.9351C29.7727 22.9986 29.6775 23.0409 29.6987 23.2208C29.7092 23.2737 29.7833 23.3584 29.8468 23.369C29.8786 23.3796 29.8997 23.3796 29.9315 23.3796C29.9844 23.3796 30.0268 23.369 30.0691 23.3584C30.1326 23.3478 30.2067 23.3372 30.3125 23.3267C30.3443 23.3372 30.5136 23.3584 30.6195 23.3584C30.6406 23.3584 30.6512 23.3584 30.6724 23.3584C30.683 23.3584 30.6935 23.3584 30.7041 23.3584C30.757 23.3584 30.7994 23.3478 30.8417 23.3055C30.8841 23.2632 30.8946 23.1785 30.8946 23.1467C30.8946 23.0515 30.7782 22.8927 30.3337 22.8821C30.3443 22.8716 30.3549 22.861 30.3549 22.861C30.3866 22.861 30.4395 22.861 30.503 22.8716C30.5877 22.8821 30.6724 22.8821 30.757 22.8821C30.8629 22.8821 30.937 22.8716 30.9899 22.8504C31.0957 22.8186 31.191 22.6916 31.2439 22.6281ZM32.9056 19.1672L32.8844 19.0931C32.8738 19.0508 32.8209 18.9026 32.7786 18.8497C32.7468 18.7968 32.4081 18.384 31.8154 18.384C31.7096 18.384 31.6038 18.3946 31.4979 18.4263C30.9158 18.6168 30.9052 19.1672 30.9052 19.1672V19.4212L31.0005 19.2942C31.0005 19.2942 31.1063 19.1566 31.1698 19.0931C31.1698 19.0931 31.1698 19.0931 31.1804 19.0825C31.2439 19.019 31.3074 18.9661 31.3709 18.9344C31.3815 19.0084 31.4132 19.0614 31.4556 19.1249C31.4662 19.1354 31.4873 19.1566 31.4979 19.1672C31.572 19.2519 31.6249 19.3154 31.826 19.3154L31.9636 19.3048H31.9742C32.08 19.2519 32.207 19.1778 32.2494 19.0614C32.26 19.019 32.2705 18.9661 32.2705 18.9132C32.2917 18.9238 32.3235 18.9449 32.3552 18.9555C32.5351 19.0508 32.7151 19.1566 32.8421 19.1566L32.9056 19.1672ZM33.0537 18.1194L32.9056 17.9606C32.8844 17.9395 32.4716 17.5161 31.7519 17.5161C31.0322 17.5161 30.6724 18.2358 30.6512 18.2676L30.5242 18.5216L30.7359 18.3311C30.7359 18.3311 31.2016 17.9183 31.6143 17.8442C31.6461 17.8336 31.6884 17.8336 31.7308 17.8336C32.1224 17.8336 32.8209 18.0559 32.8315 18.0559L33.0537 18.1194ZM33.0855 21.0088L33.1702 21.1146C33.1702 21.1252 33.2972 21.2734 33.4771 21.2734C33.53 21.2734 33.5935 21.2628 33.6464 21.2311C33.7311 21.1993 33.8052 21.1252 33.8475 21.0194C33.9957 20.6913 33.9216 20.1092 33.7629 19.7387C33.6994 19.5906 33.6464 19.5271 33.5829 19.5271C33.5406 19.5271 33.5089 19.5588 33.4983 19.6011V19.6117V19.6223C33.7099 20.4373 33.6147 20.7759 33.5089 20.9241C33.4348 21.0194 33.3289 21.0405 33.2654 21.0405C33.2337 21.0405 33.2231 21.0405 33.2125 21.0405L33.0855 21.0088ZM18.3951 51.501L18.6702 45.9762L19.8556 44.3039C19.8556 44.3039 16.437 43.8806 13.8652 48.1035C13.8652 48.1035 15.5268 50.0086 18.3951 51.501ZM19.2206 49.2889L21.1575 48.294C21.1575 48.294 20.0779 47.2992 20.7553 44.4415L20.4589 44.3886L19.3582 46.0926L19.2206 49.2889ZM42.4946 47.4473C44.0292 48.2623 44.6749 49.4265 44.6749 49.4265L45.2252 48.9926C44.1562 47.5743 42.8438 47.1298 42.8438 47.1298L42.4946 47.4473ZM51.6602 40.3138C51.2263 41.3193 50.7183 42.293 50.1467 43.2244C50.1573 43.2244 50.1573 43.235 50.1573 43.235L49.8398 43.6795C47.8818 42.293 47.3314 38.5675 47.3102 38.4087H47.3208C47.2891 38.0065 47.2573 37.7631 47.2256 37.4879C47.1832 37.1598 47.1409 36.8635 47.1303 36.1437C47.1091 34.8208 46.5905 33.2543 45.8073 32.1536C45.5004 31.7303 45.4051 31.635 45.1405 31.3916L45.1088 31.3598C45.0982 31.3492 44.9183 31.1905 44.7384 31.1905C44.7066 31.1905 44.6854 31.1905 44.6537 31.2011L44.4632 31.2646L44.6008 31.4233C45.0453 31.9314 45.4475 32.7146 45.2993 33.2332C45.2887 33.2861 45.257 33.3073 45.2146 33.3284C44.95 33.2014 44.6008 32.5241 44.3573 32.069C44.0292 31.4445 43.934 31.2857 43.7752 31.2857L43.7117 31.3069C43.553 31.381 43.6165 31.6456 43.6588 31.8044C43.7435 32.0372 43.9552 32.6193 44.0398 32.9262C44.0927 33.1273 44.1139 33.5189 44.0716 33.6142C44.0716 33.6142 44.0716 33.6142 44.061 33.6142H44.0292C43.4895 33.6142 43.0026 32.4076 43.0026 32.4076C43.0026 32.4076 42.0077 30.2168 40.8647 29.6135L38.9913 28.4704C39.2559 28.4598 39.203 28.4704 39.457 28.4175C40.399 28.1953 40.6636 28.0471 40.8964 27.8142C42.0289 26.6818 41.8278 25.3059 41.8066 25.1471C41.7855 25.0095 41.7114 24.7767 41.6902 24.7132C41.4362 23.9829 41.3727 23.4325 41.4044 22.8821C41.4574 22.1095 41.7114 21.3686 42.1136 20.7019C42.6533 19.8022 43.6165 18.5533 44.9924 18.0559C45.2146 17.9289 45.5957 17.8654 46.0402 17.8654C47.2362 17.9501 48.157 18.2782 48.8555 18.6592C49.7022 19.1249 50.369 19.8657 50.8135 20.723C51.1099 21.284 51.3956 21.8661 51.639 22.4482C52.8562 25.2847 53.4806 28.2905 53.4806 31.4022C53.5018 34.4715 52.888 37.4879 51.6602 40.3138ZM49.9985 32.016C49.6704 29.6347 48.9719 27.0734 47.5643 25.073C48.1887 27.6026 48.6967 30.1533 48.9931 32.7463C49.2788 35.2229 49.0778 37.6361 48.9084 40.1127C50.0621 37.5832 50.3796 34.7573 49.9985 32.016ZM50.9193 38.4299C52.073 35.9003 52.3799 33.0744 51.9989 30.3332C51.6708 27.9518 50.9723 25.3905 49.5646 23.3902C50.1891 25.9197 50.6971 28.4704 50.9934 31.0635C51.2792 33.5401 51.0781 35.9638 50.9193 38.4299ZM19.517 27.5285C19.6651 27.5391 16.6805 31.7409 16.6805 31.7409L16.5111 32.0478C16.3312 32.3759 15.8549 33.1379 15.4527 33.1379C15.4104 33.1379 15.3787 33.1273 15.3363 33.1168C15.0082 32.9792 15.3152 32.2383 15.3257 32.2277C15.5057 31.7303 15.6856 31.2434 15.7703 31L15.6856 30.9576C15.04 32.0584 14.5108 32.7781 14.2885 32.831C14.2144 32.7887 14.1721 32.7463 14.1403 32.6511C14.0028 32.2489 14.4049 31.2328 14.5319 30.9365L14.6378 30.693L14.4579 30.8836L14.4473 30.8941C14.3203 31.0317 14.1086 31.2752 13.8652 31.6668C13.0185 33.0321 12.5739 33.9105 12.3728 37.6996V37.7207C12.3623 37.8478 12.3517 38.1441 12.2141 38.3134C12.2035 39.2342 12.013 40.9594 11.071 43.3408L10.563 43.1397C10.5736 43.1291 10.5736 43.1185 10.5736 43.0974C10.2666 42.8751 9.73745 42.3353 9.20825 41.7215C8.85898 41.3193 8.56264 40.8642 8.35096 40.3667C8.35096 40.3561 8.35096 40.3561 8.34037 40.3456C7.11264 37.4985 6.48819 34.4715 6.48819 31.3598C6.48819 28.2482 7.11264 25.2212 8.34037 22.3741C8.67906 21.5803 9.06008 20.8183 9.49402 20.0668C10.3513 18.5533 11.9071 17.5267 13.6429 17.4103C13.717 17.3997 13.8017 17.3997 13.8652 17.3997C14.8177 17.3997 15.5374 17.696 15.5692 17.7066C15.8549 17.8336 16.0984 17.9606 16.31 18.0982C17.9929 19.1884 19.1042 21.8978 17.8553 24.7872L17.7283 25.0836L17.8553 25.0095L17.8447 25.0201L17.8659 25.0836C17.94 25.3482 18.2151 26.2161 18.4692 26.3642C18.6173 26.4489 18.8819 26.7876 18.9348 27.0099C18.9454 27.0734 18.9454 27.1157 18.9348 27.1474L18.8608 27.2745L18.9878 27.3697C19.083 27.4332 19.1783 27.4544 19.2629 27.465L19.517 27.5285ZM8.70023 30.6401C8.99657 28.0471 9.5046 25.5069 10.1291 22.9774C8.72139 24.9672 8.02286 27.5285 7.69476 29.9204C7.31374 32.6617 7.63125 35.4875 8.77431 38.0171C8.61556 35.5405 8.41446 33.1168 8.70023 30.6401ZM12.1294 24.6496C10.7217 26.6394 10.0232 29.2007 9.69511 31.5927C9.31409 34.3339 9.63161 37.1598 10.7853 39.6894C10.6265 37.2127 10.4254 34.7996 10.7006 32.323C10.9969 29.7299 11.505 27.1898 12.1294 24.6496ZM40.3672 18.2676C40.3672 13.0391 36.1125 8.78441 30.8841 8.78441C25.6556 8.78441 21.4009 13.0391 21.4009 18.2676C21.4009 23.496 25.6556 27.7507 30.8841 27.7507C36.1125 27.7507 40.3672 23.496 40.3672 18.2676ZM39.838 18.2676C39.838 23.2102 35.8161 27.2321 30.8735 27.2321C25.9308 27.2321 21.9089 23.2102 21.9089 18.2676C21.9089 13.3249 25.9308 9.30302 30.8735 9.30302C35.8161 9.30302 39.838 13.3249 39.838 18.2676ZM23.5812 25.3905L22.7874 24.5121L22.8721 26.2055L23.6235 26.0044L23.5812 25.3905ZM30.0056 4.29684C15.8338 4.29684 4.29733 15.8333 4.29733 30.0051C4.29733 44.1769 15.8338 55.7134 30.0056 55.7134C44.1774 55.7134 55.7139 44.1769 55.7139 30.0051C55.7139 15.8333 44.1774 4.29684 30.0056 4.29684ZM30.0056 3.21729C44.8019 3.21729 56.7934 15.2088 56.7934 30.0051C56.7934 44.8014 44.7913 56.7823 30.0056 56.7823C15.2199 56.7823 3.21777 44.7908 3.21777 30.0051C3.21777 15.2194 15.2093 3.21729 30.0056 3.21729Z" fill="white"/>
<path d="M95.4139 38.4095C93.4201 38.4095 92.1164 37.412 91.3496 35.9542V41.1716H93.4968V41.7854H86.5183V41.1716H88.6655V35.9542C87.8987 37.412 86.595 38.4095 84.6012 38.4095C81.6871 38.4095 80 36.6448 80 34.2662C80 31.0437 83.7576 28.6652 84.9846 27.3609C86.1349 26.21 88.6655 23.4478 88.6655 20.3788V19.4581H86.5183V18.8442H93.4968V19.4581H91.3496V20.3788C91.3496 23.4478 93.8802 26.21 95.0305 27.3609C96.3342 28.6652 100.015 31.0437 100.015 34.2662C100.015 36.568 98.328 38.4095 95.4139 38.4095ZM88.5889 22.834C88.2054 24.1384 87.3619 25.9798 85.5981 28.3583C84.2944 30.123 82.7607 31.2739 82.7607 33.6524C82.7607 35.5706 83.7576 36.6448 85.5981 36.6448C87.5152 36.6448 88.5889 35.4171 88.5889 33.6524V22.834ZM94.2636 28.3583C92.4998 25.9798 91.733 24.1384 91.2729 22.834V33.6524C91.2729 35.4939 92.3465 36.6448 94.2636 36.6448C96.1041 36.6448 97.101 35.5706 97.101 33.6524C97.101 31.1972 95.5673 30.123 94.2636 28.3583Z" fill="white"/>
<path d="M108.143 41.2482C106.916 41.862 105.766 42.0922 105.459 42.0922C105.383 42.0922 105.076 42.0922 105.076 41.9387C105.076 41.7853 105.459 41.0947 105.459 40.6344C105.459 39.5602 105.306 39.33 103.082 34.9566C101.932 32.7316 101.625 30.8901 101.625 28.8952C101.625 21.2226 106.38 18.4604 108.373 18.4604C108.68 18.4604 108.68 18.6139 108.68 18.7674C108.68 18.8441 108.603 19.7648 108.603 19.9182C108.603 21.2226 109.677 22.9106 109.907 23.2942C112.361 27.1305 112.591 27.5909 112.975 28.972C113.281 30.0461 113.435 31.197 113.435 32.1177C113.358 35.4937 111.748 39.5602 108.143 41.2482ZM108.68 24.5218C108.45 23.5244 108.067 22.22 108.067 21.1459C108.067 20.3019 108.143 19.7648 108.297 18.9208C106.149 18.9208 104.079 21.3761 104.079 25.9796C104.079 26.5934 104.079 28.6651 104.692 31.1203L105.996 35.9541C106.073 36.261 106.303 37.4886 106.303 38.486C106.303 39.7136 106.149 40.4042 105.689 41.4784C107.99 41.4784 110.521 38.5628 110.521 33.8824C110.521 31.4272 110.137 29.9694 108.68 24.5218Z" fill="white"/>
<path d="M123.02 41.7087V41.0949H125.167V30.8136L119.492 28.6652V41.0949H121.64V41.7087H114.661V41.0949H116.808V19.4581H114.661V18.8442H121.64V19.4581H119.492V28.1281L125.167 30.2765V19.5348H123.02V18.921H129.998V19.5348H127.851V41.1716H129.998V41.7854H123.02V41.7087Z" fill="white"/>
<path d="M145.567 48.0001H145.26C144.876 45.0078 145.26 41.7853 140.582 41.7853H136.518C131.84 41.7853 132.223 45.0078 131.84 48.0001H131.533L130.689 41.1715H133.68C133.22 40.5577 132.3 39.4068 132.3 37.8722C132.3 35.7239 133.527 33.6523 135.674 31.197C139.585 26.7469 140.505 25.9029 140.505 24.1382C140.505 23.1408 139.892 22.0666 138.511 21.9899C138.972 22.3735 139.202 22.8339 139.202 23.371C139.202 24.2917 138.588 24.9822 137.591 24.9822C136.594 24.9822 135.904 24.2917 135.904 23.371C135.904 22.2201 136.748 21.4528 138.128 21.4528C139.738 21.4528 141.042 22.6037 141.042 24.3684C141.042 26.5935 139.048 28.972 137.821 31.0436C136.211 33.8057 135.444 35.6472 135.444 37.7188C135.444 39.4835 136.364 40.5577 137.668 41.2482H141.119V19.6114H138.972V18.9976H145.95V19.6114H143.803V41.2482H146.487L145.567 48.0001Z" fill="white"/>
<path d="M315.667 20.6856C316.127 21.0693 316.357 21.5296 316.357 22.0667C316.357 22.9874 315.744 23.678 314.747 23.678C313.75 23.678 313.06 22.9874 313.06 22.0667C313.06 20.9158 313.903 20.1486 315.284 20.1486C316.894 20.1486 318.121 21.2995 318.121 23.0642C318.121 24.4452 317.354 25.5194 316.511 27.1307C313.06 33.8058 313.137 34.1128 312.907 34.9568C312.83 35.2637 312.446 36.2611 312.446 37.1818C312.446 38.7931 313.29 40.4043 314.594 40.7112V41.325H307.769V40.7112H310.836C310.376 40.0974 309.456 38.9465 309.456 37.412C309.456 35.4938 310.913 32.8851 312.83 30.8135C315.13 28.2816 317.661 25.2125 317.661 22.9107C317.661 21.8365 317.048 20.8391 315.667 20.6856ZM316.051 18.9977V18.3839H323.029V18.9977H320.882V34.1128H320.959L326.557 22.7573V18.921H324.409V18.3071H331.388V18.921H329.241V40.5578H331.388V41.1716H324.409V40.5578H326.557V24.0616L320.959 35.5706V40.5578H323.106V41.1716H316.127V40.5578H318.275V18.921H316.051V18.9977Z" fill="white"/>
<path d="M340.744 41.2483V40.6345H342.891V26.9005L337.216 31.811V40.5578H339.363V41.1716H332.385V40.5578H334.532V18.921H332.385V18.3071H339.363V18.921H337.216V31.0437L342.891 26.1332V18.9977H340.744V18.3839H347.722V18.9977H345.575V40.6345H347.722V41.2483H340.744Z" fill="white"/>
<path d="M350.176 18.9974H348.335V18.3836H355.314V18.9974H353.167L355.927 25.9795L357.231 21.913C358.075 19.1509 359.608 18 361.449 18C361.832 18 362.292 18.1535 362.752 18.3836V23.8312H362.369C362.139 21.913 361.295 20.7622 359.992 20.7622C358.841 20.7622 357.845 21.7596 357.384 23.1407L356.234 26.8235L361.679 40.6343H363.289V41.2481H356.311V40.6343H358.688L354.854 30.9667L354.164 33.3453C354.7 33.6522 355.084 34.1893 355.084 34.8031C355.084 35.7238 354.24 36.4911 353.32 36.4911H353.243L352.937 37.4118C352.707 38.179 352.63 38.7928 352.63 39.4834C352.63 40.0972 353.09 40.711 354.164 40.711H354.624V41.3248H348.259V40.711C350.176 40.711 351.48 39.6368 352.246 37.2583C352.246 37.2583 352.553 36.3376 352.553 36.4143C352.016 36.1074 351.633 35.5703 351.633 34.8798C351.633 33.9591 352.323 33.1918 353.32 33.1918C353.397 33.1918 353.55 33.1918 353.627 33.1918L354.547 30.1228L350.176 18.9974Z" fill="white"/>
<path d="M370.806 41.2482V40.6344H372.953V27.591C372.953 29.5858 369.349 31.8109 366.818 31.8876V33.192C367.662 33.2687 368.275 34.036 368.275 34.8032C368.275 35.6472 367.662 36.3378 366.818 36.4145V37.105C366.818 39.4068 367.432 40.481 369.119 40.481H369.502V41.0948H363.367V40.481H363.751C365.668 40.481 366.205 39.1766 366.205 37.105V36.4145C365.438 36.261 364.901 35.6472 364.901 34.8032C364.901 33.9592 365.438 33.3454 366.205 33.192V31.8876C364.824 31.8109 363.904 30.9669 363.904 29.3557C363.904 27.3608 365.744 26.2099 367.815 25.1357C369.886 24.0615 372.109 23.2175 372.109 21.2994C372.109 20.3019 371.879 19.0743 370.116 18.9209C370.576 19.3045 370.806 19.7649 370.806 20.3019C370.806 21.2227 370.192 21.9132 369.195 21.9132C368.198 21.9132 367.508 21.2227 367.508 20.3019C367.508 19.1511 368.352 18.3838 369.732 18.3838C371.956 18.3838 372.953 20.0718 372.953 21.9132V18.3838H377.784V18.9976H375.637V40.6344H377.784V41.2482H370.806ZM372.876 21.9132C372.876 23.8314 371.726 25.2892 368.428 27.1306C367.508 27.6677 366.205 28.5884 366.205 29.9695C366.205 30.5833 366.588 31.0436 367.278 31.0436C369.962 31.0436 372.876 28.8186 372.876 26.1332V21.9132Z" fill="white"/>
<path d="M387.063 41.2483V40.6345H389.21V26.9005L383.535 31.811V40.5578H385.683V41.1716H378.704V40.5578H380.851V18.921H378.704V18.3071H385.683V18.921H383.535V31.0437L389.21 26.1332V18.9977H387.063V18.3839H394.041V18.9977H391.894V40.6345H394.041V41.2483H387.063Z" fill="white"/>
<path d="M402.475 20.6856C402.935 21.0692 403.165 21.5296 403.165 22.0666C403.165 22.9874 402.475 23.6779 401.555 23.6779C400.558 23.6779 399.868 22.9874 399.868 22.0666C399.868 20.9157 400.712 20.1485 402.092 20.1485C403.702 20.1485 405.006 21.2994 405.006 23.0641C405.006 24.4452 404.239 25.5193 403.396 27.1306C399.945 33.8058 400.021 34.1127 399.791 34.9567C399.715 35.2636 399.331 36.261 399.331 37.1817C399.331 38.793 400.175 40.4043 401.478 40.7112V41.325H394.653V40.7112H397.644C397.184 40.0973 396.264 38.9464 396.264 37.4119C396.264 35.4938 397.874 32.7316 399.638 30.8135C402.169 28.128 404.469 25.2124 404.469 22.9106C404.546 21.8365 403.856 20.839 402.475 20.6856ZM402.935 18.9976V18.3838H409.914V18.9976H407.767V40.6344H409.914V41.2482H402.935V40.6344H405.083V18.9976H402.935Z" fill="white"/>
<path d="M418.351 41.2482V40.6344H420.498V27.591C420.498 29.5858 416.894 31.8109 414.363 31.8876V33.192C415.207 33.2687 415.82 34.036 415.82 34.8032C415.82 35.6472 415.207 36.3378 414.363 36.4145V37.105C414.363 39.4068 414.976 40.481 416.664 40.481H417.047V41.0948H410.912V40.481H411.219C413.059 40.481 413.673 39.1766 413.673 37.105V36.4145C412.906 36.261 412.369 35.6472 412.369 34.8032C412.369 33.9592 412.906 33.3454 413.673 33.192V31.8876C412.292 31.8109 411.372 30.9669 411.372 29.3557C411.372 27.3608 413.213 26.2099 415.283 25.1357C417.354 24.0615 419.578 23.2175 419.578 21.2994C419.578 20.3019 419.348 19.0743 417.584 18.9209C418.044 19.3045 418.274 19.7649 418.274 20.3019C418.274 21.2227 417.66 21.9132 416.664 21.9132C415.667 21.9132 414.976 21.2227 414.976 20.3019C414.976 19.1511 415.82 18.3838 417.2 18.3838C419.424 18.3838 420.421 20.0718 420.421 21.9132V18.3838H425.252V18.9976H423.105V40.6344H425.252V41.2482H418.351ZM420.498 21.9132C420.498 23.8314 419.348 25.2892 415.973 27.1306C415.053 27.6677 413.749 28.5884 413.749 29.9695C413.749 30.5833 414.133 31.0436 414.823 31.0436C417.507 31.0436 420.421 28.8186 420.421 26.1332V21.9132H420.498Z" fill="white"/>
<path d="M166.929 41.3249V40.7111H169.076V27.6676C169.076 29.6625 165.472 31.8876 162.941 31.9643V33.2686C163.785 33.3453 164.398 34.1126 164.398 34.8799C164.398 35.7239 163.708 36.4144 162.941 36.4911V37.1817C162.941 39.4835 163.555 40.5576 165.242 40.5576H165.625V41.1714H159.49V40.7111H159.797C161.714 40.7111 162.251 39.4067 162.251 37.3351V36.6446C161.484 36.4911 160.947 35.8773 160.947 35.0333C160.947 34.1893 161.484 33.5755 162.251 33.4221V32.1177C160.871 32.041 159.95 31.197 159.95 29.5858C159.95 27.5909 161.791 26.44 163.861 25.3658C165.932 24.2916 168.156 23.4477 168.156 21.5295C168.156 20.5321 167.926 19.3044 166.162 19.151C166.622 19.5346 166.852 19.995 166.852 20.5321C166.852 21.4528 166.239 22.1433 165.242 22.1433C164.245 22.1433 163.555 21.4528 163.555 20.5321C163.555 19.3812 164.398 18.5372 165.778 18.5372C168.002 18.5372 168.999 20.2252 168.999 22.0666V18.4604H173.831V19.0743H171.683V40.7111H173.831V41.3249H166.929ZM169.076 21.9899C169.076 23.908 167.926 25.3658 164.552 27.2072C163.555 27.7443 162.328 28.6651 162.328 30.0461C162.328 30.6599 162.711 31.1203 163.401 31.1203C166.085 31.1203 168.999 28.8952 168.999 26.2098V21.9899H169.076Z" fill="white"/>
<path d="M179.198 40.7109H181.882V41.3247H174.367V40.7109H176.514V25.6726C176.514 20.5319 179.505 18.0767 183.493 18.0767C186.79 18.0767 189.244 19.6112 189.244 22.5268C189.244 24.982 187.557 27.1304 184.03 27.1304C182.956 27.1304 182.266 26.7467 181.806 26.3631L179.275 30.583V40.7109H179.198ZM181.576 25.6726C181.806 25.9027 182.343 26.0562 182.879 26.0562C184.72 26.0562 186.637 24.6751 186.637 22.5268C186.637 20.3784 184.95 18.6905 183.109 18.6905C180.809 18.6905 179.275 20.3017 179.275 22.757V29.5856L181.576 25.6726Z" fill="white"/>
<path d="M191.008 19.0741H189.167V18.4603H196.145V19.0741H193.998L196.759 26.0562L198.063 21.9897C198.906 19.2276 200.44 18.0767 202.28 18.0767C202.664 18.0767 203.124 18.2301 203.507 18.4603V23.9079H203.124C202.894 21.9897 202.05 20.8388 200.747 20.8388C199.596 20.8388 198.599 21.8363 198.139 23.2173L196.989 26.9002L202.434 40.7109H204.044V41.3247H197.066V40.7109H199.443L195.609 31.0434L194.919 33.4219C195.455 33.7288 195.839 34.2659 195.839 34.8797C195.839 35.8772 194.995 36.5677 194.075 36.5677H193.998L193.692 37.4884C193.461 38.2557 193.385 38.8695 193.385 39.56C193.385 40.1738 193.845 40.7877 194.919 40.7877H195.379V41.4015H189.014V40.7109C190.854 40.7109 192.234 39.6368 193.001 37.2582C193.001 37.2582 193.308 36.3375 193.308 36.4143C192.695 36.1073 192.311 35.5703 192.311 34.8797C192.311 33.959 193.001 33.1918 193.998 33.1918C194.075 33.1918 194.228 33.1918 194.305 33.1918L195.225 30.1227L191.008 19.0741Z" fill="white"/>
<path d="M211.79 41.4015V40.7877H213.937V27.7443C213.937 29.7392 210.333 31.9642 207.802 32.0409V33.3453C208.646 33.422 209.259 34.1893 209.259 34.9565C209.259 35.8005 208.569 36.4911 207.802 36.5678V37.2583C207.802 39.5601 208.416 40.6343 210.103 40.6343H210.486V41.2481H204.352V40.7877H204.658C206.499 40.7877 207.112 39.4834 207.112 37.4118V36.7213C206.345 36.5678 205.809 35.954 205.809 35.11C205.809 34.266 206.345 33.6522 207.112 33.4987V32.1944C205.732 32.1177 204.812 31.2737 204.812 29.6624C204.812 27.6675 206.652 26.5166 208.723 25.4425C210.793 24.3683 213.017 23.5243 213.017 21.6062C213.017 20.6087 212.787 19.3811 211.023 19.2276C211.483 19.6113 211.713 20.0716 211.713 20.6087C211.713 21.5294 211.1 22.22 210.103 22.22C209.106 22.22 208.416 21.5294 208.416 20.6087C208.416 19.4578 209.259 18.6138 210.64 18.6138C212.864 18.6138 213.861 20.3018 213.861 22.1433V18.5371H218.692V19.1509H216.545V40.7877H218.692V41.4015H211.79ZM213.861 22.0665C213.861 23.9847 212.71 25.4425 209.336 27.2839C208.339 27.821 207.112 28.7417 207.112 30.1228C207.112 30.7366 207.496 31.1969 208.186 31.1969C210.87 31.1969 213.784 28.9719 213.784 26.2865V22.0665H213.861Z" fill="white"/>
<path d="M228.046 41.3249V40.7111H230.194V30.4298L224.519 28.2814V40.7111H226.666V41.3249H219.688V40.7111H221.835V19.0743H219.688V18.4604H226.666V19.0743H224.519V27.6676L230.194 29.8159V19.0743H228.046V18.4604H235.025V19.0743H232.878V40.7111H235.025V41.3249H228.046Z" fill="white"/>
<path d="M248.677 25.2891H248.37C247.986 22.2968 248.37 19.0743 243.692 19.0743H241.161V40.7111H243.309V41.3249H236.33V40.7111H238.477V19.0743H236.33V18.4604H249.52L248.677 25.2891Z" fill="white"/>
<path d="M262.786 34.4194C262.326 38.9462 260.486 41.7084 256.882 41.7084C252.587 41.7084 250.517 36.491 250.517 30.2762C250.517 23.3708 253.277 18.0767 257.342 18.0767C260.256 18.0767 262.173 20.3784 262.633 23.6777H263.937V24.2915H258.492V23.6777H260.026C260.026 21.6828 259.642 18.6905 257.342 18.6905C254.274 18.6905 253.737 23.6777 253.584 28.6649C254.274 27.5907 255.578 27.0537 256.728 27.0537C259.105 27.0537 260.486 28.9718 260.486 30.7365H255.655V30.1227H256.728C258.032 30.1227 258.339 29.7391 258.339 28.9718C258.339 28.358 257.955 27.6675 256.728 27.6675C255.808 27.6675 253.584 28.2813 253.584 30.7365C253.584 35.2634 253.737 41.0946 256.805 41.0946C259.336 41.0946 259.949 38.7928 259.949 34.4194H258.262V33.8056H264.167V34.4194H262.786Z" fill="white"/>
<path d="M271.989 20.7622C272.45 21.1459 272.68 21.6062 272.68 22.1433C272.68 23.064 272.066 23.7546 271.146 23.7546C270.149 23.7546 269.459 23.064 269.459 22.1433C269.459 20.9924 270.302 20.2251 271.683 20.2251C273.293 20.2251 274.597 21.3761 274.597 23.1408C274.597 24.5218 273.83 25.596 272.986 27.2072C269.535 33.8824 269.612 34.1893 269.382 35.0333C269.305 35.3402 268.922 36.3377 268.922 37.2584C268.922 38.8696 269.766 40.4809 271.069 40.7878V41.4016H264.244V40.7111H267.235C266.775 40.0973 265.855 38.9464 265.855 37.4119C265.855 35.4937 267.465 32.7315 269.229 30.8134C271.759 28.128 274.06 25.2124 274.06 22.9106C274.06 21.9131 273.446 20.9157 271.989 20.7622ZM272.45 19.0743V18.4604H279.428V19.0743H277.281V40.7111H279.428V41.3249H272.45V40.7111H274.597V19.0743H272.45Z" fill="white"/>
<path d="M287.862 41.3249V40.7111H290.01V27.6676C290.01 29.6625 286.405 31.8876 283.875 31.9643V33.2686C284.718 33.3453 285.332 34.1126 285.332 34.8799C285.332 35.7239 284.718 36.4144 283.875 36.4911V37.1817C283.875 39.4835 284.488 40.5576 286.175 40.5576H286.559V41.1714H280.424V40.7111H280.731C282.648 40.7111 283.185 39.4067 283.185 37.3351V36.6446C282.418 36.4911 281.881 35.8773 281.881 35.0333C281.881 34.1893 282.418 33.5755 283.185 33.4221V32.1177C281.804 32.041 280.884 31.197 280.884 29.5858C280.884 27.5909 282.724 26.44 284.795 25.3658C286.865 24.2916 289.089 23.4477 289.089 21.5295C289.089 20.5321 288.859 19.3044 287.096 19.151C287.556 19.5346 287.786 19.995 287.786 20.5321C287.786 21.4528 287.172 22.1433 286.175 22.1433C285.178 22.1433 284.488 21.4528 284.488 20.5321C284.488 19.3812 285.332 18.5372 286.712 18.5372C288.936 18.5372 289.933 20.2252 289.933 22.0666V18.4604H294.764V19.0743H292.617V40.7111H294.764V41.3249H287.862ZM290.01 21.9899C290.01 23.908 288.859 25.3658 285.562 27.2072C284.565 27.7443 283.338 28.6651 283.338 30.0461C283.338 30.6599 283.721 31.1203 284.412 31.1203C287.096 31.1203 290.01 28.8952 290.01 26.2098V21.9899Z" fill="white"/>
</svg>
