<svg width="68" height="18" viewBox="0 0 68 18" fill="none" xmlns="http://www.w3.org/2000/svg">
<path d="M28.3966 5.1388C27.8526 4.53558 26.9278 4.20654 25.6766 4.20654H21.9774C21.7054 4.20654 21.4878 4.37106 21.4878 4.64525L19.9646 14.242C19.9102 14.4065 20.0734 14.6259 20.291 14.6259H22.0862C22.3582 14.6259 22.5758 14.4614 22.5758 14.1872L22.9566 11.6098C23.011 11.3356 23.2286 11.1711 23.4462 11.1711H24.643C27.091 11.1711 28.5054 9.96461 28.8862 7.60654C29.0494 6.50977 28.8862 5.68719 28.3966 5.1388ZM26.1118 7.71622C25.8942 9.08719 24.915 9.08719 23.8814 9.08719H23.3374L23.7182 6.56461C23.7182 6.40009 23.8814 6.29041 24.0446 6.29041H24.3166C24.9694 6.29041 25.6222 6.29041 25.9486 6.67428C26.1118 6.89364 26.1662 7.22267 26.1118 7.71622Z" fill="#253B80"/>
<path d="M36.8285 7.66134H35.0333C34.8701 7.66134 34.7613 7.77102 34.7069 7.93554L34.6525 8.42908L34.5437 8.26457C34.1629 7.71618 33.2925 7.49683 32.4221 7.49683C30.4637 7.49683 28.7773 8.97747 28.4509 11.1162C28.2877 12.1581 28.5053 13.2001 29.1037 13.8581C29.6477 14.5162 30.4093 14.7904 31.3341 14.7904C32.9117 14.7904 33.7821 13.7484 33.7821 13.7484L33.7277 14.242C33.6733 14.4065 33.8365 14.6259 34.0541 14.6259H35.6317C35.9037 14.6259 36.1213 14.4613 36.1213 14.1871L37.1005 8.04521C37.1549 7.82586 36.9917 7.66134 36.8285 7.66134ZM34.3261 11.1162C34.1629 12.1581 33.3469 12.8162 32.3133 12.8162C31.7693 12.8162 31.3885 12.6517 31.1165 12.3226C30.8445 11.9936 30.7357 11.5549 30.8445 11.0613C31.0077 10.0194 31.8237 9.3065 32.8573 9.3065C33.3469 9.3065 33.7821 9.47102 34.0541 9.80005C34.2717 10.1839 34.3805 10.6226 34.3261 11.1162Z" fill="#253B80"/>
<path fill-rule="evenodd" clip-rule="evenodd" d="M46.2944 7.66138H44.4992C44.336 7.66138 44.1728 7.77105 44.064 7.88073L41.616 11.5549L40.5824 8.04525C40.528 7.82589 40.3104 7.66138 40.0928 7.66138H38.352C38.1344 7.66138 37.9712 7.88073 38.08 8.10009L40.0384 13.913L38.1888 16.5452C38.0256 16.7646 38.1888 17.0388 38.4608 17.0388H40.256C40.4192 17.0388 40.5824 16.9291 40.6912 16.8194L46.5664 8.15493C46.6752 7.93557 46.5664 7.66138 46.2944 7.66138Z" fill="#253B80"/>
<path d="M54.944 5.1388C54.4 4.53558 53.4752 4.20654 52.224 4.20654H48.5248C48.2528 4.20654 48.0352 4.37106 48.0352 4.64525L46.512 14.242C46.4576 14.4065 46.6208 14.6259 46.8384 14.6259H48.7424C48.9056 14.6259 49.0688 14.5162 49.1232 14.2969L49.5584 11.5549C49.6128 11.2807 49.8304 11.1162 50.048 11.1162H51.2448C53.6928 11.1162 55.1072 9.90977 55.488 7.5517C55.5968 6.50977 55.4336 5.68719 54.944 5.1388ZM52.6592 7.71622C52.4416 9.08719 51.4624 9.08719 50.4288 9.08719H49.8848L50.2656 6.56461C50.2656 6.40009 50.4288 6.29041 50.592 6.29041H50.864C51.5168 6.29041 52.1696 6.29041 52.496 6.67428C52.6592 6.89364 52.7136 7.22267 52.6592 7.71622Z" fill="#179BD7"/>
<path d="M63.3217 7.66134H61.5265C61.3633 7.66134 61.2545 7.77102 61.2001 7.93554L61.1457 8.42908L61.0369 8.26457C60.6561 7.71618 59.7857 7.49683 58.9153 7.49683C56.9569 7.49683 55.2705 8.97747 54.9441 11.1162C54.7809 12.1581 54.9985 13.2001 55.5969 13.8581C56.1409 14.5162 56.9025 14.7904 57.8273 14.7904C59.4049 14.7904 60.2753 13.7484 60.2753 13.7484L60.2209 14.242C60.1665 14.4065 60.3297 14.6259 60.5473 14.6259H62.1249C62.3969 14.6259 62.6145 14.4613 62.6145 14.1871L63.5937 8.04521C63.7025 7.82586 63.5393 7.66134 63.3217 7.66134ZM60.8737 11.1162C60.7105 12.1581 59.8945 12.8162 58.8609 12.8162C58.3713 12.8162 57.9361 12.6517 57.6641 12.3226C57.3921 11.9936 57.2833 11.5549 57.3921 11.0613C57.5553 10.0194 58.3713 9.3065 59.4049 9.3065C59.8945 9.3065 60.3297 9.47102 60.6017 9.80005C60.8193 10.1839 60.9281 10.6226 60.8737 11.1162Z" fill="#179BD7"/>
<path fill-rule="evenodd" clip-rule="evenodd" d="M67.4559 4.15161H65.7151C65.5519 4.15161 65.4431 4.26129 65.3887 4.4258L63.8655 14.2419C63.8111 14.4065 63.9743 14.6258 64.1919 14.6258H65.7151C65.9871 14.6258 66.2047 14.4613 66.2047 14.1871L67.7279 4.59032C67.7823 4.37097 67.6735 4.15161 67.4559 4.15161Z" fill="#179BD7"/>
<path fill-rule="evenodd" clip-rule="evenodd" d="M13.0559 4.7002C13.0559 4.75503 13.0559 4.86471 13.0559 4.97439C12.4031 8.48407 10.0639 9.63568 7.12626 9.63568H5.60306C5.22226 9.63568 4.95026 9.90987 4.89586 10.2389L4.13426 15.1196L3.91666 16.4905C3.86226 16.7099 4.07986 16.9292 4.29746 16.9292H6.96306C7.28946 16.9292 7.56146 16.7099 7.61586 16.3808V16.2712L8.10546 13.0905L8.15986 12.926C8.21426 12.597 8.48626 12.3776 8.81266 12.3776H9.19346C11.7503 12.3776 13.7631 11.3357 14.3615 8.26471C14.6335 7.00342 14.4703 5.90665 13.8175 5.19374C13.5999 5.02923 13.3823 4.80987 13.0559 4.7002Z" fill="#179BD7"/>
<path fill-rule="evenodd" clip-rule="evenodd" d="M12.4032 4.4258C12.2944 4.37097 12.1856 4.31613 12.0768 4.31613C11.968 4.31613 11.8592 4.26129 11.7504 4.26129C11.3696 4.20645 10.88 4.15161 10.4448 4.15161H6.4192C6.3104 4.15161 6.2016 4.15161 6.1472 4.20645C5.9296 4.31613 5.8208 4.48064 5.7664 4.7L4.896 10.129V10.2935C4.9504 9.90968 5.2768 9.69032 5.6032 9.69032H7.1264C10.064 9.69032 12.3488 8.48387 13.056 5.02903C13.056 4.86451 13.056 4.75484 13.056 4.7C12.8928 4.59032 12.6752 4.53548 12.512 4.48064C12.4576 4.4258 12.4032 4.4258 12.4032 4.4258Z" fill="#222D65"/>
<path fill-rule="evenodd" clip-rule="evenodd" d="M5.76644 4.70012C5.82084 4.48076 5.92964 4.31625 6.14724 4.20657C6.25604 4.15173 6.31044 4.15173 6.41924 4.15173H10.4448C10.9344 4.15173 11.3696 4.20657 11.7504 4.26141C11.8592 4.26141 11.968 4.31625 12.0768 4.31625C12.1856 4.31625 12.2944 4.37109 12.4032 4.42593C12.4576 4.42593 12.512 4.48076 12.5664 4.48076C12.784 4.5356 12.9472 4.64528 13.1104 4.70012C13.328 3.43883 13.1104 2.56141 12.4032 1.73883C11.6416 0.86141 10.2816 0.477539 8.48644 0.477539H3.37284C3.04644 0.477539 2.72004 0.751733 2.66564 1.08076L0.544036 14.6808C0.489636 14.955 0.707236 15.1743 0.979236 15.1743H4.13444L4.89604 10.1292L5.76644 4.70012Z" fill="#253B80"/>
</svg>
